<svg version="1.1" viewBox="0.0 0.0 800.0 600.0" fill="none" stroke="none" stroke-linecap="square" stroke-miterlimit="10" xmlns:xlink="http://www.w3.org/1999/xlink" xmlns="http://www.w3.org/2000/svg"><clipPath id="p.0"><path d="m0 0l800.0 0l0 600.0l-800.0 0l0 -600.0z" clip-rule="nonzero"/></clipPath><g clip-path="url(#p.0)"><path fill="#000000" fill-opacity="0.0" d="m0 0l800.0 0l0 600.0l-800.0 0z" fill-rule="evenodd"/><path fill="#000000" fill-opacity="0.0" d="m48.00525 192.05511l654.92914 0.22047424" fill-rule="evenodd"/><path stroke="#000000" stroke-width="1.0" stroke-linejoin="round" stroke-linecap="butt" d="m48.00525 192.05511l648.92914 0.21844482" fill-rule="evenodd"/><path fill="#000000" stroke="#000000" stroke-width="1.0" stroke-linecap="butt" d="m696.93384 193.92531l4.5386353 -1.6502075l-4.5375366 -1.6532593z" fill-rule="evenodd"/><path fill="#000000" fill-opacity="0.0" d="m48.503937 184.09865c7.1522293 -1.3709564 24.381012 -14.713043 42.913383 -8.225723c18.532372 6.4873047 47.254158 47.50743 68.280846 47.149597c21.026688 -0.3578186 42.04811 -43.24147 57.879257 -49.296585c15.831146 -6.0551147 15.30928 18.13823 37.10762 12.965881c21.798325 -5.172348 68.87926 -47.33333 93.68242 -44.0c24.803131 3.3333282 39.12903 57.33333 55.136475 64.0c16.007446 6.6666718 29.930023 -21.21959 40.908142 -24.0c10.978119 -2.7803955 18.222656 7.502182 24.960632 7.317581c6.737976 -0.18460083 10.232269 -8.318893 15.467194 -8.425186c5.234894 -0.10630798 10.263336 7.269455 15.942261 7.7873993c5.678894 0.5179291 12.131226 -4.1797943 18.131226 -4.6797943c6.0 -0.5 10.880127 1.7217865 17.868774 1.6797943c6.9885864 -0.041992188 17.116333 -3.2047272 24.062988 -1.9317627c6.946594 1.2729645 10.93042 7.558182 17.61676 9.56955c6.6864014 2.011383 15.334656 2.1653595 22.501343 2.4986877c7.166687 0.3333435 14.165344 0.107177734 20.498657 -0.49868774c6.333374 -0.6058502 14.584473 -2.6137238 17.501343 -3.1364746" fill-rule="evenodd"/><path stroke="#000000" stroke-width="1.0" stroke-linejoin="round" stroke-linecap="butt" d="m48.503937 184.09865c7.1522293 -1.3709564 24.381012 -14.713043 42.913383 -8.225723c18.532372 6.4873047 47.254158 47.50743 68.280846 47.149597c21.026688 -0.3578186 42.04811 -43.24147 57.879257 -49.296585c15.831146 -6.0551147 15.30928 18.13823 37.10762 12.965881c21.798325 -5.172348 68.87926 -47.33333 93.68242 -44.0c24.803131 3.3333282 39.12903 57.33333 55.136475 64.0c16.007446 6.6666718 29.930023 -21.21959 40.908142 -24.0c10.978119 -2.7803955 18.222656 7.502182 24.960632 7.317581c6.737976 -0.18460083 10.232269 -8.318893 15.467194 -8.425186c5.234894 -0.10630798 10.263336 7.269455 15.942261 7.7873993c5.678894 0.5179291 12.131226 -4.1797943 18.131226 -4.6797943c6.0 -0.5 10.880127 1.7217865 17.868774 1.6797943c6.9885864 -0.041992188 17.116333 -3.2047272 24.062988 -1.9317627c6.946594 1.2729645 10.93042 7.558182 17.61676 9.56955c6.6864014 2.011383 15.334656 2.1653595 22.501343 2.4986877c7.166687 0.3333435 14.165344 0.107177734 20.498657 -0.49868774c6.333374 -0.6058502 14.584473 -2.6137238 17.501343 -3.1364746" fill-rule="evenodd"/><path fill="#000000" fill-opacity="0.0" d="m122.08137 186.98688l-0.03150177 13.3858185" fill-rule="evenodd"/><path stroke="#000000" stroke-width="1.0" stroke-linejoin="round" stroke-linecap="butt" stroke-dasharray="1.0,3.0" d="m122.08137 186.98688l-0.03150177 13.3858185" fill-rule="evenodd"/><path fill="#000000" fill-opacity="0.0" d="m212.64436 205.3727l0.12597656 -29.13385" fill-rule="evenodd"/><path stroke="#000000" stroke-width="1.0" stroke-linejoin="round" stroke-linecap="butt" stroke-dasharray="1.0,3.0" d="m212.64436 205.3727l0.12597656 -29.13385" fill-rule="evenodd"/><path fill="#000000" fill-opacity="0.0" d="m48.00525 78.874016l0 223.52756" fill-rule="evenodd"/><path stroke="#000000" stroke-width="1.0" stroke-linejoin="round" stroke-linecap="butt" d="m48.00525 84.874016l0 211.52756" fill-rule="evenodd"/><path fill="#000000" stroke="#000000" stroke-width="1.0" stroke-linecap="butt" d="m49.656982 84.874016l-1.6517334 -4.538101l-1.6517334 4.538101z" fill-rule="evenodd"/><path fill="#000000" stroke="#000000" stroke-width="1.0" stroke-linecap="butt" d="m46.353516 296.40158l1.6517334 4.538086l1.6517334 -4.538086z" fill-rule="evenodd"/><path fill="#000000" fill-opacity="0.0" d="m48.00525 185.8727l0 48.503952" fill-rule="evenodd"/><path stroke="#000000" stroke-width="1.0" stroke-linejoin="round" stroke-linecap="butt" d="m48.00525 185.8727l0 44.713943" fill-rule="evenodd"/><path stroke="#000000" stroke-width="1.0" stroke-linecap="butt" d="m49.65025 230.58664l0 3.2900085l-3.290001 0l0 -3.2900085l3.290001 0z" fill-rule="nonzero"/><path fill="#000000" fill-opacity="0.0" d="m48.00525 147.8727l0 48.503952" fill-rule="evenodd"/><path stroke="#000000" stroke-width="1.0" stroke-linejoin="round" stroke-linecap="butt" d="m48.00525 151.6627l0 44.713943" fill-rule="evenodd"/><path stroke="#000000" stroke-width="1.0" stroke-linecap="butt" d="m46.36025 151.6627l0 -3.2900085l3.290001 0l0 3.2900085l-3.290001 0z" fill-rule="nonzero"/><path fill="#000000" fill-opacity="0.0" d="m48.00525 226.37665l0 48.503937" fill-rule="evenodd"/><path stroke="#000000" stroke-width="1.0" stroke-linejoin="round" stroke-linecap="butt" d="m48.00525 226.37665l0 44.71393" fill-rule="evenodd"/><path stroke="#000000" stroke-width="1.0" stroke-linecap="butt" d="m49.65025 271.09058l0 3.2900085l-3.290001 0l0 -3.2900085l3.290001 0z" fill-rule="nonzero"/><path fill="#000000" fill-opacity="0.0" d="m48.00525 107.86877l0 48.50393" fill-rule="evenodd"/><path stroke="#000000" stroke-width="1.0" stroke-linejoin="round" stroke-linecap="butt" d="m48.00525 111.65876l0 44.713936" fill-rule="evenodd"/><path stroke="#000000" stroke-width="1.0" stroke-linecap="butt" d="m46.36025 111.65877l0 -3.290001l3.290001 0l0 3.290001l-3.290001 0z" fill-rule="nonzero"/><path fill="#000000" fill-opacity="0.0" d="m0 179.0315l42.362206 0l0 23.2126l-42.362206 0z" fill-rule="evenodd"/><path fill="#000000" d="m13.171337 194.14592l0 -0.703125q-0.53125 -0.0625 -0.859375 -0.234375q-0.328125 -0.171875 -0.578125 -0.546875q-0.234375 -0.390625 -0.28125 -0.9375l0.71875 -0.125q0.078125 0.5625 0.28125 0.828125q0.296875 0.375 0.71875 0.421875l0 -2.25q-0.4375 -0.078125 -0.890625 -0.328125q-0.34375 -0.1875 -0.53125 -0.515625q-0.171875 -0.34375 -0.171875 -0.765625q0 -0.75 0.53125 -1.203125q0.359375 -0.3125 1.0625 -0.390625l0 -0.328125l0.40625 0l0 0.328125q0.609375 0.0625 0.96875 0.359375q0.46875 0.390625 0.5625 1.046875l-0.734375 0.109375q-0.0625 -0.40625 -0.265625 -0.625q-0.1875 -0.21875 -0.53125 -0.296875l0 2.03125q0.53125 0.125 0.703125 0.203125q0.328125 0.140625 0.53125 0.359375q0.21875 0.203125 0.328125 0.484375q0.109375 0.28125 0.109375 0.625q0 0.71875 -0.46875 1.21875q-0.46875 0.484375 -1.203125 0.515625l0 0.71875l-0.40625 0zm0 -6.15625q-0.421875 0.0625 -0.65625 0.328125q-0.234375 0.265625 -0.234375 0.625q0 0.359375 0.203125 0.609375q0.203125 0.234375 0.6875 0.375l0 -1.9375zm0.40625 4.859375q0.40625 -0.0625 0.671875 -0.359375q0.28125 -0.3125 0.28125 -0.75q0 -0.390625 -0.203125 -0.625q-0.1875 -0.234375 -0.75 -0.40625l0 2.140625zm5.0273438 0.46875l-0.703125 0l0 -4.484375q-0.25 0.25 -0.671875 0.5q-0.40625 0.234375 -0.734375 0.34375l0 -0.671875q0.59375 -0.28125 1.03125 -0.671875q0.4375 -0.390625 0.625 -0.765625l0.453125 0l0 5.75zm2.1992188 0l0 -0.796875l0.796875 0l0 0.796875l-0.796875 0zm1.8164062 -2.828125q0 -1.015625 0.203125 -1.625q0.21875 -0.625 0.625 -0.953125q0.421875 -0.34375 1.046875 -0.34375q0.453125 0 0.796875 0.1875q0.359375 0.1875 0.578125 0.53125q0.234375 0.34375 0.359375 0.859375q0.125 0.5 0.125 1.34375q0 1.015625 -0.203125 1.640625q-0.203125 0.609375 -0.625 0.953125q-0.40625 0.328125 -1.03125 0.328125q-0.828125 0 -1.296875 -0.59375q-0.578125 -0.71875 -0.578125 -2.328125zm0.734375 0q0 1.40625 0.328125 1.875q0.328125 0.46875 0.8125 0.46875q0.484375 0 0.8125 -0.46875q0.328125 -0.46875 0.328125 -1.875q0 -1.40625 -0.328125 -1.875q-0.328125 -0.46875 -0.828125 -0.46875q-0.484375 0 -0.765625 0.40625q-0.359375 0.53125 -0.359375 1.9375zm3.7148438 0q0 -1.015625 0.203125 -1.625q0.21875 -0.625 0.625 -0.953125q0.421875 -0.34375 1.046875 -0.34375q0.453125 0 0.796875 0.1875q0.359375 0.1875 0.578125 0.53125q0.234375 0.34375 0.359375 0.859375q0.125 0.5 0.125 1.34375q0 1.015625 -0.203125 1.640625q-0.203125 0.609375 -0.625 0.953125q-0.40625 0.328125 -1.03125 0.328125q-0.828125 0 -1.296875 -0.59375q-0.578125 -0.71875 -0.578125 -2.328125zm0.734375 0q0 1.40625 0.328125 1.875q0.328125 0.46875 0.8125 0.46875q0.484375 0 0.8125 -0.46875q0.328125 -0.46875 0.328125 -1.875q0 -1.40625 -0.328125 -1.875q-0.328125 -0.46875 -0.828125 -0.46875q-0.484375 0 -0.765625 0.40625q-0.359375 0.53125 -0.359375 1.9375z" fill-rule="nonzero"/><path fill="#000000" fill-opacity="0.0" d="m0 139.13124l42.362206 0l0 23.212585l-42.362206 0z" fill-rule="evenodd"/><path fill="#000000" d="m13.171337 154.24565l0 -0.703125q-0.53125 -0.0625 -0.859375 -0.234375q-0.328125 -0.171875 -0.578125 -0.546875q-0.234375 -0.390625 -0.28125 -0.9375l0.71875 -0.125q0.078125 0.5625 0.28125 0.828125q0.296875 0.375 0.71875 0.421875l0 -2.25q-0.4375 -0.078125 -0.890625 -0.328125q-0.34375 -0.1875 -0.53125 -0.515625q-0.171875 -0.34375 -0.171875 -0.765625q0 -0.75 0.53125 -1.203125q0.359375 -0.3125 1.0625 -0.390625l0 -0.328125l0.40625 0l0 0.328125q0.609375 0.0625 0.96875 0.359375q0.46875 0.390625 0.5625 1.046875l-0.734375 0.109375q-0.0625 -0.40625 -0.265625 -0.625q-0.1875 -0.21875 -0.53125 -0.296875l0 2.03125q0.53125 0.125 0.703125 0.203125q0.328125 0.140625 0.53125 0.359375q0.21875 0.203125 0.328125 0.484375q0.109375 0.28125 0.109375 0.625q0 0.71875 -0.46875 1.21875q-0.46875 0.484375 -1.203125 0.515625l0 0.71875l-0.40625 0zm0 -6.15625q-0.421875 0.0625 -0.65625 0.328125q-0.234375 0.265625 -0.234375 0.625q0 0.359375 0.203125 0.609375q0.203125 0.234375 0.6875 0.375l0 -1.9375zm0.40625 4.859375q0.40625 -0.0625 0.671875 -0.359375q0.28125 -0.3125 0.28125 -0.75q0 -0.390625 -0.203125 -0.625q-0.1875 -0.234375 -0.75 -0.40625l0 2.140625zm5.0273438 0.46875l-0.703125 0l0 -4.484375q-0.25 0.25 -0.671875 0.5q-0.40625 0.234375 -0.734375 0.34375l0 -0.671875q0.59375 -0.28125 1.03125 -0.671875q0.4375 -0.390625 0.625 -0.765625l0.453125 0l0 5.75zm2.1992188 0l0 -0.796875l0.796875 0l0 0.796875l-0.796875 0zm1.8164062 -2.828125q0 -1.015625 0.203125 -1.625q0.21875 -0.625 0.625 -0.953125q0.421875 -0.34375 1.046875 -0.34375q0.453125 0 0.796875 0.1875q0.359375 0.1875 0.578125 0.53125q0.234375 0.34375 0.359375 0.859375q0.125 0.5 0.125 1.34375q0 1.015625 -0.203125 1.640625q-0.203125 0.609375 -0.625 0.953125q-0.40625 0.328125 -1.03125 0.328125q-0.828125 0 -1.296875 -0.59375q-0.578125 -0.71875 -0.578125 -2.328125zm0.734375 0q0 1.40625 0.328125 1.875q0.328125 0.46875 0.8125 0.46875q0.484375 0 0.8125 -0.46875q0.328125 -0.46875 0.328125 -1.875q0 -1.40625 -0.328125 -1.875q-0.328125 -0.46875 -0.828125 -0.46875q-0.484375 0 -0.765625 0.40625q-0.359375 0.53125 -0.359375 1.9375zm3.7148438 1.328125l0.75 -0.0625q0.078125 0.53125 0.375 0.8125q0.296875 0.265625 0.71875 0.265625q0.515625 0 0.859375 -0.375q0.359375 -0.390625 0.359375 -1.015625q0 -0.609375 -0.34375 -0.953125q-0.34375 -0.34375 -0.890625 -0.34375q-0.328125 0 -0.609375 0.15625q-0.265625 0.140625 -0.421875 0.390625l-0.671875 -0.078125l0.5625 -2.953125l2.84375 0l0 0.671875l-2.28125 0l-0.3125 1.546875q0.515625 -0.359375 1.078125 -0.359375q0.75 0 1.265625 0.515625q0.515625 0.515625 0.515625 1.34375q0 0.765625 -0.453125 1.34375q-0.546875 0.6875 -1.5 0.6875q-0.78125 0 -1.28125 -0.4375q-0.484375 -0.4375 -0.5625 -1.15625z" fill-rule="nonzero"/><path fill="#000000" fill-opacity="0.0" d="m0 218.93176l42.362206 0l0 23.2126l-42.362206 0z" fill-rule="evenodd"/><path fill="#000000" d="m13.171337 234.04619l0 -0.703125q-0.53125 -0.0625 -0.859375 -0.234375q-0.328125 -0.171875 -0.578125 -0.546875q-0.234375 -0.390625 -0.28125 -0.9375l0.71875 -0.125q0.078125 0.5625 0.28125 0.828125q0.296875 0.375 0.71875 0.421875l0 -2.25q-0.4375 -0.078125 -0.890625 -0.328125q-0.34375 -0.1875 -0.53125 -0.515625q-0.171875 -0.34375 -0.171875 -0.765625q0 -0.75 0.53125 -1.203125q0.359375 -0.3125 1.0625 -0.390625l0 -0.328125l0.40625 0l0 0.328125q0.609375 0.0625 0.96875 0.359375q0.46875 0.390625 0.5625 1.046875l-0.734375 0.109375q-0.0625 -0.40625 -0.265625 -0.625q-0.1875 -0.21875 -0.53125 -0.296875l0 2.03125q0.53125 0.125 0.703125 0.203125q0.328125 0.140625 0.53125 0.359375q0.21875 0.203125 0.328125 0.484375q0.109375 0.28125 0.109375 0.625q0 0.71875 -0.46875 1.21875q-0.46875 0.484375 -1.203125 0.515625l0 0.71875l-0.40625 0zm0 -6.15625q-0.421875 0.0625 -0.65625 0.328125q-0.234375 0.265625 -0.234375 0.625q0 0.359375 0.203125 0.609375q0.203125 0.234375 0.6875 0.375l0 -1.9375zm0.40625 4.859375q0.40625 -0.0625 0.671875 -0.359375q0.28125 -0.3125 0.28125 -0.75q0 -0.390625 -0.203125 -0.625q-0.1875 -0.234375 -0.75 -0.40625l0 2.140625zm2.3710938 -2.359375q0 -1.015625 0.203125 -1.625q0.21875 -0.625 0.625 -0.953125q0.421875 -0.34375 1.046875 -0.34375q0.453125 0 0.796875 0.1875q0.359375 0.1875 0.578125 0.53125q0.234375 0.34375 0.359375 0.859375q0.125 0.5 0.125 1.34375q0 1.015625 -0.203125 1.640625q-0.203125 0.609375 -0.625 0.953125q-0.40625 0.328125 -1.03125 0.328125q-0.828125 0 -1.296875 -0.59375q-0.578125 -0.71875 -0.578125 -2.328125zm0.734375 0q0 1.40625 0.328125 1.875q0.328125 0.46875 0.8125 0.46875q0.484375 0 0.8125 -0.46875q0.328125 -0.46875 0.328125 -1.875q0 -1.40625 -0.328125 -1.875q-0.328125 -0.46875 -0.828125 -0.46875q-0.484375 0 -0.765625 0.40625q-0.359375 0.53125 -0.359375 1.9375zm4.1210938 2.828125l0 -0.796875l0.796875 0l0 0.796875l-0.796875 0zm1.9257812 -1.328125l0.671875 -0.0625q0.09375 0.484375 0.328125 0.703125q0.25 0.203125 0.625 0.203125q0.328125 0 0.5625 -0.140625q0.25 -0.15625 0.40625 -0.40625q0.15625 -0.25 0.265625 -0.671875q0.109375 -0.421875 0.109375 -0.859375q0 -0.046875 -0.015625 -0.140625q-0.203125 0.34375 -0.578125 0.5625q-0.359375 0.203125 -0.78125 0.203125q-0.71875 0 -1.21875 -0.515625q-0.484375 -0.515625 -0.484375 -1.359375q0 -0.875 0.515625 -1.40625q0.515625 -0.53125 1.296875 -0.53125q0.546875 0 1.015625 0.296875q0.46875 0.296875 0.703125 0.859375q0.234375 0.5625 0.234375 1.609375q0 1.09375 -0.234375 1.75q-0.234375 0.65625 -0.703125 1.0q-0.46875 0.328125 -1.109375 0.328125q-0.671875 0 -1.09375 -0.375q-0.421875 -0.375 -0.515625 -1.046875zm2.875 -2.53125q0 -0.59375 -0.328125 -0.953125q-0.3125 -0.359375 -0.765625 -0.359375q-0.46875 0 -0.8125 0.390625q-0.34375 0.375 -0.34375 0.984375q0 0.546875 0.328125 0.890625q0.328125 0.34375 0.8125 0.34375q0.484375 0 0.796875 -0.34375q0.3125 -0.34375 0.3125 -0.953125zm1.4648438 2.359375l0.75 -0.0625q0.078125 0.53125 0.375 0.8125q0.296875 0.265625 0.71875 0.265625q0.515625 0 0.859375 -0.375q0.359375 -0.390625 0.359375 -1.015625q0 -0.609375 -0.34375 -0.953125q-0.34375 -0.34375 -0.890625 -0.34375q-0.328125 0 -0.609375 0.15625q-0.265625 0.140625 -0.421875 0.390625l-0.671875 -0.078125l0.5625 -2.953125l2.84375 0l0 0.671875l-2.28125 0l-0.3125 1.546875q0.515625 -0.359375 1.078125 -0.359375q0.75 0 1.265625 0.515625q0.515625 0.515625 0.515625 1.34375q0 0.765625 -0.453125 1.34375q-0.546875 0.6875 -1.5 0.6875q-0.78125 0 -1.28125 -0.4375q-0.484375 -0.4375 -0.5625 -1.15625z" fill-rule="nonzero"/><path fill="#000000" fill-opacity="0.0" d="m0 258.83203l42.362206 0l0 23.212585l-42.362206 0z" fill-rule="evenodd"/><path fill="#000000" d="m13.171337 273.94644l0 -0.703125q-0.53125 -0.0625 -0.859375 -0.234375q-0.328125 -0.171875 -0.578125 -0.546875q-0.234375 -0.390625 -0.28125 -0.9375l0.71875 -0.125q0.078125 0.5625 0.28125 0.828125q0.296875 0.375 0.71875 0.421875l0 -2.25q-0.4375 -0.078125 -0.890625 -0.328125q-0.34375 -0.1875 -0.53125 -0.515625q-0.171875 -0.34375 -0.171875 -0.765625q0 -0.75 0.53125 -1.203125q0.359375 -0.3125 1.0625 -0.390625l0 -0.328125l0.40625 0l0 0.328125q0.609375 0.0625 0.96875 0.359375q0.46875 0.390625 0.5625 1.046875l-0.734375 0.109375q-0.0625 -0.40625 -0.265625 -0.625q-0.1875 -0.21875 -0.53125 -0.296875l0 2.03125q0.53125 0.125 0.703125 0.203125q0.328125 0.140625 0.53125 0.359375q0.21875 0.203125 0.328125 0.484375q0.109375 0.28125 0.109375 0.625q0 0.71875 -0.46875 1.21875q-0.46875 0.484375 -1.203125 0.515625l0 0.71875l-0.40625 0zm0 -6.15625q-0.421875 0.0625 -0.65625 0.328125q-0.234375 0.265625 -0.234375 0.625q0 0.359375 0.203125 0.609375q0.203125 0.234375 0.6875 0.375l0 -1.9375zm0.40625 4.859375q0.40625 -0.0625 0.671875 -0.359375q0.28125 -0.3125 0.28125 -0.75q0 -0.390625 -0.203125 -0.625q-0.1875 -0.234375 -0.75 -0.40625l0 2.140625zm2.3710938 -2.359375q0 -1.015625 0.203125 -1.625q0.21875 -0.625 0.625 -0.953125q0.421875 -0.34375 1.046875 -0.34375q0.453125 0 0.796875 0.1875q0.359375 0.1875 0.578125 0.53125q0.234375 0.34375 0.359375 0.859375q0.125 0.5 0.125 1.34375q0 1.015625 -0.203125 1.640625q-0.203125 0.609375 -0.625 0.953125q-0.40625 0.328125 -1.03125 0.328125q-0.828125 0 -1.296875 -0.59375q-0.578125 -0.71875 -0.578125 -2.328125zm0.734375 0q0 1.40625 0.328125 1.875q0.328125 0.46875 0.8125 0.46875q0.484375 0 0.8125 -0.46875q0.328125 -0.46875 0.328125 -1.875q0 -1.40625 -0.328125 -1.875q-0.328125 -0.46875 -0.828125 -0.46875q-0.484375 0 -0.765625 0.40625q-0.359375 0.53125 -0.359375 1.9375zm4.1210938 2.828125l0 -0.796875l0.796875 0l0 0.796875l-0.796875 0zm1.9257812 -1.328125l0.671875 -0.0625q0.09375 0.484375 0.328125 0.703125q0.25 0.203125 0.625 0.203125q0.328125 0 0.5625 -0.140625q0.25 -0.15625 0.40625 -0.40625q0.15625 -0.25 0.265625 -0.671875q0.109375 -0.421875 0.109375 -0.859375q0 -0.046875 -0.015625 -0.140625q-0.203125 0.34375 -0.578125 0.5625q-0.359375 0.203125 -0.78125 0.203125q-0.71875 0 -1.21875 -0.515625q-0.484375 -0.515625 -0.484375 -1.359375q0 -0.875 0.515625 -1.40625q0.515625 -0.53125 1.296875 -0.53125q0.546875 0 1.015625 0.296875q0.46875 0.296875 0.703125 0.859375q0.234375 0.5625 0.234375 1.609375q0 1.09375 -0.234375 1.75q-0.234375 0.65625 -0.703125 1.0q-0.46875 0.328125 -1.109375 0.328125q-0.671875 0 -1.09375 -0.375q-0.421875 -0.375 -0.515625 -1.046875zm2.875 -2.53125q0 -0.59375 -0.328125 -0.953125q-0.3125 -0.359375 -0.765625 -0.359375q-0.46875 0 -0.8125 0.390625q-0.34375 0.375 -0.34375 0.984375q0 0.546875 0.328125 0.890625q0.328125 0.34375 0.8125 0.34375q0.484375 0 0.796875 -0.34375q0.3125 -0.34375 0.3125 -0.953125zm1.4648438 1.03125q0 -1.015625 0.203125 -1.625q0.21875 -0.625 0.625 -0.953125q0.421875 -0.34375 1.046875 -0.34375q0.453125 0 0.796875 0.1875q0.359375 0.1875 0.578125 0.53125q0.234375 0.34375 0.359375 0.859375q0.125 0.5 0.125 1.34375q0 1.015625 -0.203125 1.640625q-0.203125 0.609375 -0.625 0.953125q-0.40625 0.328125 -1.03125 0.328125q-0.828125 0 -1.296875 -0.59375q-0.578125 -0.71875 -0.578125 -2.328125zm0.734375 0q0 1.40625 0.328125 1.875q0.328125 0.46875 0.8125 0.46875q0.484375 0 0.8125 -0.46875q0.328125 -0.46875 0.328125 -1.875q0 -1.40625 -0.328125 -1.875q-0.328125 -0.46875 -0.828125 -0.46875q-0.484375 0 -0.765625 0.40625q-0.359375 0.53125 -0.359375 1.9375z" fill-rule="nonzero"/><path fill="#000000" fill-opacity="0.0" d="m0 99.23097l42.362206 0l0 23.2126l-42.362206 0z" fill-rule="evenodd"/><path fill="#000000" d="m13.171337 114.3454l0 -0.703125q-0.53125 -0.0625 -0.859375 -0.234375q-0.328125 -0.171875 -0.578125 -0.546875q-0.234375 -0.390625 -0.28125 -0.9375l0.71875 -0.125q0.078125 0.5625 0.28125 0.828125q0.296875 0.375 0.71875 0.421875l0 -2.25q-0.4375 -0.078125 -0.890625 -0.328125q-0.34375 -0.1875 -0.53125 -0.515625q-0.171875 -0.34375 -0.171875 -0.765625q0 -0.75 0.53125 -1.203125q0.359375 -0.3125 1.0625 -0.390625l0 -0.328125l0.40625 0l0 0.328125q0.609375 0.0625 0.96875 0.359375q0.46875 0.390625 0.5625 1.046875l-0.734375 0.109375q-0.0625 -0.40625 -0.265625 -0.625q-0.1875 -0.21875 -0.53125 -0.296875l0 2.03125q0.53125 0.125 0.703125 0.203125q0.328125 0.140625 0.53125 0.359375q0.21875 0.203125 0.328125 0.484375q0.109375 0.28125 0.109375 0.625q0 0.71875 -0.46875 1.21875q-0.46875 0.484375 -1.203125 0.515625l0 0.71875l-0.40625 0zm0 -6.15625q-0.421875 0.0625 -0.65625 0.328125q-0.234375 0.265625 -0.234375 0.625q0 0.359375 0.203125 0.609375q0.203125 0.234375 0.6875 0.375l0 -1.9375zm0.40625 4.859375q0.40625 -0.0625 0.671875 -0.359375q0.28125 -0.3125 0.28125 -0.75q0 -0.390625 -0.203125 -0.625q-0.1875 -0.234375 -0.75 -0.40625l0 2.140625zm5.0273438 0.46875l-0.703125 0l0 -4.484375q-0.25 0.25 -0.671875 0.5q-0.40625 0.234375 -0.734375 0.34375l0 -0.671875q0.59375 -0.28125 1.03125 -0.671875q0.4375 -0.390625 0.625 -0.765625l0.453125 0l0 5.75zm2.1992188 0l0 -0.796875l0.796875 0l0 0.796875l-0.796875 0zm4.4726562 0l-0.703125 0l0 -4.484375q-0.25 0.25 -0.671875 0.5q-0.40625 0.234375 -0.734375 0.34375l0 -0.671875q0.59375 -0.28125 1.03125 -0.671875q0.4375 -0.390625 0.625 -0.765625l0.453125 0l0 5.75zm1.7929688 -2.828125q0 -1.015625 0.203125 -1.625q0.21875 -0.625 0.625 -0.953125q0.421875 -0.34375 1.046875 -0.34375q0.453125 0 0.796875 0.1875q0.359375 0.1875 0.578125 0.53125q0.234375 0.34375 0.359375 0.859375q0.125 0.5 0.125 1.34375q0 1.015625 -0.203125 1.640625q-0.203125 0.609375 -0.625 0.953125q-0.40625 0.328125 -1.03125 0.328125q-0.828125 0 -1.296875 -0.59375q-0.578125 -0.71875 -0.578125 -2.328125zm0.734375 0q0 1.40625 0.328125 1.875q0.328125 0.46875 0.8125 0.46875q0.484375 0 0.8125 -0.46875q0.328125 -0.46875 0.328125 -1.875q0 -1.40625 -0.328125 -1.875q-0.328125 -0.46875 -0.828125 -0.46875q-0.484375 0 -0.765625 0.40625q-0.359375 0.53125 -0.359375 1.9375z" fill-rule="nonzero"/><path fill="#000000" fill-opacity="0.0" d="m80.12336 176.2441l-0.12598419 24.629913" fill-rule="evenodd"/><path stroke="#000000" stroke-width="1.0" stroke-linejoin="round" stroke-linecap="butt" stroke-dasharray="1.0,3.0" d="m80.12336 176.2441l-0.12598419 24.629913" fill-rule="evenodd"/><path fill="#000000" fill-opacity="0.0" d="m130.05511 171.08661l0 36.283463" fill-rule="evenodd"/><path stroke="#000000" stroke-width="1.0" stroke-linejoin="round" stroke-linecap="butt" stroke-dasharray="1.0,3.0" d="m130.05511 171.08661l0 36.283463" fill-rule="evenodd"/><path fill="#000000" fill-opacity="0.0" d="m159.5538 186.98688l0 36.377945" fill-rule="evenodd"/><path stroke="#000000" stroke-width="1.0" stroke-linejoin="round" stroke-linecap="butt" stroke-dasharray="1.0,3.0" d="m159.5538 186.98688l0 36.377945" fill-rule="evenodd"/><path fill="#000000" fill-opacity="0.0" d="m302.19028 160.37401l-0.1574707 53.858276" fill-rule="evenodd"/><path stroke="#000000" stroke-width="1.0" stroke-linejoin="round" stroke-linecap="butt" stroke-dasharray="1.0,3.0" d="m302.19028 160.37401l-0.1574707 53.858276" fill-rule="evenodd"/><path fill="#000000" fill-opacity="0.0" d="m407.2362 170.48688l0 36.377945" fill-rule="evenodd"/><path stroke="#000000" stroke-width="1.0" stroke-linejoin="round" stroke-linecap="butt" stroke-dasharray="1.0,3.0" d="m407.2362 170.48688l0 36.377945" fill-rule="evenodd"/><path fill="#000000" fill-opacity="0.0" d="m442.91733 183.38583l0 27.779526" fill-rule="evenodd"/><path stroke="#000000" stroke-width="1.0" stroke-linejoin="round" stroke-linecap="butt" stroke-dasharray="1.0,3.0" d="m442.91733 183.38583l0 27.779526" fill-rule="evenodd"/><path fill="#000000" fill-opacity="0.0" d="m63.06824 200.87401l33.858265 0l0 23.2126l-33.858265 0z" fill-rule="evenodd"/><path fill="#000000" d="m74.42511 215.16031l2.203125 -5.734375l0.8125 0l2.34375 5.734375l-0.859375 0l-0.671875 -1.734375l-2.390625 0l-0.625 1.734375l-0.8125 0zm1.65625 -2.359375l1.9375 0l-0.59375 -1.578125q-0.265625 -0.71875 -0.40625 -1.1875q-0.109375 0.546875 -0.3125 1.09375l-0.625 1.671875zm8.3984375 0.34375l0.765625 0.203125q-0.25 0.921875 -0.875 1.421875q-0.609375 0.484375 -1.5 0.484375q-0.921875 0 -1.515625 -0.375q-0.578125 -0.375 -0.875 -1.09375q-0.296875 -0.71875 -0.296875 -1.53125q0 -0.890625 0.328125 -1.5625q0.34375 -0.671875 0.96875 -1.015625q0.640625 -0.34375 1.40625 -0.34375q0.859375 0 1.4375 0.4375q0.59375 0.4375 0.8125 1.234375l-0.734375 0.171875q-0.203125 -0.625 -0.59375 -0.90625q-0.375 -0.28125 -0.9375 -0.28125q-0.671875 0 -1.109375 0.3125q-0.4375 0.3125 -0.625 0.84375q-0.171875 0.53125 -0.171875 1.109375q0 0.71875 0.203125 1.265625q0.21875 0.546875 0.65625 0.828125q0.453125 0.265625 0.984375 0.265625q0.640625 0 1.078125 -0.359375q0.4375 -0.375 0.59375 -1.109375z" fill-rule="nonzero"/><path fill="#000000" fill-opacity="0.0" d="m105.15223 163.77428l33.85827 0l0 23.2126l-33.85827 0z" fill-rule="evenodd"/><path fill="#000000" d="m114.136604 180.45428l2.203125 -5.734375l0.8125 0l2.34375 5.734375l-0.859375 0l-0.671875 -1.734375l-2.390625 0l-0.625 1.734375l-0.8125 0zm1.65625 -2.359375l1.9375 0l-0.59375 -1.578125q-0.265625 -0.71875 -0.40625 -1.1875q-0.109375 0.546875 -0.3125 1.09375l-0.625 1.671875zm8.3984375 0.34375l0.765625 0.203125q-0.25 0.921875 -0.875 1.421875q-0.609375 0.484375 -1.5 0.484375q-0.921875 0 -1.515625 -0.375q-0.578125 -0.375 -0.875 -1.09375q-0.296875 -0.71875 -0.296875 -1.53125q0 -0.890625 0.328125 -1.5625q0.34375 -0.671875 0.96875 -1.015625q0.640625 -0.34375 1.40625 -0.34375q0.859375 0 1.4375 0.4375q0.59375 0.4375 0.8125 1.234375l-0.734375 0.171875q-0.203125 -0.625 -0.59375 -0.90625q-0.375 -0.28125 -0.9375 -0.28125q-0.671875 0 -1.109375 0.3125q-0.4375 0.3125 -0.625 0.84375q-0.171875 0.53125 -0.171875 1.109375q0 0.71875 0.203125 1.265625q0.21875 0.546875 0.65625 0.828125q0.453125 0.265625 0.984375 0.265625q0.640625 0 1.078125 -0.359375q0.4375 -0.375 0.59375 -1.109375z" fill-rule="nonzero"/><path fill="#000000" fill-opacity="0.0" d="m113.125984 147.87401l33.85827 0l0 23.2126l-33.85827 0z" fill-rule="evenodd"/><path fill="#000000" d="m124.48286 162.16031l2.203125 -5.734375l0.8125 0l2.3437424 5.734375l-0.859375 0l-0.671875 -1.734375l-2.3906174 0l-0.625 1.734375l-0.8125 0zm1.65625 -2.359375l1.9374924 0l-0.5937424 -1.578125q-0.265625 -0.71875 -0.40625 -1.1875q-0.109375 0.546875 -0.3125 1.09375l-0.625 1.671875zm8.39843 0.34375l0.765625 0.203125q-0.25 0.921875 -0.875 1.421875q-0.609375 0.484375 -1.5 0.484375q-0.921875 0 -1.515625 -0.375q-0.578125 -0.375 -0.875 -1.09375q-0.296875 -0.71875 -0.296875 -1.53125q0 -0.890625 0.328125 -1.5625q0.34375 -0.671875 0.96875 -1.015625q0.640625 -0.34375 1.40625 -0.34375q0.859375 0 1.4375 0.4375q0.59375 0.4375 0.8125 1.234375l-0.734375 0.171875q-0.203125 -0.625 -0.59375 -0.90625q-0.375 -0.28125 -0.9375 -0.28125q-0.671875 0 -1.109375 0.3125q-0.4375 0.3125 -0.625 0.84375q-0.171875 0.53125 -0.171875 1.109375q0 0.71875 0.203125 1.265625q0.21875 0.546875 0.65625 0.828125q0.453125 0.265625 0.984375 0.265625q0.640625 0 1.078125 -0.359375q0.4375 -0.375 0.59375 -1.109375z" fill-rule="nonzero"/><path fill="#000000" fill-opacity="0.0" d="m142.62466 163.77428l33.858276 0l0 23.2126l-33.858276 0z" fill-rule="evenodd"/><path fill="#000000" d="m153.98154 178.06058l2.203125 -5.734375l0.8125 0l2.34375 5.734375l-0.859375 0l-0.671875 -1.734375l-2.390625 0l-0.625 1.734375l-0.8125 0zm1.65625 -2.359375l1.9375 0l-0.59375 -1.578125q-0.265625 -0.71875 -0.40625 -1.1875q-0.109375 0.546875 -0.3125 1.09375l-0.625 1.671875zm8.3984375 0.34375l0.765625 0.203125q-0.25 0.921875 -0.875 1.421875q-0.609375 0.484375 -1.5 0.484375q-0.921875 0 -1.515625 -0.375q-0.578125 -0.375 -0.875 -1.09375q-0.296875 -0.71875 -0.296875 -1.53125q0 -0.890625 0.328125 -1.5625q0.34375 -0.671875 0.96875 -1.015625q0.640625 -0.34375 1.40625 -0.34375q0.859375 0 1.4375 0.4375q0.59375 0.4375 0.8125 1.234375l-0.734375 0.171875q-0.203125 -0.625 -0.59375 -0.90625q-0.375 -0.28125 -0.9375 -0.28125q-0.671875 0 -1.109375 0.3125q-0.4375 0.3125 -0.625 0.84375q-0.171875 0.53125 -0.171875 1.109375q0 0.71875 0.203125 1.265625q0.21875 0.546875 0.65625 0.828125q0.453125 0.265625 0.984375 0.265625q0.640625 0 1.078125 -0.359375q0.4375 -0.375 0.59375 -1.109375z" fill-rule="nonzero"/><path fill="#000000" fill-opacity="0.0" d="m197.6916 202.2441l33.85826 0l0 23.2126l-33.85826 0z" fill-rule="evenodd"/><path fill="#000000" d="m206.67598 218.92409l2.203125 -5.734375l0.8125 0l2.34375 5.734375l-0.859375 0l-0.671875 -1.734375l-2.390625 0l-0.625 1.734375l-0.8125 0zm1.65625 -2.359375l1.9375 0l-0.59375 -1.578125q-0.265625 -0.71875 -0.40625 -1.1875q-0.109375 0.546875 -0.3125 1.09375l-0.625 1.671875zm8.3984375 0.34375l0.765625 0.203125q-0.25 0.921875 -0.875 1.421875q-0.609375 0.484375 -1.5 0.484375q-0.921875 0 -1.515625 -0.375q-0.578125 -0.375 -0.875 -1.09375q-0.296875 -0.71875 -0.296875 -1.53125q0 -0.890625 0.328125 -1.5625q0.34375 -0.671875 0.96875 -1.015625q0.640625 -0.34375 1.40625 -0.34375q0.859375 0 1.4375 0.4375q0.59375 0.4375 0.8125 1.234375l-0.734375 0.171875q-0.203125 -0.625 -0.59375 -0.90625q-0.375 -0.28125 -0.9375 -0.28125q-0.671875 0 -1.109375 0.3125q-0.4375 0.3125 -0.625 0.84375q-0.171875 0.53125 -0.171875 1.109375q0 0.71875 0.203125 1.265625q0.21875 0.546875 0.65625 0.828125q0.453125 0.265625 0.984375 0.265625q0.640625 0 1.078125 -0.359375q0.4375 -0.375 0.59375 -1.109375z" fill-rule="nonzero"/><path fill="#000000" fill-opacity="0.0" d="m285.18372 213.2336l33.858276 0l0 23.2126l-33.858276 0z" fill-rule="evenodd"/><path fill="#000000" d="m296.5406 227.5199l2.203125 -5.734375l0.8125 0l2.34375 5.734375l-0.859375 0l-0.671875 -1.734375l-2.390625 0l-0.625 1.734375l-0.8125 0zm1.65625 -2.359375l1.9375 0l-0.59375 -1.578125q-0.265625 -0.71875 -0.40625 -1.1875q-0.109375 0.546875 -0.3125 1.09375l-0.625 1.671875zm8.3984375 0.34375l0.765625 0.203125q-0.25 0.921875 -0.875 1.421875q-0.609375 0.484375 -1.5 0.484375q-0.921875 0 -1.515625 -0.375q-0.578125 -0.375 -0.875 -1.09375q-0.296875 -0.71875 -0.296875 -1.53125q0 -0.890625 0.328125 -1.5625q0.34375 -0.671875 0.96875 -1.015625q0.640625 -0.34375 1.40625 -0.34375q0.859375 0 1.4375 0.4375q0.59375 0.4375 0.8125 1.234375l-0.734375 0.171875q-0.203125 -0.625 -0.59375 -0.90625q-0.375 -0.28125 -0.9375 -0.28125q-0.671875 0 -1.109375 0.3125q-0.4375 0.3125 -0.625 0.84375q-0.171875 0.53125 -0.171875 1.109375q0 0.71875 0.203125 1.265625q0.21875 0.546875 0.65625 0.828125q0.453125 0.265625 0.984375 0.265625q0.640625 0 1.078125 -0.359375q0.4375 -0.375 0.59375 -1.109375z" fill-rule="nonzero"/><path fill="#000000" fill-opacity="0.0" d="m391.2034 145.00525l33.858276 0l0 23.2126l-33.858276 0z" fill-rule="evenodd"/><path fill="#000000" d="m402.56027 159.29155l2.203125 -5.734375l0.8125 0l2.34375 5.734375l-0.859375 0l-0.671875 -1.734375l-2.390625 0l-0.625 1.734375l-0.8125 0zm1.65625 -2.359375l1.9375 0l-0.59375 -1.578125q-0.265625 -0.71875 -0.40625 -1.1875q-0.109375 0.546875 -0.3125 1.09375l-0.625 1.671875zm8.3984375 0.34375l0.765625 0.203125q-0.25 0.921875 -0.875 1.421875q-0.609375 0.484375 -1.5 0.484375q-0.921875 0 -1.515625 -0.375q-0.578125 -0.375 -0.875 -1.09375q-0.296875 -0.71875 -0.296875 -1.53125q0 -0.890625 0.328125 -1.5625q0.34375 -0.671875 0.96875 -1.015625q0.640625 -0.34375 1.40625 -0.34375q0.859375 0 1.4375 0.4375q0.59375 0.4375 0.8125 1.234375l-0.734375 0.171875q-0.203125 -0.625 -0.59375 -0.90625q-0.375 -0.28125 -0.9375 -0.28125q-0.671875 0 -1.109375 0.3125q-0.4375 0.3125 -0.625 0.84375q-0.171875 0.53125 -0.171875 1.109375q0 0.71875 0.203125 1.265625q0.21875 0.546875 0.65625 0.828125q0.453125 0.265625 0.984375 0.265625q0.640625 0 1.078125 -0.359375q0.4375 -0.375 0.59375 -1.109375z" fill-rule="nonzero"/><path fill="#000000" fill-opacity="0.0" d="m425.9895 207.37007l33.858276 0l0 23.2126l-33.858276 0z" fill-rule="evenodd"/><path fill="#000000" d="m437.34637 221.65637l2.203125 -5.734375l0.8125 0l2.34375 5.734375l-0.859375 0l-0.671875 -1.734375l-2.390625 0l-0.625 1.734375l-0.8125 0zm1.65625 -2.359375l1.9375 0l-0.59375 -1.578125q-0.265625 -0.71875 -0.40625 -1.1875q-0.109375 0.546875 -0.3125 1.09375l-0.625 1.671875zm8.3984375 0.34375l0.765625 0.203125q-0.25 0.921875 -0.875 1.421875q-0.609375 0.484375 -1.5 0.484375q-0.921875 0 -1.515625 -0.375q-0.578125 -0.375 -0.875 -1.09375q-0.296875 -0.71875 -0.296875 -1.53125q0 -0.890625 0.328125 -1.5625q0.34375 -0.671875 0.96875 -1.015625q0.640625 -0.34375 1.40625 -0.34375q0.859375 0 1.4375 0.4375q0.59375 0.4375 0.8125 1.234375l-0.734375 0.171875q-0.203125 -0.625 -0.59375 -0.90625q-0.375 -0.28125 -0.9375 -0.28125q-0.671875 0 -1.109375 0.3125q-0.4375 0.3125 -0.625 0.84375q-0.171875 0.53125 -0.171875 1.109375q0 0.71875 0.203125 1.265625q0.21875 0.546875 0.65625 0.828125q0.453125 0.265625 0.984375 0.265625q0.640625 0 1.078125 -0.359375q0.4375 -0.375 0.59375 -1.109375z" fill-rule="nonzero"/><path fill="#000000" fill-opacity="0.0" d="m661.09973 158.3727l62.992126 0l0 34.015762l-62.992126 0z" fill-rule="evenodd"/><path fill="#000000" d="m678.44415 180.18057l0 -9.546875l3.28125 0q1.109375 0 1.703125 0.140625q0.8125 0.1875 1.390625 0.6875q0.765625 0.640625 1.140625 1.640625q0.375 0.984375 0.375 2.25q0 1.09375 -0.265625 1.9375q-0.25 0.828125 -0.65625 1.390625q-0.390625 0.546875 -0.859375 0.859375q-0.46875 0.3125 -1.140625 0.484375q-0.65625 0.15625 -1.53125 0.15625l-3.4375 0zm1.265625 -1.125l2.03125 0q0.9375 0 1.46875 -0.171875q0.546875 -0.1875 0.875 -0.5q0.4375 -0.453125 0.6875 -1.203125q0.25 -0.765625 0.25 -1.84375q0 -1.5 -0.5 -2.296875q-0.484375 -0.8125 -1.1875 -1.078125q-0.5 -0.203125 -1.625 -0.203125l-2.0 0l0 7.296875zm12.718933 0.265625q-0.65625 0.5625 -1.265625 0.796875q-0.59375 0.21875 -1.28125 0.21875q-1.140625 0 -1.75 -0.546875q-0.609375 -0.5625 -0.609375 -1.4375q0 -0.5 0.21875 -0.921875q0.234375 -0.421875 0.609375 -0.671875q0.375 -0.25 0.84375 -0.390625q0.34375 -0.078125 1.046875 -0.171875q1.421875 -0.171875 2.09375 -0.40625q0 -0.234375 0 -0.296875q0 -0.71875 -0.328125 -1.015625q-0.453125 -0.390625 -1.34375 -0.390625q-0.8125 0 -1.21875 0.296875q-0.390625 0.28125 -0.578125 1.015625l-1.140625 -0.15625q0.15625 -0.734375 0.515625 -1.1875q0.359375 -0.453125 1.03125 -0.6875q0.671875 -0.25 1.5625 -0.25q0.890625 0 1.4375 0.203125q0.5625 0.203125 0.8125 0.53125q0.265625 0.3125 0.375 0.796875q0.046875 0.296875 0.046875 1.078125l0 1.5625q0 1.625 0.078125 2.0625q0.078125 0.4375 0.296875 0.828125l-1.21875 0q-0.1875 -0.359375 -0.234375 -0.859375zm-0.09375 -2.609375q-0.640625 0.265625 -1.921875 0.4375q-0.71875 0.109375 -1.015625 0.25q-0.296875 0.125 -0.46875 0.375q-0.15625 0.25 -0.15625 0.546875q0 0.46875 0.34375 0.78125q0.359375 0.3125 1.046875 0.3125q0.671875 0 1.203125 -0.296875q0.53125 -0.296875 0.78125 -0.8125q0.1875 -0.390625 0.1875 -1.171875l0 -0.421875zm2.9437256 6.125l-0.125 -1.09375q0.375 0.109375 0.65625 0.109375q0.390625 0 0.625 -0.140625q0.234375 -0.125 0.390625 -0.359375q0.109375 -0.171875 0.359375 -0.875q0.03125 -0.09375 0.109375 -0.28125l-2.625 -6.921875l1.265625 0l1.4375 4.0q0.28125 0.765625 0.5 1.59375q0.203125 -0.796875 0.46875 -1.578125l1.484375 -4.015625l1.171875 0l-2.625 7.015625q-0.421875 1.140625 -0.65625 1.578125q-0.3125 0.578125 -0.71875 0.84375q-0.40625 0.28125 -0.96875 0.28125q-0.328125 0 -0.75 -0.15625zm6.2421875 -4.71875l1.15625 -0.1875q0.109375 0.703125 0.546875 1.078125q0.453125 0.359375 1.25 0.359375q0.8125 0 1.203125 -0.328125q0.390625 -0.328125 0.390625 -0.765625q0 -0.390625 -0.359375 -0.625q-0.234375 -0.15625 -1.1875 -0.390625q-1.296875 -0.328125 -1.796875 -0.5625q-0.484375 -0.25 -0.75 -0.65625q-0.25 -0.421875 -0.25 -0.9375q0 -0.453125 0.203125 -0.84375q0.21875 -0.40625 0.578125 -0.671875q0.28125 -0.1875 0.75 -0.328125q0.46875 -0.140625 1.015625 -0.140625q0.8125 0 1.421875 0.234375q0.609375 0.234375 0.90625 0.640625q0.296875 0.390625 0.40625 1.0625l-1.140625 0.15625q-0.078125 -0.53125 -0.453125 -0.828125q-0.375 -0.3125 -1.0625 -0.3125q-0.8125 0 -1.15625 0.265625q-0.34375 0.265625 -0.34375 0.625q0 0.234375 0.140625 0.421875q0.15625 0.1875 0.453125 0.3125q0.171875 0.0625 1.03125 0.296875q1.25 0.328125 1.734375 0.546875q0.5 0.203125 0.78125 0.609375q0.28125 0.40625 0.28125 1.0q0 0.59375 -0.34375 1.109375q-0.34375 0.515625 -1.0 0.796875q-0.640625 0.28125 -1.453125 0.28125q-1.34375 0 -2.046875 -0.5625q-0.703125 -0.5625 -0.90625 -1.65625z" fill-rule="nonzero"/><path fill="#000000" fill-opacity="0.0" d="m639.78217 192.28346l0 -30.992126" fill-rule="evenodd"/><path stroke="#000000" stroke-width="1.0" stroke-linejoin="round" stroke-linecap="butt" stroke-dasharray="4.0,3.0" d="m639.78217 192.28346l0 -30.992126" fill-rule="evenodd"/><path fill="#000000" fill-opacity="0.0" d="m622.853 141.24147l33.858276 0l0 18.992126l-33.858276 0z" fill-rule="evenodd"/><path fill="#000000" d="m634.8505 153.41753l0 -5.734375l2.15625 0q0.5625 0 0.875 0.0625q0.421875 0.0625 0.703125 0.265625q0.28125 0.203125 0.453125 0.5625q0.171875 0.34375 0.171875 0.765625q0 0.734375 -0.46875 1.25q-0.453125 0.5 -1.671875 0.5l-1.46875 0l0 2.328125l-0.75 0zm0.75 -3.0l1.484375 0q0.734375 0 1.03125 -0.265625q0.3125 -0.28125 0.3125 -0.78125q0 -0.359375 -0.1875 -0.609375q-0.171875 -0.265625 -0.46875 -0.34375q-0.1875 -0.046875 -0.703125 -0.046875l-1.46875 0l0 2.046875zm8.6640625 0.984375l0.765625 0.203125q-0.25 0.921875 -0.875 1.421875q-0.609375 0.484375 -1.5 0.484375q-0.921875 0 -1.515625 -0.375q-0.578125 -0.375 -0.875 -1.09375q-0.296875 -0.71875 -0.296875 -1.53125q0 -0.890625 0.328125 -1.5625q0.34375 -0.671875 0.96875 -1.015625q0.640625 -0.34375 1.40625 -0.34375q0.859375 0 1.4375 0.4375q0.59375 0.4375 0.8125 1.234375l-0.734375 0.171875q-0.203125 -0.625 -0.59375 -0.90625q-0.375 -0.28125 -0.9375 -0.28125q-0.671875 0 -1.109375 0.3125q-0.4375 0.3125 -0.625 0.84375q-0.171875 0.53125 -0.171875 1.109375q0 0.71875 0.203125 1.265625q0.21875 0.546875 0.65625 0.828125q0.453125 0.265625 0.984375 0.265625q0.640625 0 1.078125 -0.359375q0.4375 -0.375 0.59375 -1.109375z" fill-rule="nonzero"/><path fill="#000000" fill-opacity="0.0" d="m574.1916 11.839895l160.0 0l0 30.488188l-160.0 0z" fill-rule="evenodd"/><path fill="#000000" d="m583.17596 33.639893l3.65625 -9.546873l1.359375 0l3.90625 9.546873l-1.4375 0l-1.109375 -2.890623l-3.984375 0l-1.046875 2.890623l-1.34375 0zm2.75 -3.921873l3.234375 0l-1.0 -2.640625q-0.453125 -1.203125 -0.671875 -1.96875q-0.1875 0.90625 -0.515625 1.8125l-1.046875 2.796875zm13.9835205 0.578125l1.265625 0.3125q-0.390625 1.5624981 -1.421875 2.374998q-1.03125 0.8125 -2.53125 0.8125q-1.53125 0 -2.5 -0.625q-0.96875 -0.625 -1.484375 -1.8124981q-0.5 -1.1875 -0.5 -2.5625q0 -1.484375 0.5625 -2.59375q0.578125 -1.109375 1.625 -1.6875q1.0625 -0.578125 2.328125 -0.578125q1.421875 0 2.390625 0.734375q0.984375 0.71875 1.375 2.046875l-1.25 0.296875q-0.328125 -1.046875 -0.96875 -1.515625q-0.625 -0.484375 -1.578125 -0.484375q-1.09375 0 -1.84375 0.53125q-0.734375 0.53125 -1.03125 1.421875q-0.296875 0.875 -0.296875 1.828125q0 1.21875 0.34375 2.125q0.359375 0.90625 1.109375 1.3593731q0.75 0.4375 1.625 0.4375q1.0625 0 1.796875 -0.609375q0.734375 -0.6093731 0.984375 -1.8124981zm6.703125 -2.234375l0 -1.328125l1.328125 0l0 1.328125l-1.328125 0zm0 5.578123l0 -1.328125l1.328125 0l0 1.328125l-1.328125 0zm5.451538 0l3.65625 -9.546873l1.359375 0l3.90625 9.546873l-1.4375 0l-1.109375 -2.890623l-3.984375 0l-1.046875 2.890623l-1.34375 0zm2.75 -3.921873l3.234375 0l-1.0 -2.640625q-0.453125 -1.203125 -0.671875 -1.96875q-0.1875 0.90625 -0.515625 1.8125l-1.046875 2.796875zm11.5460205 1.390625l1.15625 0.15625q-0.1875 1.1874981 -0.96875 1.8593731q-0.78125 0.671875 -1.921875 0.671875q-1.40625 0 -2.28125 -0.921875q-0.859375 -0.9374981 -0.859375 -2.656248q0 -1.125 0.375 -1.96875q0.375 -0.84375 1.125 -1.25q0.765625 -0.421875 1.65625 -0.421875q1.125 0 1.84375 0.578125q0.71875 0.5625 0.921875 1.609375l-1.140625 0.171875q-0.171875 -0.703125 -0.59375 -1.046875q-0.40625 -0.359375 -0.984375 -0.359375q-0.890625 0 -1.453125 0.640625q-0.546875 0.640625 -0.546875 2.0q0 1.40625 0.53125 2.031248q0.546875 0.625 1.40625 0.625q0.6875 0 1.140625 -0.421875q0.46875 -0.4218731 0.59375 -1.2968731zm4.7109375 1.4843731l0.171875 1.03125q-0.5 0.109375 -0.890625 0.109375q-0.640625 0 -1.0 -0.203125q-0.34375 -0.203125 -0.484375 -0.53125q-0.140625 -0.328125 -0.140625 -1.3906231l0 -3.96875l-0.859375 0l0 -0.90625l0.859375 0l0 -1.71875l1.171875 -0.703125l0 2.421875l1.171875 0l0 0.90625l-1.171875 0l0 4.046875q0 0.4999981 0.046875 0.6406231q0.0625 0.140625 0.203125 0.234375q0.140625 0.078125 0.40625 0.078125q0.203125 0 0.515625 -0.046875zm1.1561279 -7.140623l0 -1.359375l1.171875 0l0 1.359375l-1.171875 0zm0 8.187498l0 -6.906248l1.171875 0l0 6.906248l-1.171875 0zm4.8673096 0l-2.625 -6.906248l1.234375 0l1.484375 4.140625q0.234375 0.65625 0.4375 1.3906231q0.15625 -0.5468731 0.4375 -1.3124981l1.53125 -4.21875l1.21875 0l-2.625 6.906248l-1.09375 0zm9.4765625 -2.218748l1.203125 0.140625q-0.28125 1.0624981 -1.0625 1.6562481q-0.765625 0.578125 -1.96875 0.578125q-1.515625 0 -2.40625 -0.9375q-0.890625 -0.9374981 -0.890625 -2.609373q0 -1.75 0.890625 -2.703125q0.90625 -0.96875 2.34375 -0.96875q1.390625 0 2.265625 0.9375q0.875 0.9375 0.875 2.65625q0 0.109375 0 0.3125l-5.15625 0q0.0625 1.140625 0.640625 1.7499981q0.578125 0.59375 1.4375 0.59375q0.65625 0 1.109375 -0.328125q0.453125 -0.34375 0.71875 -1.0781231zm-3.84375 -1.90625l3.859375 0q-0.078125 -0.859375 -0.4375 -1.296875q-0.5625 -0.6875 -1.453125 -0.6875q-0.8125 0 -1.359375 0.546875q-0.546875 0.53125 -0.609375 1.4375zm17.177979 0.78125l1.265625 0.3125q-0.390625 1.5624981 -1.421875 2.374998q-1.03125 0.8125 -2.53125 0.8125q-1.53125 0 -2.5 -0.625q-0.96875 -0.625 -1.484375 -1.8124981q-0.5 -1.1875 -0.5 -2.5625q0 -1.484375 0.5625 -2.59375q0.578125 -1.109375 1.625 -1.6875q1.0625 -0.578125 2.328125 -0.578125q1.421875 0 2.390625 0.734375q0.984375 0.71875 1.375 2.046875l-1.25 0.296875q-0.328125 -1.046875 -0.96875 -1.515625q-0.625 -0.484375 -1.578125 -0.484375q-1.09375 0 -1.84375 0.53125q-0.734375 0.53125 -1.03125 1.421875q-0.296875 0.875 -0.296875 1.828125q0 1.21875 0.34375 2.125q0.359375 0.90625 1.109375 1.3593731q0.75 0.4375 1.625 0.4375q1.0625 0 1.796875 -0.609375q0.734375 -0.6093731 0.984375 -1.8124981zm2.234558 -0.109375q0 -1.921875 1.078125 -2.84375q0.890625 -0.765625 2.171875 -0.765625q1.421875 0 2.328125 0.9375q0.90625 0.921875 0.90625 2.578125q0 1.328125 -0.40625 2.093748q-0.390625 0.765625 -1.15625 1.1875q-0.765625 0.421875 -1.671875 0.421875q-1.453125 0 -2.359375 -0.921875q-0.890625 -0.9374981 -0.890625 -2.687498zm1.203125 0q0 1.328125 0.578125 1.9843731q0.59375 0.65625 1.46875 0.65625q0.875 0 1.453125 -0.65625q0.578125 -0.6718731 0.578125 -2.031248q0 -1.28125 -0.59375 -1.9375q-0.578125 -0.65625 -1.4375 -0.65625q-0.875 0 -1.46875 0.65625q-0.578125 0.65625 -0.578125 1.984375zm6.6468506 3.453123l0 -6.906248l1.0625 0l0 0.984375q0.75 -1.140625 2.1875 -1.140625q0.625 0 1.15625 0.21875q0.53125 0.21875 0.78125 0.59375q0.265625 0.359375 0.375 0.859375q0.0625 0.328125 0.0625 1.140625l0 4.249998l-1.171875 0l0 -4.203123q0 -0.71875 -0.140625 -1.0625q-0.140625 -0.359375 -0.484375 -0.5625q-0.34375 -0.21875 -0.8125 -0.21875q-0.75 0 -1.296875 0.46875q-0.546875 0.46875 -0.546875 1.796875l0 3.781248l-1.171875 0zm11.896851 0l0 -0.875q-0.65625 1.03125 -1.9375 1.03125q-0.8125 0 -1.515625 -0.453125q-0.6875 -0.453125 -1.078125 -1.265625q-0.375 -0.8281231 -0.375 -1.8906231q0 -1.03125 0.34375 -1.875q0.34375 -0.84375 1.03125 -1.28125q0.703125 -0.453125 1.546875 -0.453125q0.625 0 1.109375 0.265625q0.5 0.25 0.796875 0.671875l0 -3.421875l1.171875 0l0 9.546873l-1.09375 0zm-3.703125 -3.453123q0 1.328125 0.5625 1.9843731q0.5625 0.65625 1.328125 0.65625q0.765625 0 1.296875 -0.625q0.53125 -0.6249981 0.53125 -1.9062481q0 -1.421875 -0.546875 -2.078125q-0.546875 -0.671875 -1.34375 -0.671875q-0.78125 0 -1.3125 0.640625q-0.515625 0.625 -0.515625 2.0zm6.6468506 -4.734375l0 -1.359375l1.171875 0l0 1.359375l-1.171875 0zm0 8.187498l0 -6.906248l1.171875 0l0 6.906248l-1.171875 0zm5.5079346 -1.046875l0.171875 1.03125q-0.5 0.109375 -0.890625 0.109375q-0.640625 0 -1.0 -0.203125q-0.34375 -0.203125 -0.484375 -0.53125q-0.140625 -0.328125 -0.140625 -1.3906231l0 -3.96875l-0.859375 0l0 -0.90625l0.859375 0l0 -1.71875l1.171875 -0.703125l0 2.421875l1.171875 0l0 0.90625l-1.171875 0l0 4.046875q0 0.4999981 0.046875 0.6406231q0.0625 0.140625 0.203125 0.234375q0.140625 0.078125 0.40625 0.078125q0.203125 0 0.515625 -0.046875zm1.1561279 -7.140623l0 -1.359375l1.171875 0l0 1.359375l-1.171875 0zm0 8.187498l0 -6.906248l1.171875 0l0 6.906248l-1.171875 0zm2.5079346 -3.453123q0 -1.921875 1.078125 -2.84375q0.890625 -0.765625 2.171875 -0.765625q1.421875 0 2.328125 0.9375q0.90625 0.921875 0.90625 2.578125q0 1.328125 -0.40625 2.093748q-0.390625 0.765625 -1.15625 1.1875q-0.765625 0.421875 -1.671875 0.421875q-1.453125 0 -2.359375 -0.921875q-0.890625 -0.9374981 -0.890625 -2.687498zm1.203125 0q0 1.328125 0.578125 1.9843731q0.59375 0.65625 1.46875 0.65625q0.875 0 1.453125 -0.65625q0.578125 -0.6718731 0.578125 -2.031248q0 -1.28125 -0.59375 -1.9375q-0.578125 -0.65625 -1.4375 -0.65625q-0.875 0 -1.46875 0.65625q-0.578125 0.65625 -0.578125 1.984375zm6.6468506 3.453123l0 -6.906248l1.0625 0l0 0.984375q0.75 -1.140625 2.1875 -1.140625q0.625 0 1.15625 0.21875q0.53125 0.21875 0.78125 0.59375q0.265625 0.359375 0.375 0.859375q0.0625 0.328125 0.0625 1.140625l0 4.249998l-1.171875 0l0 -4.203123q0 -0.71875 -0.140625 -1.0625q-0.140625 -0.359375 -0.484375 -0.5625q-0.34375 -0.21875 -0.8125 -0.21875q-0.75 0 -1.296875 0.46875q-0.546875 0.46875 -0.546875 1.796875l0 3.781248l-1.171875 0z" fill-rule="nonzero"/><path fill="#000000" fill-opacity="0.0" d="m574.1916 37.328083l160.0 0l0 30.488194l-160.0 0z" fill-rule="evenodd"/><path fill="#000000" d="m584.22284 59.128082l0 -9.546875l3.59375 0q0.953125 0 1.453125 0.09375q0.703125 0.125 1.171875 0.453125q0.484375 0.328125 0.765625 0.921875q0.296875 0.59375 0.296875 1.296875q0 1.21875 -0.78125 2.0625q-0.765625 0.84375 -2.796875 0.84375l-2.4375 0l0 3.875l-1.265625 0zm1.265625 -5.0l2.453125 0q1.234375 0 1.75 -0.453125q0.515625 -0.46875 0.515625 -1.28125q0 -0.609375 -0.3125 -1.03125q-0.296875 -0.421875 -0.796875 -0.5625q-0.3125 -0.09375 -1.171875 -0.09375l-2.4375 0l0 3.421875zm14.4210205 1.65625l1.265625 0.3125q-0.390625 1.5625 -1.421875 2.375q-1.03125 0.8125 -2.53125 0.8125q-1.53125 0 -2.5 -0.625q-0.96875 -0.625 -1.484375 -1.8125q-0.5 -1.1875 -0.5 -2.5625q0 -1.484375 0.5625 -2.59375q0.578125 -1.109375 1.625 -1.6875q1.0625 -0.578125 2.328125 -0.578125q1.421875 0 2.390625 0.734375q0.984375 0.71875 1.375 2.046875l-1.25 0.296875q-0.328125 -1.046875 -0.96875 -1.515625q-0.625 -0.484375 -1.578125 -0.484375q-1.09375 0 -1.84375 0.53125q-0.734375 0.53125 -1.03125 1.421875q-0.296875 0.875 -0.296875 1.828125q0 1.21875 0.34375 2.125q0.359375 0.90625 1.109375 1.359375q0.75 0.4375 1.625 0.4375q1.0625 0 1.796875 -0.609375q0.734375 -0.609375 0.984375 -1.8125zm6.703125 -2.234375l0 -1.328125l1.328125 0l0 1.328125l-1.328125 0zm0 5.578125l0 -1.328125l1.328125 0l0 1.328125l-1.328125 0zm7.234131 0l0 -9.546875l3.59375 0q0.953125 0 1.453125 0.09375q0.703125 0.125 1.171875 0.453125q0.484375 0.328125 0.765625 0.921875q0.296875 0.59375 0.296875 1.296875q0 1.21875 -0.78125 2.0625q-0.765625 0.84375 -2.796875 0.84375l-2.4375 0l0 3.875l-1.265625 0zm1.265625 -5.0l2.453125 0q1.234375 0 1.75 -0.453125q0.515625 -0.46875 0.515625 -1.28125q0 -0.609375 -0.3125 -1.03125q-0.296875 -0.421875 -0.796875 -0.5625q-0.3125 -0.09375 -1.171875 -0.09375l-2.4375 0l0 3.421875zm11.983459 4.140625q-0.65625 0.5625 -1.265625 0.796875q-0.59375 0.21875 -1.28125 0.21875q-1.140625 0 -1.75 -0.546875q-0.609375 -0.5625 -0.609375 -1.4375q0 -0.5 0.21875 -0.921875q0.234375 -0.421875 0.609375 -0.671875q0.375 -0.25 0.84375 -0.390625q0.34375 -0.078125 1.046875 -0.171875q1.421875 -0.171875 2.09375 -0.40625q0 -0.234375 0 -0.296875q0 -0.71875 -0.328125 -1.015625q-0.453125 -0.390625 -1.34375 -0.390625q-0.8125 0 -1.21875 0.296875q-0.390625 0.28125 -0.578125 1.015625l-1.140625 -0.15625q0.15625 -0.734375 0.515625 -1.1875q0.359375 -0.453125 1.03125 -0.6875q0.671875 -0.25 1.5625 -0.25q0.890625 0 1.4375 0.203125q0.5625 0.203125 0.8125 0.53125q0.265625 0.3125 0.375 0.796875q0.046875 0.296875 0.046875 1.078125l0 1.5625q0 1.625 0.078125 2.0625q0.078125 0.4375 0.296875 0.828125l-1.21875 0q-0.1875 -0.359375 -0.234375 -0.859375zm-0.09375 -2.609375q-0.640625 0.265625 -1.921875 0.4375q-0.71875 0.109375 -1.015625 0.25q-0.296875 0.125 -0.46875 0.375q-0.15625 0.25 -0.15625 0.546875q0 0.46875 0.34375 0.78125q0.359375 0.3125 1.046875 0.3125q0.671875 0 1.203125 -0.296875q0.53125 -0.296875 0.78125 -0.8125q0.1875 -0.390625 0.1875 -1.171875l0 -0.421875zm2.5218506 1.40625l1.15625 -0.1875q0.109375 0.703125 0.546875 1.078125q0.453125 0.359375 1.25 0.359375q0.8125 0 1.203125 -0.328125q0.390625 -0.328125 0.390625 -0.765625q0 -0.390625 -0.359375 -0.625q-0.234375 -0.15625 -1.1875 -0.390625q-1.296875 -0.328125 -1.796875 -0.5625q-0.484375 -0.25 -0.75 -0.65625q-0.25 -0.421875 -0.25 -0.9375q0 -0.453125 0.203125 -0.84375q0.21875 -0.40625 0.578125 -0.671875q0.28125 -0.1875 0.75 -0.328125q0.46875 -0.140625 1.015625 -0.140625q0.8125 0 1.421875 0.234375q0.609375 0.234375 0.90625 0.640625q0.296875 0.390625 0.40625 1.0625l-1.140625 0.15625q-0.078125 -0.53125 -0.453125 -0.828125q-0.375 -0.3125 -1.0625 -0.3125q-0.8125 0 -1.15625 0.265625q-0.34375 0.265625 -0.34375 0.625q0 0.234375 0.140625 0.421875q0.15625 0.1875 0.453125 0.3125q0.171875 0.0625 1.03125 0.296875q1.25 0.328125 1.734375 0.546875q0.5 0.203125 0.78125 0.609375q0.28125 0.40625 0.28125 1.0q0 0.59375 -0.34375 1.109375q-0.34375 0.515625 -1.0 0.796875q-0.640625 0.28125 -1.453125 0.28125q-1.34375 0 -2.046875 -0.5625q-0.703125 -0.5625 -0.90625 -1.65625zm6.6640625 0l1.15625 -0.1875q0.109375 0.703125 0.546875 1.078125q0.453125 0.359375 1.25 0.359375q0.8125 0 1.203125 -0.328125q0.390625 -0.328125 0.390625 -0.765625q0 -0.390625 -0.359375 -0.625q-0.234375 -0.15625 -1.1875 -0.390625q-1.296875 -0.328125 -1.796875 -0.5625q-0.484375 -0.25 -0.75 -0.65625q-0.25 -0.421875 -0.25 -0.9375q0 -0.453125 0.203125 -0.84375q0.21875 -0.40625 0.578125 -0.671875q0.28125 -0.1875 0.75 -0.328125q0.46875 -0.140625 1.015625 -0.140625q0.8125 0 1.421875 0.234375q0.609375 0.234375 0.90625 0.640625q0.296875 0.390625 0.40625 1.0625l-1.140625 0.15625q-0.078125 -0.53125 -0.453125 -0.828125q-0.375 -0.3125 -1.0625 -0.3125q-0.8125 0 -1.15625 0.265625q-0.34375 0.265625 -0.34375 0.625q0 0.234375 0.140625 0.421875q0.15625 0.1875 0.453125 0.3125q0.171875 0.0625 1.03125 0.296875q1.25 0.328125 1.734375 0.546875q0.5 0.203125 0.78125 0.609375q0.28125 0.40625 0.28125 1.0q0 0.59375 -0.34375 1.109375q-0.34375 0.515625 -1.0 0.796875q-0.640625 0.28125 -1.453125 0.28125q-1.34375 0 -2.046875 -0.5625q-0.703125 -0.5625 -0.90625 -1.65625zm7.1484375 -6.125l0 -1.359375l1.171875 0l0 1.359375l-1.171875 0zm0 8.1875l0 -6.90625l1.171875 0l0 6.90625l-1.171875 0zm4.8673706 0l-2.625 -6.90625l1.234375 0l1.484375 4.140625q0.234375 0.65625 0.4375 1.390625q0.15625 -0.546875 0.4375 -1.3125l1.53125 -4.21875l1.21875 0l-2.625 6.90625l-1.09375 0zm9.4765625 -2.21875l1.203125 0.140625q-0.28125 1.0625 -1.0625 1.65625q-0.765625 0.578125 -1.96875 0.578125q-1.515625 0 -2.40625 -0.9375q-0.890625 -0.9375 -0.890625 -2.609375q0 -1.75 0.890625 -2.703125q0.90625 -0.96875 2.34375 -0.96875q1.390625 0 2.265625 0.9375q0.875 0.9375 0.875 2.65625q0 0.109375 0 0.3125l-5.15625 0q0.0625 1.140625 0.640625 1.75q0.578125 0.59375 1.4375 0.59375q0.65625 0 1.109375 -0.328125q0.453125 -0.34375 0.71875 -1.078125zm-3.84375 -1.90625l3.859375 0q-0.078125 -0.859375 -0.4375 -1.296875q-0.5625 -0.6875 -1.453125 -0.6875q-0.8125 0 -1.359375 0.546875q-0.546875 0.53125 -0.609375 1.4375zm17.177979 0.78125l1.265625 0.3125q-0.390625 1.5625 -1.421875 2.375q-1.03125 0.8125 -2.53125 0.8125q-1.53125 0 -2.5 -0.625q-0.96875 -0.625 -1.484375 -1.8125q-0.5 -1.1875 -0.5 -2.5625q0 -1.484375 0.5625 -2.59375q0.578125 -1.109375 1.625 -1.6875q1.0625 -0.578125 2.328125 -0.578125q1.421875 0 2.390625 0.734375q0.984375 0.71875 1.375 2.046875l-1.25 0.296875q-0.328125 -1.046875 -0.96875 -1.515625q-0.625 -0.484375 -1.578125 -0.484375q-1.09375 0 -1.84375 0.53125q-0.734375 0.53125 -1.03125 1.421875q-0.296875 0.875 -0.296875 1.828125q0 1.21875 0.34375 2.125q0.359375 0.90625 1.109375 1.359375q0.75 0.4375 1.625 0.4375q1.0625 0 1.796875 -0.609375q0.734375 -0.609375 0.984375 -1.8125zm2.234497 -0.109375q0 -1.921875 1.078125 -2.84375q0.890625 -0.765625 2.171875 -0.765625q1.421875 0 2.328125 0.9375q0.90625 0.921875 0.90625 2.578125q0 1.328125 -0.40625 2.09375q-0.390625 0.765625 -1.15625 1.1875q-0.765625 0.421875 -1.671875 0.421875q-1.453125 0 -2.359375 -0.921875q-0.890625 -0.9375 -0.890625 -2.6875zm1.203125 0q0 1.328125 0.578125 1.984375q0.59375 0.65625 1.46875 0.65625q0.875 0 1.453125 -0.65625q0.578125 -0.671875 0.578125 -2.03125q0 -1.28125 -0.59375 -1.9375q-0.578125 -0.65625 -1.4375 -0.65625q-0.875 0 -1.46875 0.65625q-0.578125 0.65625 -0.578125 1.984375zm6.6468506 3.453125l0 -6.90625l1.0625 0l0 0.984375q0.75 -1.140625 2.1875 -1.140625q0.625 0 1.15625 0.21875q0.53125 0.21875 0.78125 0.59375q0.265625 0.359375 0.375 0.859375q0.0625 0.328125 0.0625 1.140625l0 4.25l-1.171875 0l0 -4.203125q0 -0.71875 -0.140625 -1.0625q-0.140625 -0.359375 -0.484375 -0.5625q-0.34375 -0.21875 -0.8125 -0.21875q-0.75 0 -1.296875 0.46875q-0.546875 0.46875 -0.546875 1.796875l0 3.78125l-1.171875 0zm11.896851 0l0 -0.875q-0.65625 1.03125 -1.9375 1.03125q-0.8125 0 -1.515625 -0.453125q-0.6875 -0.453125 -1.078125 -1.265625q-0.375 -0.828125 -0.375 -1.890625q0 -1.03125 0.34375 -1.875q0.34375 -0.84375 1.03125 -1.28125q0.703125 -0.453125 1.546875 -0.453125q0.625 0 1.109375 0.265625q0.5 0.25 0.796875 0.671875l0 -3.421875l1.171875 0l0 9.546875l-1.09375 0zm-3.703125 -3.453125q0 1.328125 0.5625 1.984375q0.5625 0.65625 1.328125 0.65625q0.765625 0 1.296875 -0.625q0.53125 -0.625 0.53125 -1.90625q0 -1.421875 -0.546875 -2.078125q-0.546875 -0.671875 -1.34375 -0.671875q-0.78125 0 -1.3125 0.640625q-0.515625 0.625 -0.515625 2.0zm6.6468506 -4.734375l0 -1.359375l1.171875 0l0 1.359375l-1.171875 0zm0 8.1875l0 -6.90625l1.171875 0l0 6.90625l-1.171875 0zm5.5079956 -1.046875l0.171875 1.03125q-0.5 0.109375 -0.890625 0.109375q-0.640625 0 -1.0 -0.203125q-0.34375 -0.203125 -0.484375 -0.53125q-0.140625 -0.328125 -0.140625 -1.390625l0 -3.96875l-0.859375 0l0 -0.90625l0.859375 0l0 -1.71875l1.171875 -0.703125l0 2.421875l1.171875 0l0 0.90625l-1.171875 0l0 4.046875q0 0.5 0.046875 0.640625q0.0625 0.140625 0.203125 0.234375q0.140625 0.078125 0.40625 0.078125q0.203125 0 0.515625 -0.046875zm1.1560669 -7.140625l0 -1.359375l1.171875 0l0 1.359375l-1.171875 0zm0 8.1875l0 -6.90625l1.171875 0l0 6.90625l-1.171875 0zm2.5079956 -3.453125q0 -1.921875 1.078125 -2.84375q0.890625 -0.765625 2.171875 -0.765625q1.421875 0 2.328125 0.9375q0.90625 0.921875 0.90625 2.578125q0 1.328125 -0.40625 2.09375q-0.390625 0.765625 -1.15625 1.1875q-0.765625 0.421875 -1.671875 0.421875q-1.453125 0 -2.359375 -0.921875q-0.890625 -0.9375 -0.890625 -2.6875zm1.203125 0q0 1.328125 0.578125 1.984375q0.59375 0.65625 1.46875 0.65625q0.875 0 1.453125 -0.65625q0.578125 -0.671875 0.578125 -2.03125q0 -1.28125 -0.59375 -1.9375q-0.578125 -0.65625 -1.4375 -0.65625q-0.875 0 -1.46875 0.65625q-0.578125 0.65625 -0.578125 1.984375zm6.6468506 3.453125l0 -6.90625l1.0625 0l0 0.984375q0.75 -1.140625 2.1875 -1.140625q0.625 0 1.15625 0.21875q0.53125 0.21875 0.78125 0.59375q0.265625 0.359375 0.375 0.859375q0.0625 0.328125 0.0625 1.140625l0 4.25l-1.171875 0l0 -4.203125q0 -0.71875 -0.140625 -1.0625q-0.140625 -0.359375 -0.484375 -0.5625q-0.34375 -0.21875 -0.8125 -0.21875q-0.75 0 -1.296875 0.46875q-0.546875 0.46875 -0.546875 1.796875l0 3.78125l-1.171875 0z" fill-rule="nonzero"/><path fill="#000000" fill-opacity="0.0" d="m442.27823 238.1916l196.94485 -0.50393677" fill-rule="evenodd"/><path stroke="#000000" stroke-width="1.0" stroke-linejoin="round" stroke-linecap="butt" d="m445.7053 238.18283l190.09073 -0.48638916" fill-rule="evenodd"/><path fill="#000000" stroke="#000000" stroke-width="1.0" stroke-linecap="butt" d="m445.7053 238.18283l1.1217041 -1.1274567l-3.0868835 1.1324921l3.0926208 1.1166687z" fill-rule="evenodd"/><path fill="#000000" stroke="#000000" stroke-width="1.0" stroke-linecap="butt" d="m635.796 237.69643l-1.1217041 1.1274567l3.086853 -1.1324768l-3.0925903 -1.1166687z" fill-rule="evenodd"/><path fill="#000000" fill-opacity="0.0" d="m509.56693 242.14436l66.48819 0l0 27.779526l-66.48819 0z" fill-rule="evenodd"/><path fill="#000000" d="m523.80176 252.53725l0 -1.125l6.1875 0l0 0.921875q-0.921875 0.96875 -1.8125 2.578125q-0.890625 1.5937347 -1.375 3.2968597q-0.359375 1.203125 -0.453125 2.625l-1.203125 0q0.015625 -1.125 0.4375 -2.71875q0.421875 -1.59375 1.203125 -3.0781097q0.796875 -1.484375 1.6875 -2.5l-4.671875 0zm15.8498535 8.29686l0 -0.875q-0.65625 1.03125 -1.9375 1.03125q-0.8125 0 -1.515625 -0.453125q-0.6875 -0.453125 -1.078125 -1.265625q-0.375 -0.828125 -0.375 -1.890625q0 -1.03125 0.34375 -1.8749847q0.34375 -0.84375 1.03125 -1.28125q0.703125 -0.453125 1.546875 -0.453125q0.625 0 1.109375 0.265625q0.5 0.25 0.796875 0.671875l0 -3.421875l1.171875 0l0 9.54686l-1.09375 0zm-3.703125 -3.453125q0 1.328125 0.5625 1.984375q0.5625 0.65625 1.328125 0.65625q0.765625 0 1.296875 -0.625q0.53125 -0.625 0.53125 -1.90625q0 -1.421875 -0.546875 -2.0781097q-0.546875 -0.671875 -1.34375 -0.671875q-0.78125 0 -1.3125 0.640625q-0.515625 0.62498474 -0.515625 1.9999847zm11.146851 2.59375q-0.65625 0.5625 -1.265625 0.796875q-0.59375 0.21875 -1.28125 0.21875q-1.140625 0 -1.75 -0.546875q-0.609375 -0.5625 -0.609375 -1.4375q0 -0.5 0.21875 -0.921875q0.234375 -0.421875 0.609375 -0.671875q0.375 -0.25 0.84375 -0.390625q0.34375 -0.078125 1.046875 -0.171875q1.421875 -0.171875 2.09375 -0.40625q0 -0.234375 0 -0.296875q0 -0.71873474 -0.328125 -1.0156097q-0.453125 -0.390625 -1.34375 -0.390625q-0.8125 0 -1.21875 0.296875q-0.390625 0.28125 -0.578125 1.0156097l-1.140625 -0.15623474q0.15625 -0.734375 0.515625 -1.1875q0.359375 -0.453125 1.03125 -0.6875q0.671875 -0.25 1.5625 -0.25q0.890625 0 1.4375 0.203125q0.5625 0.203125 0.8125 0.53125q0.265625 0.3125 0.375 0.796875q0.046875 0.296875 0.046875 1.0781097l0 1.5625q0 1.625 0.078125 2.0625q0.078125 0.4375 0.296875 0.828125l-1.21875 0q-0.1875 -0.359375 -0.234375 -0.859375zm-0.09375 -2.609375q-0.640625 0.265625 -1.921875 0.4375q-0.71875 0.109375 -1.015625 0.25q-0.296875 0.125 -0.46875 0.375q-0.15625 0.25 -0.15625 0.546875q0 0.46875 0.34375 0.78125q0.359375 0.3125 1.046875 0.3125q0.671875 0 1.203125 -0.296875q0.53125 -0.296875 0.78125 -0.8125q0.1875 -0.390625 0.1875 -1.171875l0 -0.421875zm2.9437256 6.125l-0.125 -1.09375q0.375 0.109375 0.65625 0.109375q0.390625 0 0.625 -0.140625q0.234375 -0.125 0.390625 -0.359375q0.109375 -0.171875 0.359375 -0.875q0.03125 -0.09375 0.109375 -0.28125l-2.625 -6.9218597l1.265625 0l1.4375 3.9999847q0.28125 0.765625 0.5 1.59375q0.203125 -0.796875 0.46875 -1.578125l1.484375 -4.0156097l1.171875 0l-2.625 7.0156097q-0.421875 1.140625 -0.65625 1.578125q-0.3125 0.578125 -0.71875 0.84375q-0.40625 0.28125 -0.96875 0.28125q-0.328125 0 -0.75 -0.15625zm6.2421875 -4.71875l1.15625 -0.1875q0.109375 0.703125 0.546875 1.078125q0.453125 0.359375 1.25 0.359375q0.8125 0 1.203125 -0.328125q0.390625 -0.328125 0.390625 -0.765625q0 -0.390625 -0.359375 -0.625q-0.234375 -0.15625 -1.1875 -0.390625q-1.296875 -0.328125 -1.796875 -0.5625q-0.484375 -0.25 -0.75 -0.65625q-0.25 -0.421875 -0.25 -0.93748474q0 -0.453125 0.203125 -0.84375q0.21875 -0.40625 0.578125 -0.671875q0.28125 -0.1875 0.75 -0.328125q0.46875 -0.140625 1.015625 -0.140625q0.8125 0 1.421875 0.234375q0.609375 0.234375 0.90625 0.640625q0.296875 0.390625 0.40625 1.0625l-1.140625 0.15625q-0.078125 -0.53125 -0.453125 -0.828125q-0.375 -0.3125 -1.0625 -0.3125q-0.8125 0 -1.15625 0.265625q-0.34375 0.265625 -0.34375 0.625q0 0.234375 0.140625 0.42185974q0.15625 0.1875 0.453125 0.3125q0.171875 0.0625 1.03125 0.296875q1.25 0.328125 1.734375 0.546875q0.5 0.203125 0.78125 0.609375q0.28125 0.40625 0.28125 1.0q0 0.59375 -0.34375 1.109375q-0.34375 0.515625 -1.0 0.796875q-0.640625 0.28125 -1.453125 0.28125q-1.34375 0 -2.046875 -0.5625q-0.703125 -0.5625 -0.90625 -1.65625z" fill-rule="nonzero"/><path fill="#000000" fill-opacity="0.0" d="m188.55643 302.40158l373.82675 0l0 24.629913l-373.82675 0z" fill-rule="evenodd"/><path fill="#000000" d="m256.26324 319.79654l2.203125 -10.484375l4.390625 0q1.3125 0 1.984375 0.21875q0.671875 0.203125 1.046875 0.8125q0.390625 0.59375 0.390625 1.515625q0 1.28125 -0.84375 2.125q-0.828125 0.84375 -2.703125 1.09375q0.578125 0.421875 0.859375 0.828125q0.671875 0.921875 1.0625 1.921875l0.8125 1.96875l-1.578125 0l-0.75 -1.953125q-0.40625 -1.0625 -0.921875 -1.828125q-0.359375 -0.546875 -0.734375 -0.703125q-0.375 -0.171875 -1.21875 -0.171875l-1.625 0l-0.96875 4.65625l-1.40625 0zm2.609375 -5.796875l1.9375 0q1.34375 0 1.75 -0.03125q0.796875 -0.078125 1.296875 -0.359375q0.515625 -0.28125 0.796875 -0.75q0.28125 -0.46875 0.28125 -1.015625q0 -0.46875 -0.203125 -0.796875q-0.203125 -0.34375 -0.546875 -0.46875q-0.34375 -0.125 -1.140625 -0.125l-3.421875 0l-0.75 3.546875zm13.349884 3.21875l1.265625 0.125q-0.265625 0.9375 -1.25 1.78125q-0.96875 0.84375 -2.328125 0.84375q-0.84375 0 -1.546875 -0.390625q-0.703125 -0.390625 -1.078125 -1.125q-0.359375 -0.75 -0.359375 -1.703125q0 -1.25 0.5625 -2.421875q0.578125 -1.171875 1.5 -1.734375q0.921875 -0.5625 1.984375 -0.5625q1.359375 0 2.171875 0.84375q0.8125 0.84375 0.8125 2.296875q0 0.5625 -0.109375 1.140625l-5.59375 0q-0.03125 0.234375 -0.03125 0.40625q0 1.0625 0.484375 1.625q0.5 0.5625 1.203125 0.5625q0.671875 0 1.3125 -0.4375q0.640625 -0.4375 1.0 -1.25zm-3.765625 -1.890625l4.265625 0q0.015625 -0.203125 0.015625 -0.28125q0 -0.96875 -0.484375 -1.484375q-0.484375 -0.53125 -1.25 -0.53125q-0.84375 0 -1.53125 0.578125q-0.671875 0.5625 -1.015625 1.71875zm5.697998 7.375l2.203125 -10.5l1.1875 0l-0.21875 1.046875q0.671875 -0.6875 1.1875 -0.953125q0.53125 -0.265625 1.125 -0.265625q1.078125 0 1.796875 0.796875q0.71875 0.78125 0.71875 2.25q0 1.1875 -0.390625 2.171875q-0.390625 0.96875 -0.96875 1.5625q-0.578125 0.59375 -1.171875 0.875q-0.578125 0.28125 -1.1875 0.28125q-1.375 0 -2.125 -1.390625l-0.859375 4.125l-1.296875 0zm2.5625 -6.015625q0 0.859375 0.125 1.1875q0.1875 0.46875 0.59375 0.75q0.40625 0.28125 0.9375 0.28125q1.125 0 1.8125 -1.25q0.6875 -1.265625 0.6875 -2.5625q0 -0.96875 -0.46875 -1.5q-0.46875 -0.53125 -1.15625 -0.53125q-0.484375 0 -0.90625 0.265625q-0.421875 0.265625 -0.78125 0.78125q-0.359375 0.515625 -0.609375 1.265625q-0.234375 0.75 -0.234375 1.3125zm6.2292175 3.109375l1.59375 -7.59375l1.140625 0l-0.328125 1.546875q0.59375 -0.875 1.15625 -1.296875q0.5625 -0.421875 1.15625 -0.421875q0.375 0 0.9375 0.265625l-0.515625 1.203125q-0.34375 -0.234375 -0.75 -0.234375q-0.671875 0 -1.390625 0.765625q-0.71875 0.75 -1.125 2.71875l-0.640625 3.046875l-1.234375 0zm10.458771 -2.578125l1.265625 0.125q-0.265625 0.9375 -1.25 1.78125q-0.96875 0.84375 -2.328125 0.84375q-0.84375 0 -1.546875 -0.390625q-0.703125 -0.390625 -1.078125 -1.125q-0.359375 -0.75 -0.359375 -1.703125q0 -1.25 0.5625 -2.421875q0.578125 -1.171875 1.5 -1.734375q0.921875 -0.5625 1.984375 -0.5625q1.359375 0 2.171875 0.84375q0.8125 0.84375 0.8125 2.296875q0 0.5625 -0.109375 1.140625l-5.59375 0q-0.03125 0.234375 -0.03125 0.40625q0 1.0625 0.484375 1.625q0.5 0.5625 1.203125 0.5625q0.671875 0 1.3125 -0.4375q0.640625 -0.4375 1.0 -1.25zm-3.765625 -1.890625l4.265625 0q0.015625 -0.203125 0.015625 -0.28125q0 -0.96875 -0.484375 -1.484375q-0.484375 -0.53125 -1.25 -0.53125q-0.84375 0 -1.53125 0.578125q-0.671875 0.5625 -1.015625 1.71875zm6.463623 1.875l1.296875 -0.078125q0 0.546875 0.171875 0.953125q0.171875 0.390625 0.625 0.640625q0.46875 0.25 1.078125 0.25q0.859375 0 1.28125 -0.34375q0.4375 -0.34375 0.4375 -0.8125q0 -0.328125 -0.25 -0.640625q-0.265625 -0.296875 -1.296875 -0.734375q-1.03125 -0.4375 -1.3125 -0.625q-0.484375 -0.28125 -0.734375 -0.671875q-0.234375 -0.40625 -0.234375 -0.921875q0 -0.90625 0.71875 -1.546875q0.71875 -0.640625 2.0 -0.640625q1.4375 0 2.1875 0.65625q0.75 0.65625 0.765625 1.734375l-1.265625 0.09375q-0.03125 -0.6875 -0.484375 -1.078125q-0.453125 -0.40625 -1.296875 -0.40625q-0.671875 0 -1.046875 0.3125q-0.359375 0.296875 -0.359375 0.65625q0 0.359375 0.3125 0.625q0.21875 0.1875 1.109375 0.578125q1.484375 0.640625 1.875 1.015625q0.625 0.59375 0.625 1.453125q0 0.5625 -0.359375 1.109375q-0.34375 0.53125 -1.0625 0.859375q-0.703125 0.328125 -1.671875 0.328125q-1.3125 0 -2.234375 -0.65625q-0.921875 -0.640625 -0.875 -2.109375zm12.78125 0.015625l1.265625 0.125q-0.265625 0.9375 -1.25 1.78125q-0.96875 0.84375 -2.328125 0.84375q-0.84375 0 -1.546875 -0.390625q-0.703125 -0.390625 -1.078125 -1.125q-0.359375 -0.75 -0.359375 -1.703125q0 -1.25 0.5625 -2.421875q0.578125 -1.171875 1.5 -1.734375q0.921875 -0.5625 1.984375 -0.5625q1.359375 0 2.171875 0.84375q0.8125 0.84375 0.8125 2.296875q0 0.5625 -0.109375 1.140625l-5.59375 0q-0.03125 0.234375 -0.03125 0.40625q0 1.0625 0.484375 1.625q0.5 0.5625 1.203125 0.5625q0.671875 0 1.3125 -0.4375q0.640625 -0.4375 1.0 -1.25zm-3.765625 -1.890625l4.265625 0q0.015625 -0.203125 0.015625 -0.28125q0 -0.96875 -0.484375 -1.484375q-0.484375 -0.53125 -1.25 -0.53125q-0.84375 0 -1.53125 0.578125q-0.671875 0.5625 -1.015625 1.71875zm6.3385925 4.46875l1.59375 -7.59375l1.171875 0l-0.28125 1.3125q0.765625 -0.78125 1.421875 -1.125q0.671875 -0.359375 1.375 -0.359375q0.921875 0 1.4375 0.5q0.53125 0.5 0.53125 1.328125q0 0.421875 -0.1875 1.34375l-0.96875 4.59375l-1.296875 0l1.015625 -4.8125q0.15625 -0.703125 0.15625 -1.046875q0 -0.375 -0.265625 -0.609375q-0.265625 -0.234375 -0.75 -0.234375q-1.0 0 -1.78125 0.71875q-0.765625 0.703125 -1.140625 2.453125l-0.734375 3.53125l-1.296875 0zm11.182373 -1.046875l-0.21875 1.046875q-0.46875 0.125 -0.90625 0.125q-0.765625 0 -1.21875 -0.375q-0.34375 -0.28125 -0.34375 -0.78125q0 -0.25 0.1875 -1.15625l0.921875 -4.40625l-1.03125 0l0.203125 -1.0l1.03125 0l0.390625 -1.875l1.484375 -0.890625l-0.578125 2.765625l1.265625 0l-0.203125 1.0l-1.265625 0l-0.890625 4.203125q-0.15625 0.796875 -0.15625 0.953125q0 0.234375 0.125 0.359375q0.140625 0.109375 0.4375 0.109375q0.421875 0 0.765625 -0.078125zm6.1657104 0.109375q-0.671875 0.578125 -1.296875 0.84375q-0.625 0.265625 -1.328125 0.265625q-1.046875 0 -1.703125 -0.609375q-0.640625 -0.625 -0.640625 -1.59375q0 -0.640625 0.28125 -1.125q0.296875 -0.5 0.78125 -0.796875q0.484375 -0.296875 1.171875 -0.421875q0.4375 -0.078125 1.65625 -0.125q1.21875 -0.0625 1.75 -0.265625q0.15625 -0.53125 0.15625 -0.875q0 -0.453125 -0.328125 -0.71875q-0.453125 -0.359375 -1.328125 -0.359375q-0.8125 0 -1.328125 0.375q-0.515625 0.359375 -0.75 1.015625l-1.3125 -0.109375q0.40625 -1.125 1.265625 -1.71875q0.875 -0.609375 2.203125 -0.609375q1.40625 0 2.21875 0.671875q0.640625 0.5 0.640625 1.296875q0 0.609375 -0.1875 1.40625l-0.421875 1.890625q-0.203125 0.90625 -0.203125 1.46875q0 0.359375 0.171875 1.03125l-1.3125 0q-0.109375 -0.375 -0.15625 -0.9375zm0.484375 -2.90625q-0.28125 0.09375 -0.59375 0.15625q-0.296875 0.0625 -1.03125 0.125q-1.140625 0.09375 -1.609375 0.25q-0.453125 0.15625 -0.6875 0.5q-0.234375 0.328125 -0.234375 0.734375q0 0.546875 0.375 0.90625q0.375 0.34375 1.0625 0.34375q0.640625 0 1.234375 -0.34375q0.59375 -0.34375 0.9375 -0.953125q0.34375 -0.609375 0.546875 -1.71875zm5.572998 2.796875l-0.21875 1.046875q-0.46875 0.125 -0.90625 0.125q-0.765625 0 -1.21875 -0.375q-0.34375 -0.28125 -0.34375 -0.78125q0 -0.25 0.1875 -1.15625l0.921875 -4.40625l-1.03125 0l0.203125 -1.0l1.03125 0l0.390625 -1.875l1.484375 -0.890625l-0.578125 2.765625l1.265625 0l-0.203125 1.0l-1.265625 0l-0.890625 4.203125q-0.15625 0.796875 -0.15625 0.953125q0 0.234375 0.125 0.359375q0.140625 0.109375 0.4375 0.109375q0.421875 0 0.765625 -0.078125zm2.8844604 -7.984375l0.3125 -1.453125l1.28125 0l-0.3125 1.453125l-1.28125 0zm-1.890625 9.03125l1.59375 -7.59375l1.296875 0l-1.59375 7.59375l-1.296875 0zm3.5374146 -2.890625q0 -2.21875 1.3125 -3.671875q1.078125 -1.203125 2.828125 -1.203125q1.375 0 2.21875 0.859375q0.84375 0.859375 0.84375 2.3125q0 1.3125 -0.53125 2.4375q-0.53125 1.125 -1.515625 1.734375q-0.96875 0.59375 -2.046875 0.59375q-0.890625 0 -1.625 -0.375q-0.71875 -0.390625 -1.109375 -1.078125q-0.375 -0.6875 -0.375 -1.609375zm1.296875 -0.125q0 1.078125 0.515625 1.640625q0.515625 0.546875 1.296875 0.546875q0.421875 0 0.828125 -0.171875q0.40625 -0.171875 0.75 -0.515625q0.359375 -0.34375 0.609375 -0.78125q0.25 -0.4375 0.390625 -0.9375q0.234375 -0.71875 0.234375 -1.359375q0 -1.03125 -0.53125 -1.59375q-0.515625 -0.578125 -1.296875 -0.578125q-0.609375 0 -1.109375 0.296875q-0.5 0.28125 -0.90625 0.84375q-0.40625 0.546875 -0.59375 1.296875q-0.1875 0.734375 -0.1875 1.3125zm6.6198425 3.015625l1.59375 -7.59375l1.171875 0l-0.28125 1.3125q0.765625 -0.78125 1.421875 -1.125q0.671875 -0.359375 1.375 -0.359375q0.921875 0 1.4375 0.5q0.53125 0.5 0.53125 1.328125q0 0.421875 -0.1875 1.34375l-0.96875 4.59375l-1.296875 0l1.015625 -4.8125q0.15625 -0.703125 0.15625 -1.046875q0 -0.375 -0.265625 -0.609375q-0.265625 -0.234375 -0.75 -0.234375q-1.0 0 -1.78125 0.71875q-0.765625 0.703125 -1.140625 2.453125l-0.734375 3.53125l-1.296875 0zm12.4574585 -2.890625q0 -2.21875 1.3125 -3.671875q1.078125 -1.203125 2.828125 -1.203125q1.375 0 2.21875 0.859375q0.84375 0.859375 0.84375 2.3125q0 1.3125 -0.53125 2.4375q-0.53125 1.125 -1.515625 1.734375q-0.96875 0.59375 -2.046875 0.59375q-0.890625 0 -1.625 -0.375q-0.71875 -0.390625 -1.109375 -1.078125q-0.375 -0.6875 -0.375 -1.609375zm1.296875 -0.125q0 1.078125 0.515625 1.640625q0.515625 0.546875 1.296875 0.546875q0.421875 0 0.828125 -0.171875q0.40625 -0.171875 0.75 -0.515625q0.359375 -0.34375 0.609375 -0.78125q0.25 -0.4375 0.390625 -0.9375q0.234375 -0.71875 0.234375 -1.359375q0 -1.03125 -0.53125 -1.59375q-0.515625 -0.578125 -1.296875 -0.578125q-0.609375 0 -1.109375 0.296875q-0.5 0.28125 -0.90625 0.84375q-0.40625 0.546875 -0.59375 1.296875q-0.1875 0.734375 -0.1875 1.3125zm6.807373 3.015625l1.375 -6.59375l-1.15625 0l0.203125 -1.0l1.15625 0l0.21875 -1.09375q0.171875 -0.796875 0.359375 -1.15625q0.1875 -0.359375 0.59375 -0.59375q0.40625 -0.234375 1.125 -0.234375q0.484375 0 1.421875 0.203125l-0.234375 1.140625q-0.65625 -0.171875 -1.09375 -0.171875q-0.375 0 -0.578125 0.1875q-0.203125 0.1875 -0.34375 0.890625l-0.171875 0.828125l1.453125 0l-0.21875 1.0l-1.4375 0l-1.390625 6.59375l-1.28125 0zm6.6309204 0l5.953125 -10.484375l1.65625 0l1.71875 10.484375l-1.359375 0l-0.5 -3.015625l-4.25 0l-1.671875 3.015625l-1.546875 0zm3.828125 -4.09375l3.46875 0l-0.40625 -2.640625q-0.234375 -1.5625 -0.296875 -2.609375q-0.359375 0.90625 -1.046875 2.140625l-1.71875 3.109375zm6.7287292 4.09375l2.1875 -10.484375l1.296875 0l-0.78125 3.75q0.625 -0.578125 1.125 -0.796875q0.5 -0.234375 1.046875 -0.234375q1.0625 0 1.765625 0.796875q0.71875 0.78125 0.71875 2.296875q0 1.015625 -0.296875 1.859375q-0.28125 0.828125 -0.703125 1.40625q-0.421875 0.5625 -0.875 0.90625q-0.4375 0.328125 -0.921875 0.5q-0.46875 0.171875 -0.90625 0.171875q-0.75 0 -1.328125 -0.390625q-0.5625 -0.40625 -0.890625 -1.21875l-0.296875 1.4375l-1.140625 0zm1.921875 -3.125l-0.015625 0.25q0 0.96875 0.46875 1.484375q0.46875 0.5 1.15625 0.5q0.6875 0 1.25 -0.46875q0.578125 -0.484375 0.9375 -1.484375q0.359375 -1.015625 0.359375 -1.859375q0 -0.96875 -0.46875 -1.5q-0.453125 -0.53125 -1.125 -0.53125q-0.703125 0 -1.296875 0.546875q-0.578125 0.546875 -0.96875 1.671875q-0.296875 0.828125 -0.296875 1.390625zm6.354248 0.53125l1.296875 -0.078125q0 0.546875 0.171875 0.953125q0.171875 0.390625 0.625 0.640625q0.46875 0.25 1.078125 0.25q0.859375 0 1.28125 -0.34375q0.4375 -0.34375 0.4375 -0.8125q0 -0.328125 -0.25 -0.640625q-0.265625 -0.296875 -1.296875 -0.734375q-1.03125 -0.4375 -1.3125 -0.625q-0.484375 -0.28125 -0.734375 -0.671875q-0.234375 -0.40625 -0.234375 -0.921875q0 -0.90625 0.71875 -1.546875q0.71875 -0.640625 2.0 -0.640625q1.4375 0 2.1875 0.65625q0.75 0.65625 0.765625 1.734375l-1.265625 0.09375q-0.03125 -0.6875 -0.484375 -1.078125q-0.453125 -0.40625 -1.296875 -0.40625q-0.671875 0 -1.046875 0.3125q-0.359375 0.296875 -0.359375 0.65625q0 0.359375 0.3125 0.625q0.21875 0.1875 1.109375 0.578125q1.484375 0.640625 1.875 1.015625q0.625 0.59375 0.625 1.453125q0 0.5625 -0.359375 1.109375q-0.34375 0.53125 -1.0625 0.859375q-0.703125 0.328125 -1.671875 0.328125q-1.3125 0 -2.234375 -0.65625q-0.921875 -0.640625 -0.875 -2.109375zm7.4375 -0.296875q0 -2.21875 1.3125 -3.671875q1.078125 -1.203125 2.828125 -1.203125q1.375 0 2.21875 0.859375q0.84375 0.859375 0.84375 2.3125q0 1.3125 -0.53125 2.4375q-0.53125 1.125 -1.515625 1.734375q-0.96875 0.59375 -2.046875 0.59375q-0.890625 0 -1.625 -0.375q-0.71875 -0.390625 -1.109375 -1.078125q-0.375 -0.6875 -0.375 -1.609375zm1.296875 -0.125q0 1.078125 0.515625 1.640625q0.515625 0.546875 1.296875 0.546875q0.421875 0 0.828125 -0.171875q0.40625 -0.171875 0.75 -0.515625q0.359375 -0.34375 0.609375 -0.78125q0.25 -0.4375 0.390625 -0.9375q0.234375 -0.71875 0.234375 -1.359375q0 -1.03125 -0.53125 -1.59375q-0.515625 -0.578125 -1.296875 -0.578125q-0.609375 0 -1.109375 0.296875q-0.5 0.28125 -0.90625 0.84375q-0.40625 0.546875 -0.59375 1.296875q-0.1875 0.734375 -0.1875 1.3125zm6.6198425 3.015625l1.59375 -7.59375l1.140625 0l-0.328125 1.546875q0.59375 -0.875 1.15625 -1.296875q0.5625 -0.421875 1.15625 -0.421875q0.375 0 0.9375 0.265625l-0.515625 1.203125q-0.34375 -0.234375 -0.75 -0.234375q-0.671875 0 -1.390625 0.765625q-0.71875 0.75 -1.125 2.71875l-0.640625 3.046875l-1.234375 0zm4.2400208 2.90625l2.203125 -10.5l1.1875 0l-0.21875 1.046875q0.671875 -0.6875 1.1875 -0.953125q0.53125 -0.265625 1.125 -0.265625q1.078125 0 1.796875 0.796875q0.71875 0.78125 0.71875 2.25q0 1.1875 -0.390625 2.171875q-0.390625 0.96875 -0.96875 1.5625q-0.578125 0.59375 -1.171875 0.875q-0.578125 0.28125 -1.1875 0.28125q-1.375 0 -2.125 -1.390625l-0.859375 4.125l-1.296875 0zm2.5625 -6.015625q0 0.859375 0.125 1.1875q0.1875 0.46875 0.59375 0.75q0.40625 0.28125 0.9375 0.28125q1.125 0 1.8125 -1.25q0.6875 -1.265625 0.6875 -2.5625q0 -0.96875 -0.46875 -1.5q-0.46875 -0.53125 -1.15625 -0.53125q-0.484375 0 -0.90625 0.265625q-0.421875 0.265625 -0.78125 0.78125q-0.359375 0.515625 -0.609375 1.265625q-0.234375 0.75 -0.234375 1.3125zm9.260498 2.0625l-0.21875 1.046875q-0.46875 0.125 -0.90625 0.125q-0.765625 0 -1.21875 -0.375q-0.34375 -0.28125 -0.34375 -0.78125q0 -0.25 0.1875 -1.15625l0.921875 -4.40625l-1.03125 0l0.203125 -1.0l1.03125 0l0.390625 -1.875l1.484375 -0.890625l-0.578125 2.765625l1.265625 0l-0.203125 1.0l-1.265625 0l-0.890625 4.203125q-0.15625 0.796875 -0.15625 0.953125q0 0.234375 0.125 0.359375q0.140625 0.109375 0.4375 0.109375q0.421875 0 0.765625 -0.078125zm2.8844604 -7.984375l0.3125 -1.453125l1.28125 0l-0.3125 1.453125l-1.28125 0zm-1.890625 9.03125l1.59375 -7.59375l1.296875 0l-1.59375 7.59375l-1.296875 0zm3.5374146 -2.890625q0 -2.21875 1.3125 -3.671875q1.078125 -1.203125 2.828125 -1.203125q1.375 0 2.21875 0.859375q0.84375 0.859375 0.84375 2.3125q0 1.3125 -0.53125 2.4375q-0.53125 1.125 -1.515625 1.734375q-0.96875 0.59375 -2.046875 0.59375q-0.890625 0 -1.625 -0.375q-0.71875 -0.390625 -1.109375 -1.078125q-0.375 -0.6875 -0.375 -1.609375zm1.296875 -0.125q0 1.078125 0.515625 1.640625q0.515625 0.546875 1.296875 0.546875q0.421875 0 0.828125 -0.171875q0.40625 -0.171875 0.75 -0.515625q0.359375 -0.34375 0.609375 -0.78125q0.25 -0.4375 0.390625 -0.9375q0.234375 -0.71875 0.234375 -1.359375q0 -1.03125 -0.53125 -1.59375q-0.515625 -0.578125 -1.296875 -0.578125q-0.609375 0 -1.109375 0.296875q-0.5 0.28125 -0.90625 0.84375q-0.40625 0.546875 -0.59375 1.296875q-0.1875 0.734375 -0.1875 1.3125zm6.6198425 3.015625l1.59375 -7.59375l1.171875 0l-0.28125 1.3125q0.765625 -0.78125 1.421875 -1.125q0.671875 -0.359375 1.375 -0.359375q0.921875 0 1.4375 0.5q0.53125 0.5 0.53125 1.328125q0 0.421875 -0.1875 1.34375l-0.96875 4.59375l-1.296875 0l1.015625 -4.8125q0.15625 -0.703125 0.15625 -1.046875q0 -0.375 -0.265625 -0.609375q-0.265625 -0.234375 -0.75 -0.234375q-1.0 0 -1.78125 0.71875q-0.765625 0.703125 -1.140625 2.453125l-0.734375 3.53125l-1.296875 0zm20.582458 -3.6875l1.375 0.1875q-0.65625 1.8125 -1.921875 2.75q-1.25 0.921875 -2.8125 0.921875q-1.90625 0 -3.03125 -1.15625q-1.125 -1.171875 -1.125 -3.34375q0 -2.828125 1.703125 -4.6875q1.515625 -1.65625 3.78125 -1.65625q1.65625 0 2.6875 0.90625q1.046875 0.890625 1.203125 2.390625l-1.3125 0.125q-0.203125 -1.140625 -0.859375 -1.703125q-0.640625 -0.5625 -1.65625 -0.5625q-1.9375 0 -3.125 1.71875q-1.015625 1.46875 -1.015625 3.5q0 1.609375 0.78125 2.46875q0.796875 0.84375 2.078125 0.84375q1.078125 0 1.953125 -0.703125q0.890625 -0.703125 1.296875 -2.0zm7.4124146 2.3125q-1.359375 1.546875 -2.796875 1.546875q-0.875 0 -1.421875 -0.5q-0.53125 -0.515625 -0.53125 -1.234375q0 -0.484375 0.234375 -1.65625l0.921875 -4.375l1.296875 0l-1.015625 4.859375q-0.140625 0.609375 -0.140625 0.9375q0 0.4375 0.265625 0.671875q0.265625 0.234375 0.765625 0.234375q0.546875 0 1.0625 -0.265625q0.53125 -0.265625 0.90625 -0.703125q0.375 -0.453125 0.609375 -1.078125q0.15625 -0.390625 0.359375 -1.375l0.6875 -3.28125l1.296875 0l-1.59375 7.59375l-1.1875 0l0.28125 -1.375zm2.9635925 1.375l1.59375 -7.59375l1.140625 0l-0.328125 1.546875q0.59375 -0.875 1.15625 -1.296875q0.5625 -0.421875 1.15625 -0.421875q0.375 0 0.9375 0.265625l-0.515625 1.203125q-0.34375 -0.234375 -0.75 -0.234375q-0.671875 0 -1.390625 0.765625q-0.71875 0.75 -1.125 2.71875l-0.640625 3.046875l-1.234375 0zm6.8025208 0l-1.25 -7.59375l1.265625 0l0.640625 4.1875q0.109375 0.671875 0.265625 2.234375q0.375 -0.8125 0.953125 -1.859375l2.546875 -4.5625l1.359375 0l-4.34375 7.59375l-1.4375 0zm10.984375 -2.578125l1.265625 0.125q-0.265625 0.9375 -1.25 1.78125q-0.96875 0.84375 -2.328125 0.84375q-0.84375 0 -1.546875 -0.390625q-0.703125 -0.390625 -1.078125 -1.125q-0.359375 -0.75 -0.359375 -1.703125q0 -1.25 0.5625 -2.421875q0.578125 -1.171875 1.5 -1.734375q0.921875 -0.5625 1.984375 -0.5625q1.359375 0 2.171875 0.84375q0.8125 0.84375 0.8125 2.296875q0 0.5625 -0.109375 1.140625l-5.59375 0q-0.03125 0.234375 -0.03125 0.40625q0 1.0625 0.484375 1.625q0.5 0.5625 1.203125 0.5625q0.671875 0 1.3125 -0.4375q0.640625 -0.4375 1.0 -1.25zm-3.765625 -1.890625l4.265625 0q0.015625 -0.203125 0.015625 -0.28125q0 -0.96875 -0.484375 -1.484375q-0.484375 -0.53125 -1.25 -0.53125q-0.84375 0 -1.53125 0.578125q-0.671875 0.5625 -1.015625 1.71875zm6.463623 1.875l1.296875 -0.078125q0 0.546875 0.171875 0.953125q0.171875 0.390625 0.625 0.640625q0.46875 0.25 1.078125 0.25q0.859375 0 1.28125 -0.34375q0.4375 -0.34375 0.4375 -0.8125q0 -0.328125 -0.25 -0.640625q-0.265625 -0.296875 -1.296875 -0.734375q-1.03125 -0.4375 -1.3125 -0.625q-0.484375 -0.28125 -0.734375 -0.671875q-0.234375 -0.40625 -0.234375 -0.921875q0 -0.90625 0.71875 -1.546875q0.71875 -0.640625 2.0 -0.640625q1.4375 0 2.1875 0.65625q0.75 0.65625 0.765625 1.734375l-1.265625 0.09375q-0.03125 -0.6875 -0.484375 -1.078125q-0.453125 -0.40625 -1.296875 -0.40625q-0.671875 0 -1.046875 0.3125q-0.359375 0.296875 -0.359375 0.65625q0 0.359375 0.3125 0.625q0.21875 0.1875 1.109375 0.578125q1.484375 0.640625 1.875 1.015625q0.625 0.59375 0.625 1.453125q0 0.5625 -0.359375 1.109375q-0.34375 0.53125 -1.0625 0.859375q-0.703125 0.328125 -1.671875 0.328125q-1.3125 0 -2.234375 -0.65625q-0.921875 -0.640625 -0.875 -2.109375z" fill-rule="nonzero"/></g></svg>