<svg version="1.1" viewBox="0.0 0.0 800.0 600.0" fill="none" stroke="none" stroke-linecap="square" stroke-miterlimit="10" xmlns:xlink="http://www.w3.org/1999/xlink" xmlns="http://www.w3.org/2000/svg"><clipPath id="p.0"><path d="m0 0l800.0 0l0 600.0l-800.0 0l0 -600.0z" clip-rule="nonzero"/></clipPath><g clip-path="url(#p.0)"><path fill="#000000" fill-opacity="0.0" d="m0 0l800.0 0l0 600.0l-800.0 0z" fill-rule="evenodd"/><path fill="#000000" fill-opacity="0.0" d="m80.908134 322.61942l654.92914 0.2204895" fill-rule="evenodd"/><path stroke="#000000" stroke-width="1.0" stroke-linejoin="round" stroke-linecap="butt" d="m80.908134 322.61942l648.92914 0.21844482" fill-rule="evenodd"/><path fill="#000000" stroke="#000000" stroke-width="1.0" stroke-linecap="butt" d="m729.83673 324.4896l4.5386353 -1.650177l-4.5375366 -1.6532593z" fill-rule="evenodd"/><path fill="#000000" fill-opacity="0.0" d="m81.40682 314.66293c7.1522293 -1.3709412 24.38102 -14.713013 42.91339 -8.225708c18.532372 6.4873047 47.254158 47.507446 68.28083 47.149597c21.026688 -0.3578186 42.048126 -43.241455 57.879272 -49.29657c15.831146 -6.0551147 15.309265 18.138214 37.107605 12.965881c21.79834 -5.1723633 68.87927 -47.333344 93.682434 -44.0c24.803131 3.333313 39.12903 57.333313 55.136475 64.0c16.007416 6.6666565 29.929993 -21.219604 40.908142 -24.0c10.978119 -2.780426 18.222656 7.5021667 24.960632 7.317566c6.7379456 -0.18460083 10.232269 -8.318878 15.467194 -8.425201c5.2348633 -0.106292725 10.263306 7.26947 15.942261 7.7874146c5.678894 0.51794434 12.131226 -4.179779 18.131226 -4.679779c6.0 -0.5 10.880127 1.7217712 17.868774 1.679779c6.9885864 -0.041992188 17.116333 -3.204712 24.062988 -1.9317627c6.946594 1.2729797 10.93042 7.558197 17.61676 9.56955c6.6864014 2.011383 15.334656 2.1653748 22.501343 2.4986877c7.166687 0.3333435 14.165344 0.107177734 20.498657 -0.49868774c6.333374 -0.6058655 14.584473 -2.613739 17.501343 -3.1364746" fill-rule="evenodd"/><path stroke="#000000" stroke-width="1.0" stroke-linejoin="round" stroke-linecap="butt" d="m81.40682 314.66293c7.1522293 -1.3709412 24.38102 -14.713013 42.91339 -8.225708c18.532372 6.4873047 47.254158 47.507446 68.28083 47.149597c21.026688 -0.3578186 42.048126 -43.241455 57.879272 -49.29657c15.831146 -6.0551147 15.309265 18.138214 37.107605 12.965881c21.79834 -5.1723633 68.87927 -47.333344 93.682434 -44.0c24.803131 3.333313 39.12903 57.333313 55.136475 64.0c16.007416 6.6666565 29.929993 -21.219604 40.908142 -24.0c10.978119 -2.780426 18.222656 7.5021667 24.960632 7.317566c6.7379456 -0.18460083 10.232269 -8.318878 15.467194 -8.425201c5.2348633 -0.106292725 10.263306 7.26947 15.942261 7.7874146c5.678894 0.51794434 12.131226 -4.179779 18.131226 -4.679779c6.0 -0.5 10.880127 1.7217712 17.868774 1.679779c6.9885864 -0.041992188 17.116333 -3.204712 24.062988 -1.9317627c6.946594 1.2729797 10.93042 7.558197 17.61676 9.56955c6.6864014 2.011383 15.334656 2.1653748 22.501343 2.4986877c7.166687 0.3333435 14.165344 0.107177734 20.498657 -0.49868774c6.333374 -0.6058655 14.584473 -2.613739 17.501343 -3.1364746" fill-rule="evenodd"/><path fill="#000000" fill-opacity="0.0" d="m154.98425 317.55118l-0.03149414 13.385834" fill-rule="evenodd"/><path stroke="#000000" stroke-width="1.0" stroke-linejoin="round" stroke-linecap="butt" stroke-dasharray="1.0,3.0" d="m154.98425 317.55118l-0.03149414 13.385834" fill-rule="evenodd"/><path fill="#000000" fill-opacity="0.0" d="m245.54724 335.937l0.12599182 -29.13385" fill-rule="evenodd"/><path stroke="#000000" stroke-width="1.0" stroke-linejoin="round" stroke-linecap="butt" stroke-dasharray="1.0,3.0" d="m245.54724 335.937l0.12599182 -29.13385" fill-rule="evenodd"/><path fill="#000000" fill-opacity="0.0" d="m80.908134 209.43832l0 223.52756" fill-rule="evenodd"/><path stroke="#000000" stroke-width="1.0" stroke-linejoin="round" stroke-linecap="butt" d="m80.908134 215.43832l0 211.52756" fill-rule="evenodd"/><path fill="#000000" stroke="#000000" stroke-width="1.0" stroke-linecap="butt" d="m82.55987 215.43832l-1.6517334 -4.538101l-1.6517334 4.538101z" fill-rule="evenodd"/><path fill="#000000" stroke="#000000" stroke-width="1.0" stroke-linecap="butt" d="m79.2564 426.96588l1.6517334 4.538086l1.6517334 -4.538086z" fill-rule="evenodd"/><path fill="#000000" fill-opacity="0.0" d="m80.908134 316.437l0 48.503937" fill-rule="evenodd"/><path stroke="#000000" stroke-width="1.0" stroke-linejoin="round" stroke-linecap="butt" d="m80.908134 316.437l0 44.71396" fill-rule="evenodd"/><path stroke="#000000" stroke-width="1.0" stroke-linecap="butt" d="m82.55314 361.15094l0 3.2900085l-3.290001 0l0 -3.2900085l3.290001 0z" fill-rule="nonzero"/><path fill="#000000" fill-opacity="0.0" d="m80.908134 278.437l0 48.503937" fill-rule="evenodd"/><path stroke="#000000" stroke-width="1.0" stroke-linejoin="round" stroke-linecap="butt" d="m80.908134 282.22702l0 44.71393" fill-rule="evenodd"/><path stroke="#000000" stroke-width="1.0" stroke-linecap="butt" d="m79.26314 282.22702l0 -3.2900085l3.290001 0l0 3.2900085l-3.290001 0z" fill-rule="nonzero"/><path fill="#000000" fill-opacity="0.0" d="m80.908134 356.94095l0 48.503937" fill-rule="evenodd"/><path stroke="#000000" stroke-width="1.0" stroke-linejoin="round" stroke-linecap="butt" d="m80.908134 356.94095l0 44.71396" fill-rule="evenodd"/><path stroke="#000000" stroke-width="1.0" stroke-linecap="butt" d="m82.55314 401.65488l0 3.2900085l-3.290001 0l0 -3.2900085l3.290001 0z" fill-rule="nonzero"/><path fill="#000000" fill-opacity="0.0" d="m80.908134 238.43307l0 48.503937" fill-rule="evenodd"/><path stroke="#000000" stroke-width="1.0" stroke-linejoin="round" stroke-linecap="butt" d="m80.908134 242.22308l0 44.71393" fill-rule="evenodd"/><path stroke="#000000" stroke-width="1.0" stroke-linecap="butt" d="m79.26314 242.22307l0 -3.2899933l3.290001 0l0 3.2899933l-3.290001 0z" fill-rule="nonzero"/><path fill="#000000" fill-opacity="0.0" d="m32.902885 309.5958l42.362206 0l0 23.212616l-42.362206 0z" fill-rule="evenodd"/><path fill="#000000" d="m46.074223 324.71024l0 -0.703125q-0.53125 -0.0625 -0.859375 -0.234375q-0.328125 -0.171875 -0.578125 -0.546875q-0.234375 -0.390625 -0.28125 -0.9375l0.71875 -0.125q0.078125 0.5625 0.28125 0.828125q0.296875 0.375 0.71875 0.421875l0 -2.25q-0.4375 -0.078125 -0.890625 -0.328125q-0.34375 -0.1875 -0.53125 -0.515625q-0.171875 -0.34375 -0.171875 -0.765625q0 -0.75 0.53125 -1.203125q0.359375 -0.3125 1.0625 -0.390625l0 -0.328125l0.40625 0l0 0.328125q0.609375 0.0625 0.96875 0.359375q0.46875 0.390625 0.5625 1.046875l-0.734375 0.109375q-0.0625 -0.40625 -0.265625 -0.625q-0.1875 -0.21875 -0.53125 -0.296875l0 2.03125q0.53125 0.125 0.703125 0.203125q0.328125 0.140625 0.53125 0.359375q0.21875 0.203125 0.328125 0.484375q0.109375 0.28125 0.109375 0.625q0 0.71875 -0.46875 1.21875q-0.46875 0.484375 -1.203125 0.515625l0 0.71875l-0.40625 0zm0 -6.15625q-0.421875 0.0625 -0.65625 0.328125q-0.234375 0.265625 -0.234375 0.625q0 0.359375 0.203125 0.609375q0.203125 0.234375 0.6875 0.375l0 -1.9375zm0.40625 4.859375q0.40625 -0.0625 0.671875 -0.359375q0.28125 -0.3125 0.28125 -0.75q0 -0.390625 -0.203125 -0.625q-0.1875 -0.234375 -0.75 -0.40625l0 2.140625zm5.0273438 0.46875l-0.703125 0l0 -4.484375q-0.25 0.25 -0.671875 0.5q-0.40625 0.234375 -0.734375 0.34375l0 -0.671875q0.59375 -0.28125 1.03125 -0.671875q0.4375 -0.390625 0.625 -0.765625l0.453125 0l0 5.75zm2.1992188 0l0 -0.796875l0.796875 0l0 0.796875l-0.796875 0zm1.8164062 -2.828125q0 -1.015625 0.203125 -1.625q0.21875 -0.625 0.625 -0.953125q0.421875 -0.34375 1.046875 -0.34375q0.453125 0 0.796875 0.1875q0.359375 0.1875 0.578125 0.53125q0.234375 0.34375 0.359375 0.859375q0.125 0.5 0.125 1.34375q0 1.015625 -0.203125 1.640625q-0.203125 0.609375 -0.625 0.953125q-0.40625 0.328125 -1.03125 0.328125q-0.828125 0 -1.296875 -0.59375q-0.578125 -0.71875 -0.578125 -2.328125zm0.734375 0q0 1.40625 0.328125 1.875q0.328125 0.46875 0.8125 0.46875q0.484375 0 0.8125 -0.46875q0.328125 -0.46875 0.328125 -1.875q0 -1.40625 -0.328125 -1.875q-0.328125 -0.46875 -0.828125 -0.46875q-0.484375 0 -0.765625 0.40625q-0.359375 0.53125 -0.359375 1.9375zm3.7148438 0q0 -1.015625 0.203125 -1.625q0.21875 -0.625 0.625 -0.953125q0.421875 -0.34375 1.046875 -0.34375q0.453125 0 0.796875 0.1875q0.359375 0.1875 0.578125 0.53125q0.234375 0.34375 0.359375 0.859375q0.125 0.5 0.125 1.34375q0 1.015625 -0.203125 1.640625q-0.203125 0.609375 -0.625 0.953125q-0.40625 0.328125 -1.03125 0.328125q-0.828125 0 -1.296875 -0.59375q-0.578125 -0.71875 -0.578125 -2.328125zm0.734375 0q0 1.40625 0.328125 1.875q0.328125 0.46875 0.8125 0.46875q0.484375 0 0.8125 -0.46875q0.328125 -0.46875 0.328125 -1.875q0 -1.40625 -0.328125 -1.875q-0.328125 -0.46875 -0.828125 -0.46875q-0.484375 0 -0.765625 0.40625q-0.359375 0.53125 -0.359375 1.9375z" fill-rule="nonzero"/><path fill="#000000" fill-opacity="0.0" d="m32.902885 269.69553l42.362206 0l0 23.212616l-42.362206 0z" fill-rule="evenodd"/><path fill="#000000" d="m46.074223 284.80997l0 -0.703125q-0.53125 -0.0625 -0.859375 -0.234375q-0.328125 -0.171875 -0.578125 -0.546875q-0.234375 -0.390625 -0.28125 -0.9375l0.71875 -0.125q0.078125 0.5625 0.28125 0.828125q0.296875 0.375 0.71875 0.421875l0 -2.25q-0.4375 -0.078125 -0.890625 -0.328125q-0.34375 -0.1875 -0.53125 -0.515625q-0.171875 -0.34375 -0.171875 -0.765625q0 -0.75 0.53125 -1.203125q0.359375 -0.3125 1.0625 -0.390625l0 -0.328125l0.40625 0l0 0.328125q0.609375 0.0625 0.96875 0.359375q0.46875 0.390625 0.5625 1.046875l-0.734375 0.109375q-0.0625 -0.40625 -0.265625 -0.625q-0.1875 -0.21875 -0.53125 -0.296875l0 2.03125q0.53125 0.125 0.703125 0.203125q0.328125 0.140625 0.53125 0.359375q0.21875 0.203125 0.328125 0.484375q0.109375 0.28125 0.109375 0.625q0 0.71875 -0.46875 1.21875q-0.46875 0.484375 -1.203125 0.515625l0 0.71875l-0.40625 0zm0 -6.15625q-0.421875 0.0625 -0.65625 0.328125q-0.234375 0.265625 -0.234375 0.625q0 0.359375 0.203125 0.609375q0.203125 0.234375 0.6875 0.375l0 -1.9375zm0.40625 4.859375q0.40625 -0.0625 0.671875 -0.359375q0.28125 -0.3125 0.28125 -0.75q0 -0.390625 -0.203125 -0.625q-0.1875 -0.234375 -0.75 -0.40625l0 2.140625zm5.0273438 0.46875l-0.703125 0l0 -4.484375q-0.25 0.25 -0.671875 0.5q-0.40625 0.234375 -0.734375 0.34375l0 -0.671875q0.59375 -0.28125 1.03125 -0.671875q0.4375 -0.390625 0.625 -0.765625l0.453125 0l0 5.75zm2.1992188 0l0 -0.796875l0.796875 0l0 0.796875l-0.796875 0zm1.8164062 -2.828125q0 -1.015625 0.203125 -1.625q0.21875 -0.625 0.625 -0.953125q0.421875 -0.34375 1.046875 -0.34375q0.453125 0 0.796875 0.1875q0.359375 0.1875 0.578125 0.53125q0.234375 0.34375 0.359375 0.859375q0.125 0.5 0.125 1.34375q0 1.015625 -0.203125 1.640625q-0.203125 0.609375 -0.625 0.953125q-0.40625 0.328125 -1.03125 0.328125q-0.828125 0 -1.296875 -0.59375q-0.578125 -0.71875 -0.578125 -2.328125zm0.734375 0q0 1.40625 0.328125 1.875q0.328125 0.46875 0.8125 0.46875q0.484375 0 0.8125 -0.46875q0.328125 -0.46875 0.328125 -1.875q0 -1.40625 -0.328125 -1.875q-0.328125 -0.46875 -0.828125 -0.46875q-0.484375 0 -0.765625 0.40625q-0.359375 0.53125 -0.359375 1.9375zm3.7148438 1.328125l0.75 -0.0625q0.078125 0.53125 0.375 0.8125q0.296875 0.265625 0.71875 0.265625q0.515625 0 0.859375 -0.375q0.359375 -0.390625 0.359375 -1.015625q0 -0.609375 -0.34375 -0.953125q-0.34375 -0.34375 -0.890625 -0.34375q-0.328125 0 -0.609375 0.15625q-0.265625 0.140625 -0.421875 0.390625l-0.671875 -0.078125l0.5625 -2.953125l2.84375 0l0 0.671875l-2.28125 0l-0.3125 1.546875q0.515625 -0.359375 1.078125 -0.359375q0.75 0 1.265625 0.515625q0.515625 0.515625 0.515625 1.34375q0 0.765625 -0.453125 1.34375q-0.546875 0.6875 -1.5 0.6875q-0.78125 0 -1.28125 -0.4375q-0.484375 -0.4375 -0.5625 -1.15625z" fill-rule="nonzero"/><path fill="#000000" fill-opacity="0.0" d="m32.902885 349.49606l42.362206 0l0 23.212585l-42.362206 0z" fill-rule="evenodd"/><path fill="#000000" d="m46.074223 364.61047l0 -0.703125q-0.53125 -0.0625 -0.859375 -0.234375q-0.328125 -0.171875 -0.578125 -0.546875q-0.234375 -0.390625 -0.28125 -0.9375l0.71875 -0.125q0.078125 0.5625 0.28125 0.828125q0.296875 0.375 0.71875 0.421875l0 -2.25q-0.4375 -0.078125 -0.890625 -0.328125q-0.34375 -0.1875 -0.53125 -0.515625q-0.171875 -0.34375 -0.171875 -0.765625q0 -0.75 0.53125 -1.203125q0.359375 -0.3125 1.0625 -0.390625l0 -0.328125l0.40625 0l0 0.328125q0.609375 0.0625 0.96875 0.359375q0.46875 0.390625 0.5625 1.046875l-0.734375 0.109375q-0.0625 -0.40625 -0.265625 -0.625q-0.1875 -0.21875 -0.53125 -0.296875l0 2.03125q0.53125 0.125 0.703125 0.203125q0.328125 0.140625 0.53125 0.359375q0.21875 0.203125 0.328125 0.484375q0.109375 0.28125 0.109375 0.625q0 0.71875 -0.46875 1.21875q-0.46875 0.484375 -1.203125 0.515625l0 0.71875l-0.40625 0zm0 -6.15625q-0.421875 0.0625 -0.65625 0.328125q-0.234375 0.265625 -0.234375 0.625q0 0.359375 0.203125 0.609375q0.203125 0.234375 0.6875 0.375l0 -1.9375zm0.40625 4.859375q0.40625 -0.0625 0.671875 -0.359375q0.28125 -0.3125 0.28125 -0.75q0 -0.390625 -0.203125 -0.625q-0.1875 -0.234375 -0.75 -0.40625l0 2.140625zm2.3710938 -2.359375q0 -1.015625 0.203125 -1.625q0.21875 -0.625 0.625 -0.953125q0.421875 -0.34375 1.046875 -0.34375q0.453125 0 0.796875 0.1875q0.359375 0.1875 0.578125 0.53125q0.234375 0.34375 0.359375 0.859375q0.125 0.5 0.125 1.34375q0 1.015625 -0.203125 1.640625q-0.203125 0.609375 -0.625 0.953125q-0.40625 0.328125 -1.03125 0.328125q-0.828125 0 -1.296875 -0.59375q-0.578125 -0.71875 -0.578125 -2.328125zm0.734375 0q0 1.40625 0.328125 1.875q0.328125 0.46875 0.8125 0.46875q0.484375 0 0.8125 -0.46875q0.328125 -0.46875 0.328125 -1.875q0 -1.40625 -0.328125 -1.875q-0.328125 -0.46875 -0.828125 -0.46875q-0.484375 0 -0.765625 0.40625q-0.359375 0.53125 -0.359375 1.9375zm4.1210938 2.828125l0 -0.796875l0.796875 0l0 0.796875l-0.796875 0zm1.9257812 -1.328125l0.671875 -0.0625q0.09375 0.484375 0.328125 0.703125q0.25 0.203125 0.625 0.203125q0.328125 0 0.5625 -0.140625q0.25 -0.15625 0.40625 -0.40625q0.15625 -0.25 0.265625 -0.671875q0.109375 -0.421875 0.109375 -0.859375q0 -0.046875 -0.015625 -0.140625q-0.203125 0.34375 -0.578125 0.5625q-0.359375 0.203125 -0.78125 0.203125q-0.71875 0 -1.21875 -0.515625q-0.484375 -0.515625 -0.484375 -1.359375q0 -0.875 0.515625 -1.40625q0.515625 -0.53125 1.296875 -0.53125q0.546875 0 1.015625 0.296875q0.46875 0.296875 0.703125 0.859375q0.234375 0.5625 0.234375 1.609375q0 1.09375 -0.234375 1.75q-0.234375 0.65625 -0.703125 1.0q-0.46875 0.328125 -1.109375 0.328125q-0.671875 0 -1.09375 -0.375q-0.421875 -0.375 -0.515625 -1.046875zm2.875 -2.53125q0 -0.59375 -0.328125 -0.953125q-0.3125 -0.359375 -0.765625 -0.359375q-0.46875 0 -0.8125 0.390625q-0.34375 0.375 -0.34375 0.984375q0 0.546875 0.328125 0.890625q0.328125 0.34375 0.8125 0.34375q0.484375 0 0.796875 -0.34375q0.3125 -0.34375 0.3125 -0.953125zm1.4648438 2.359375l0.75 -0.0625q0.078125 0.53125 0.375 0.8125q0.296875 0.265625 0.71875 0.265625q0.515625 0 0.859375 -0.375q0.359375 -0.390625 0.359375 -1.015625q0 -0.609375 -0.34375 -0.953125q-0.34375 -0.34375 -0.890625 -0.34375q-0.328125 0 -0.609375 0.15625q-0.265625 0.140625 -0.421875 0.390625l-0.671875 -0.078125l0.5625 -2.953125l2.84375 0l0 0.671875l-2.28125 0l-0.3125 1.546875q0.515625 -0.359375 1.078125 -0.359375q0.75 0 1.265625 0.515625q0.515625 0.515625 0.515625 1.34375q0 0.765625 -0.453125 1.34375q-0.546875 0.6875 -1.5 0.6875q-0.78125 0 -1.28125 -0.4375q-0.484375 -0.4375 -0.5625 -1.15625z" fill-rule="nonzero"/><path fill="#000000" fill-opacity="0.0" d="m32.902885 389.39633l42.362206 0l0 23.212585l-42.362206 0z" fill-rule="evenodd"/><path fill="#000000" d="m46.074223 404.51074l0 -0.703125q-0.53125 -0.0625 -0.859375 -0.234375q-0.328125 -0.171875 -0.578125 -0.546875q-0.234375 -0.390625 -0.28125 -0.9375l0.71875 -0.125q0.078125 0.5625 0.28125 0.828125q0.296875 0.375 0.71875 0.421875l0 -2.25q-0.4375 -0.078125 -0.890625 -0.328125q-0.34375 -0.1875 -0.53125 -0.515625q-0.171875 -0.34375 -0.171875 -0.765625q0 -0.75 0.53125 -1.203125q0.359375 -0.3125 1.0625 -0.390625l0 -0.328125l0.40625 0l0 0.328125q0.609375 0.0625 0.96875 0.359375q0.46875 0.390625 0.5625 1.046875l-0.734375 0.109375q-0.0625 -0.40625 -0.265625 -0.625q-0.1875 -0.21875 -0.53125 -0.296875l0 2.03125q0.53125 0.125 0.703125 0.203125q0.328125 0.140625 0.53125 0.359375q0.21875 0.203125 0.328125 0.484375q0.109375 0.28125 0.109375 0.625q0 0.71875 -0.46875 1.21875q-0.46875 0.484375 -1.203125 0.515625l0 0.71875l-0.40625 0zm0 -6.15625q-0.421875 0.0625 -0.65625 0.328125q-0.234375 0.265625 -0.234375 0.625q0 0.359375 0.203125 0.609375q0.203125 0.234375 0.6875 0.375l0 -1.9375zm0.40625 4.859375q0.40625 -0.0625 0.671875 -0.359375q0.28125 -0.3125 0.28125 -0.75q0 -0.390625 -0.203125 -0.625q-0.1875 -0.234375 -0.75 -0.40625l0 2.140625zm2.3710938 -2.359375q0 -1.015625 0.203125 -1.625q0.21875 -0.625 0.625 -0.953125q0.421875 -0.34375 1.046875 -0.34375q0.453125 0 0.796875 0.1875q0.359375 0.1875 0.578125 0.53125q0.234375 0.34375 0.359375 0.859375q0.125 0.5 0.125 1.34375q0 1.015625 -0.203125 1.640625q-0.203125 0.609375 -0.625 0.953125q-0.40625 0.328125 -1.03125 0.328125q-0.828125 0 -1.296875 -0.59375q-0.578125 -0.71875 -0.578125 -2.328125zm0.734375 0q0 1.40625 0.328125 1.875q0.328125 0.46875 0.8125 0.46875q0.484375 0 0.8125 -0.46875q0.328125 -0.46875 0.328125 -1.875q0 -1.40625 -0.328125 -1.875q-0.328125 -0.46875 -0.828125 -0.46875q-0.484375 0 -0.765625 0.40625q-0.359375 0.53125 -0.359375 1.9375zm4.1210938 2.828125l0 -0.796875l0.796875 0l0 0.796875l-0.796875 0zm1.9257812 -1.328125l0.671875 -0.0625q0.09375 0.484375 0.328125 0.703125q0.25 0.203125 0.625 0.203125q0.328125 0 0.5625 -0.140625q0.25 -0.15625 0.40625 -0.40625q0.15625 -0.25 0.265625 -0.671875q0.109375 -0.421875 0.109375 -0.859375q0 -0.046875 -0.015625 -0.140625q-0.203125 0.34375 -0.578125 0.5625q-0.359375 0.203125 -0.78125 0.203125q-0.71875 0 -1.21875 -0.515625q-0.484375 -0.515625 -0.484375 -1.359375q0 -0.875 0.515625 -1.40625q0.515625 -0.53125 1.296875 -0.53125q0.546875 0 1.015625 0.296875q0.46875 0.296875 0.703125 0.859375q0.234375 0.5625 0.234375 1.609375q0 1.09375 -0.234375 1.75q-0.234375 0.65625 -0.703125 1.0q-0.46875 0.328125 -1.109375 0.328125q-0.671875 0 -1.09375 -0.375q-0.421875 -0.375 -0.515625 -1.046875zm2.875 -2.53125q0 -0.59375 -0.328125 -0.953125q-0.3125 -0.359375 -0.765625 -0.359375q-0.46875 0 -0.8125 0.390625q-0.34375 0.375 -0.34375 0.984375q0 0.546875 0.328125 0.890625q0.328125 0.34375 0.8125 0.34375q0.484375 0 0.796875 -0.34375q0.3125 -0.34375 0.3125 -0.953125zm1.4648438 1.03125q0 -1.015625 0.203125 -1.625q0.21875 -0.625 0.625 -0.953125q0.421875 -0.34375 1.046875 -0.34375q0.453125 0 0.796875 0.1875q0.359375 0.1875 0.578125 0.53125q0.234375 0.34375 0.359375 0.859375q0.125 0.5 0.125 1.34375q0 1.015625 -0.203125 1.640625q-0.203125 0.609375 -0.625 0.953125q-0.40625 0.328125 -1.03125 0.328125q-0.828125 0 -1.296875 -0.59375q-0.578125 -0.71875 -0.578125 -2.328125zm0.734375 0q0 1.40625 0.328125 1.875q0.328125 0.46875 0.8125 0.46875q0.484375 0 0.8125 -0.46875q0.328125 -0.46875 0.328125 -1.875q0 -1.40625 -0.328125 -1.875q-0.328125 -0.46875 -0.828125 -0.46875q-0.484375 0 -0.765625 0.40625q-0.359375 0.53125 -0.359375 1.9375z" fill-rule="nonzero"/><path fill="#000000" fill-opacity="0.0" d="m32.902885 229.79527l42.362206 0l0 23.2126l-42.362206 0z" fill-rule="evenodd"/><path fill="#000000" d="m46.074223 244.9097l0 -0.703125q-0.53125 -0.0625 -0.859375 -0.234375q-0.328125 -0.171875 -0.578125 -0.546875q-0.234375 -0.390625 -0.28125 -0.9375l0.71875 -0.125q0.078125 0.5625 0.28125 0.828125q0.296875 0.375 0.71875 0.421875l0 -2.25q-0.4375 -0.078125 -0.890625 -0.328125q-0.34375 -0.1875 -0.53125 -0.515625q-0.171875 -0.34375 -0.171875 -0.765625q0 -0.75 0.53125 -1.203125q0.359375 -0.3125 1.0625 -0.390625l0 -0.328125l0.40625 0l0 0.328125q0.609375 0.0625 0.96875 0.359375q0.46875 0.390625 0.5625 1.046875l-0.734375 0.109375q-0.0625 -0.40625 -0.265625 -0.625q-0.1875 -0.21875 -0.53125 -0.296875l0 2.03125q0.53125 0.125 0.703125 0.203125q0.328125 0.140625 0.53125 0.359375q0.21875 0.203125 0.328125 0.484375q0.109375 0.28125 0.109375 0.625q0 0.71875 -0.46875 1.21875q-0.46875 0.484375 -1.203125 0.515625l0 0.71875l-0.40625 0zm0 -6.15625q-0.421875 0.0625 -0.65625 0.328125q-0.234375 0.265625 -0.234375 0.625q0 0.359375 0.203125 0.609375q0.203125 0.234375 0.6875 0.375l0 -1.9375zm0.40625 4.859375q0.40625 -0.0625 0.671875 -0.359375q0.28125 -0.3125 0.28125 -0.75q0 -0.390625 -0.203125 -0.625q-0.1875 -0.234375 -0.75 -0.40625l0 2.140625zm5.0273438 0.46875l-0.703125 0l0 -4.484375q-0.25 0.25 -0.671875 0.5q-0.40625 0.234375 -0.734375 0.34375l0 -0.671875q0.59375 -0.28125 1.03125 -0.671875q0.4375 -0.390625 0.625 -0.765625l0.453125 0l0 5.75zm2.1992188 0l0 -0.796875l0.796875 0l0 0.796875l-0.796875 0zm4.4726562 0l-0.703125 0l0 -4.484375q-0.25 0.25 -0.671875 0.5q-0.40625 0.234375 -0.734375 0.34375l0 -0.671875q0.59375 -0.28125 1.03125 -0.671875q0.4375 -0.390625 0.625 -0.765625l0.453125 0l0 5.75zm1.7929688 -2.828125q0 -1.015625 0.203125 -1.625q0.21875 -0.625 0.625 -0.953125q0.421875 -0.34375 1.046875 -0.34375q0.453125 0 0.796875 0.1875q0.359375 0.1875 0.578125 0.53125q0.234375 0.34375 0.359375 0.859375q0.125 0.5 0.125 1.34375q0 1.015625 -0.203125 1.640625q-0.203125 0.609375 -0.625 0.953125q-0.40625 0.328125 -1.03125 0.328125q-0.828125 0 -1.296875 -0.59375q-0.578125 -0.71875 -0.578125 -2.328125zm0.734375 0q0 1.40625 0.328125 1.875q0.328125 0.46875 0.8125 0.46875q0.484375 0 0.8125 -0.46875q0.328125 -0.46875 0.328125 -1.875q0 -1.40625 -0.328125 -1.875q-0.328125 -0.46875 -0.828125 -0.46875q-0.484375 0 -0.765625 0.40625q-0.359375 0.53125 -0.359375 1.9375z" fill-rule="nonzero"/><path fill="#000000" fill-opacity="0.0" d="m113.026245 306.8084l-0.12598419 24.629913" fill-rule="evenodd"/><path stroke="#000000" stroke-width="1.0" stroke-linejoin="round" stroke-linecap="butt" stroke-dasharray="1.0,3.0" d="m113.026245 306.8084l-0.12598419 24.629913" fill-rule="evenodd"/><path fill="#000000" fill-opacity="0.0" d="m162.95801 301.6509l0 36.283478" fill-rule="evenodd"/><path stroke="#000000" stroke-width="1.0" stroke-linejoin="round" stroke-linecap="butt" stroke-dasharray="1.0,3.0" d="m162.95801 301.6509l0 36.283478" fill-rule="evenodd"/><path fill="#000000" fill-opacity="0.0" d="m192.4567 317.55118l0 36.37796" fill-rule="evenodd"/><path stroke="#000000" stroke-width="1.0" stroke-linejoin="round" stroke-linecap="butt" stroke-dasharray="1.0,3.0" d="m192.4567 317.55118l0 36.37796" fill-rule="evenodd"/><path fill="#000000" fill-opacity="0.0" d="m335.09317 290.93832l-0.1574707 53.858276" fill-rule="evenodd"/><path stroke="#000000" stroke-width="1.0" stroke-linejoin="round" stroke-linecap="butt" stroke-dasharray="1.0,3.0" d="m335.09317 290.93832l-0.1574707 53.858276" fill-rule="evenodd"/><path fill="#000000" fill-opacity="0.0" d="m440.1391 301.05118l0 36.37796" fill-rule="evenodd"/><path stroke="#000000" stroke-width="1.0" stroke-linejoin="round" stroke-linecap="butt" stroke-dasharray="1.0,3.0" d="m440.1391 301.05118l0 36.37796" fill-rule="evenodd"/><path fill="#000000" fill-opacity="0.0" d="m475.82022 313.95013l0 27.77951" fill-rule="evenodd"/><path stroke="#000000" stroke-width="1.0" stroke-linejoin="round" stroke-linecap="butt" stroke-dasharray="1.0,3.0" d="m475.82022 313.95013l0 27.77951" fill-rule="evenodd"/><path fill="#000000" fill-opacity="0.0" d="m95.97113 331.43832l33.85826 0l0 23.212585l-33.85826 0z" fill-rule="evenodd"/><path fill="#000000" d="m107.327995 345.7246l2.203125 -5.734375l0.8125 0l2.34375 5.734375l-0.859375 0l-0.671875 -1.734375l-2.390625 0l-0.625 1.734375l-0.8125 0zm1.65625 -2.359375l1.9375 0l-0.59375 -1.578125q-0.265625 -0.71875 -0.40625 -1.1875q-0.109375 0.546875 -0.3125 1.09375l-0.625 1.671875zm8.3984375 0.34375l0.765625 0.203125q-0.25 0.921875 -0.875 1.421875q-0.609375 0.484375 -1.5 0.484375q-0.921875 0 -1.515625 -0.375q-0.578125 -0.375 -0.875 -1.09375q-0.296875 -0.71875 -0.296875 -1.53125q0 -0.890625 0.328125 -1.5625q0.34375 -0.671875 0.96875 -1.015625q0.640625 -0.34375 1.40625 -0.34375q0.859375 0 1.4375 0.4375q0.59375 0.4375 0.8125 1.234375l-0.734375 0.171875q-0.203125 -0.625 -0.59375 -0.90625q-0.375 -0.28125 -0.9375 -0.28125q-0.671875 0 -1.109375 0.3125q-0.4375 0.3125 -0.625 0.84375q-0.171875 0.53125 -0.171875 1.109375q0 0.71875 0.203125 1.265625q0.21875 0.546875 0.65625 0.828125q0.453125 0.265625 0.984375 0.265625q0.640625 0 1.078125 -0.359375q0.4375 -0.375 0.59375 -1.109375z" fill-rule="nonzero"/><path fill="#000000" fill-opacity="0.0" d="m138.05511 294.3386l33.858276 0l0 23.212585l-33.858276 0z" fill-rule="evenodd"/><path fill="#000000" d="m147.03949 311.0186l2.203125 -5.734375l0.8125 0l2.34375 5.734375l-0.859375 0l-0.671875 -1.734375l-2.390625 0l-0.625 1.734375l-0.8125 0zm1.65625 -2.359375l1.9375 0l-0.59375 -1.578125q-0.265625 -0.71875 -0.40625 -1.1875q-0.109375 0.546875 -0.3125 1.09375l-0.625 1.671875zm8.3984375 0.34375l0.765625 0.203125q-0.25 0.921875 -0.875 1.421875q-0.609375 0.484375 -1.5 0.484375q-0.921875 0 -1.515625 -0.375q-0.578125 -0.375 -0.875 -1.09375q-0.296875 -0.71875 -0.296875 -1.53125q0 -0.890625 0.328125 -1.5625q0.34375 -0.671875 0.96875 -1.015625q0.640625 -0.34375 1.40625 -0.34375q0.859375 0 1.4375 0.4375q0.59375 0.4375 0.8125 1.234375l-0.734375 0.171875q-0.203125 -0.625 -0.59375 -0.90625q-0.375 -0.28125 -0.9375 -0.28125q-0.671875 0 -1.109375 0.3125q-0.4375 0.3125 -0.625 0.84375q-0.171875 0.53125 -0.171875 1.109375q0 0.71875 0.203125 1.265625q0.21875 0.546875 0.65625 0.828125q0.453125 0.265625 0.984375 0.265625q0.640625 0 1.078125 -0.359375q0.4375 -0.375 0.59375 -1.109375z" fill-rule="nonzero"/><path fill="#000000" fill-opacity="0.0" d="m146.02887 278.43832l33.858276 0l0 23.212585l-33.858276 0z" fill-rule="evenodd"/><path fill="#000000" d="m157.38574 292.7246l2.203125 -5.734375l0.8125 0l2.34375 5.734375l-0.859375 0l-0.671875 -1.734375l-2.390625 0l-0.625 1.734375l-0.8125 0zm1.65625 -2.359375l1.9375 0l-0.59375 -1.578125q-0.265625 -0.71875 -0.40625 -1.1875q-0.109375 0.546875 -0.3125 1.09375l-0.625 1.671875zm8.3984375 0.34375l0.765625 0.203125q-0.25 0.921875 -0.875 1.421875q-0.609375 0.484375 -1.5 0.484375q-0.921875 0 -1.515625 -0.375q-0.578125 -0.375 -0.875 -1.09375q-0.296875 -0.71875 -0.296875 -1.53125q0 -0.890625 0.328125 -1.5625q0.34375 -0.671875 0.96875 -1.015625q0.640625 -0.34375 1.40625 -0.34375q0.859375 0 1.4375 0.4375q0.59375 0.4375 0.8125 1.234375l-0.734375 0.171875q-0.203125 -0.625 -0.59375 -0.90625q-0.375 -0.28125 -0.9375 -0.28125q-0.671875 0 -1.109375 0.3125q-0.4375 0.3125 -0.625 0.84375q-0.171875 0.53125 -0.171875 1.109375q0 0.71875 0.203125 1.265625q0.21875 0.546875 0.65625 0.828125q0.453125 0.265625 0.984375 0.265625q0.640625 0 1.078125 -0.359375q0.4375 -0.375 0.59375 -1.109375z" fill-rule="nonzero"/><path fill="#000000" fill-opacity="0.0" d="m175.52756 294.3386l33.858276 0l0 23.212585l-33.858276 0z" fill-rule="evenodd"/><path fill="#000000" d="m186.88443 308.62488l2.203125 -5.734375l0.8125 0l2.34375 5.734375l-0.859375 0l-0.671875 -1.734375l-2.390625 0l-0.625 1.734375l-0.8125 0zm1.65625 -2.359375l1.9375 0l-0.59375 -1.578125q-0.265625 -0.71875 -0.40625 -1.1875q-0.109375 0.546875 -0.3125 1.09375l-0.625 1.671875zm8.3984375 0.34375l0.765625 0.203125q-0.25 0.921875 -0.875 1.421875q-0.609375 0.484375 -1.5 0.484375q-0.921875 0 -1.515625 -0.375q-0.578125 -0.375 -0.875 -1.09375q-0.296875 -0.71875 -0.296875 -1.53125q0 -0.890625 0.328125 -1.5625q0.34375 -0.671875 0.96875 -1.015625q0.640625 -0.34375 1.40625 -0.34375q0.859375 0 1.4375 0.4375q0.59375 0.4375 0.8125 1.234375l-0.734375 0.171875q-0.203125 -0.625 -0.59375 -0.90625q-0.375 -0.28125 -0.9375 -0.28125q-0.671875 0 -1.109375 0.3125q-0.4375 0.3125 -0.625 0.84375q-0.171875 0.53125 -0.171875 1.109375q0 0.71875 0.203125 1.265625q0.21875 0.546875 0.65625 0.828125q0.453125 0.265625 0.984375 0.265625q0.640625 0 1.078125 -0.359375q0.4375 -0.375 0.59375 -1.109375z" fill-rule="nonzero"/><path fill="#000000" fill-opacity="0.0" d="m230.59448 332.8084l33.858276 0l0 23.212585l-33.858276 0z" fill-rule="evenodd"/><path fill="#000000" d="m239.57886 349.4884l2.203125 -5.734375l0.8125 0l2.34375 5.734375l-0.859375 0l-0.671875 -1.734375l-2.390625 0l-0.625 1.734375l-0.8125 0zm1.65625 -2.359375l1.9375 0l-0.59375 -1.578125q-0.265625 -0.71875 -0.40625 -1.1875q-0.109375 0.546875 -0.3125 1.09375l-0.625 1.671875zm8.3984375 0.34375l0.765625 0.203125q-0.25 0.921875 -0.875 1.421875q-0.609375 0.484375 -1.5 0.484375q-0.921875 0 -1.515625 -0.375q-0.578125 -0.375 -0.875 -1.09375q-0.296875 -0.71875 -0.296875 -1.53125q0 -0.890625 0.328125 -1.5625q0.34375 -0.671875 0.96875 -1.015625q0.640625 -0.34375 1.40625 -0.34375q0.859375 0 1.4375 0.4375q0.59375 0.4375 0.8125 1.234375l-0.734375 0.171875q-0.203125 -0.625 -0.59375 -0.90625q-0.375 -0.28125 -0.9375 -0.28125q-0.671875 0 -1.109375 0.3125q-0.4375 0.3125 -0.625 0.84375q-0.171875 0.53125 -0.171875 1.109375q0 0.71875 0.203125 1.265625q0.21875 0.546875 0.65625 0.828125q0.453125 0.265625 0.984375 0.265625q0.640625 0 1.078125 -0.359375q0.4375 -0.375 0.59375 -1.109375z" fill-rule="nonzero"/><path fill="#000000" fill-opacity="0.0" d="m318.0866 343.7979l33.858276 0l0 23.212585l-33.858276 0z" fill-rule="evenodd"/><path fill="#000000" d="m329.44348 358.0842l2.203125 -5.734375l0.8125 0l2.34375 5.734375l-0.859375 0l-0.671875 -1.734375l-2.390625 0l-0.625 1.734375l-0.8125 0zm1.65625 -2.359375l1.9375 0l-0.59375 -1.578125q-0.265625 -0.71875 -0.40625 -1.1875q-0.109375 0.546875 -0.3125 1.09375l-0.625 1.671875zm8.3984375 0.34375l0.765625 0.203125q-0.25 0.921875 -0.875 1.421875q-0.609375 0.484375 -1.5 0.484375q-0.921875 0 -1.515625 -0.375q-0.578125 -0.375 -0.875 -1.09375q-0.296875 -0.71875 -0.296875 -1.53125q0 -0.890625 0.328125 -1.5625q0.34375 -0.671875 0.96875 -1.015625q0.640625 -0.34375 1.40625 -0.34375q0.859375 0 1.4375 0.4375q0.59375 0.4375 0.8125 1.234375l-0.734375 0.171875q-0.203125 -0.625 -0.59375 -0.90625q-0.375 -0.28125 -0.9375 -0.28125q-0.671875 0 -1.109375 0.3125q-0.4375 0.3125 -0.625 0.84375q-0.171875 0.53125 -0.171875 1.109375q0 0.71875 0.203125 1.265625q0.21875 0.546875 0.65625 0.828125q0.453125 0.265625 0.984375 0.265625q0.640625 0 1.078125 -0.359375q0.4375 -0.375 0.59375 -1.109375z" fill-rule="nonzero"/><path fill="#000000" fill-opacity="0.0" d="m424.1063 275.56955l33.858276 0l0 23.212616l-33.858276 0z" fill-rule="evenodd"/><path fill="#000000" d="m435.46317 289.85587l2.203125 -5.734375l0.8125 0l2.34375 5.734375l-0.859375 0l-0.671875 -1.734375l-2.390625 0l-0.625 1.734375l-0.8125 0zm1.65625 -2.359375l1.9375 0l-0.59375 -1.578125q-0.265625 -0.71875 -0.40625 -1.1875q-0.109375 0.546875 -0.3125 1.09375l-0.625 1.671875zm8.3984375 0.34375l0.765625 0.203125q-0.25 0.921875 -0.875 1.421875q-0.609375 0.484375 -1.5 0.484375q-0.921875 0 -1.515625 -0.375q-0.578125 -0.375 -0.875 -1.09375q-0.296875 -0.71875 -0.296875 -1.53125q0 -0.890625 0.328125 -1.5625q0.34375 -0.671875 0.96875 -1.015625q0.640625 -0.34375 1.40625 -0.34375q0.859375 0 1.4375 0.4375q0.59375 0.4375 0.8125 1.234375l-0.734375 0.171875q-0.203125 -0.625 -0.59375 -0.90625q-0.375 -0.28125 -0.9375 -0.28125q-0.671875 0 -1.109375 0.3125q-0.4375 0.3125 -0.625 0.84375q-0.171875 0.53125 -0.171875 1.109375q0 0.71875 0.203125 1.265625q0.21875 0.546875 0.65625 0.828125q0.453125 0.265625 0.984375 0.265625q0.640625 0 1.078125 -0.359375q0.4375 -0.375 0.59375 -1.109375z" fill-rule="nonzero"/><path fill="#000000" fill-opacity="0.0" d="m458.8924 337.9344l33.858276 0l0 23.212585l-33.858276 0z" fill-rule="evenodd"/><path fill="#000000" d="m470.24927 352.22067l2.203125 -5.734375l0.8125 0l2.34375 5.734375l-0.859375 0l-0.671875 -1.734375l-2.390625 0l-0.625 1.734375l-0.8125 0zm1.65625 -2.359375l1.9375 0l-0.59375 -1.578125q-0.265625 -0.71875 -0.40625 -1.1875q-0.109375 0.546875 -0.3125 1.09375l-0.625 1.671875zm8.3984375 0.34375l0.765625 0.203125q-0.25 0.921875 -0.875 1.421875q-0.609375 0.484375 -1.5 0.484375q-0.921875 0 -1.515625 -0.375q-0.578125 -0.375 -0.875 -1.09375q-0.296875 -0.71875 -0.296875 -1.53125q0 -0.890625 0.328125 -1.5625q0.34375 -0.671875 0.96875 -1.015625q0.640625 -0.34375 1.40625 -0.34375q0.859375 0 1.4375 0.4375q0.59375 0.4375 0.8125 1.234375l-0.734375 0.171875q-0.203125 -0.625 -0.59375 -0.90625q-0.375 -0.28125 -0.9375 -0.28125q-0.671875 0 -1.109375 0.3125q-0.4375 0.3125 -0.625 0.84375q-0.171875 0.53125 -0.171875 1.109375q0 0.71875 0.203125 1.265625q0.21875 0.546875 0.65625 0.828125q0.453125 0.265625 0.984375 0.265625q0.640625 0 1.078125 -0.359375q0.4375 -0.375 0.59375 -1.109375z" fill-rule="nonzero"/><path fill="#000000" fill-opacity="0.0" d="m694.0026 288.937l62.992126 0l0 34.015747l-62.992126 0z" fill-rule="evenodd"/><path fill="#000000" d="m711.34705 310.74487l0 -9.546875l3.28125 0q1.109375 0 1.703125 0.140625q0.8125 0.1875 1.390625 0.6875q0.765625 0.640625 1.140625 1.640625q0.375 0.984375 0.375 2.25q0 1.09375 -0.265625 1.9375q-0.25 0.828125 -0.65625 1.390625q-0.390625 0.546875 -0.859375 0.859375q-0.46875 0.3125 -1.140625 0.484375q-0.65625 0.15625 -1.53125 0.15625l-3.4375 0zm1.265625 -1.125l2.03125 0q0.9375 0 1.46875 -0.171875q0.546875 -0.1875 0.875 -0.5q0.4375 -0.453125 0.6875 -1.203125q0.25 -0.765625 0.25 -1.84375q0 -1.5 -0.5 -2.296875q-0.484375 -0.8125 -1.1875 -1.078125q-0.5 -0.203125 -1.625 -0.203125l-2.0 0l0 7.296875zm12.718933 0.265625q-0.65625 0.5625 -1.265625 0.796875q-0.59375 0.21875 -1.28125 0.21875q-1.140625 0 -1.75 -0.546875q-0.609375 -0.5625 -0.609375 -1.4375q0 -0.5 0.21875 -0.921875q0.234375 -0.421875 0.609375 -0.671875q0.375 -0.25 0.84375 -0.390625q0.34375 -0.078125 1.046875 -0.171875q1.421875 -0.171875 2.09375 -0.40625q0 -0.234375 0 -0.296875q0 -0.71875 -0.328125 -1.015625q-0.453125 -0.390625 -1.34375 -0.390625q-0.8125 0 -1.21875 0.296875q-0.390625 0.28125 -0.578125 1.015625l-1.140625 -0.15625q0.15625 -0.734375 0.515625 -1.1875q0.359375 -0.453125 1.03125 -0.6875q0.671875 -0.25 1.5625 -0.25q0.890625 0 1.4375 0.203125q0.5625 0.203125 0.8125 0.53125q0.265625 0.3125 0.375 0.796875q0.046875 0.296875 0.046875 1.078125l0 1.5625q0 1.625 0.078125 2.0625q0.078125 0.4375 0.296875 0.828125l-1.21875 0q-0.1875 -0.359375 -0.234375 -0.859375zm-0.09375 -2.609375q-0.640625 0.265625 -1.921875 0.4375q-0.71875 0.109375 -1.015625 0.25q-0.296875 0.125 -0.46875 0.375q-0.15625 0.25 -0.15625 0.546875q0 0.46875 0.34375 0.78125q0.359375 0.3125 1.046875 0.3125q0.671875 0 1.203125 -0.296875q0.53125 -0.296875 0.78125 -0.8125q0.1875 -0.390625 0.1875 -1.171875l0 -0.421875zm2.9437256 6.125l-0.125 -1.09375q0.375 0.109375 0.65625 0.109375q0.390625 0 0.625 -0.140625q0.234375 -0.125 0.390625 -0.359375q0.109375 -0.171875 0.359375 -0.875q0.03125 -0.09375 0.109375 -0.28125l-2.625 -6.921875l1.265625 0l1.4375 4.0q0.28125 0.765625 0.5 1.59375q0.203125 -0.796875 0.46875 -1.578125l1.484375 -4.015625l1.171875 0l-2.625 7.015625q-0.421875 1.140625 -0.65625 1.578125q-0.3125 0.578125 -0.71875 0.84375q-0.40625 0.28125 -0.96875 0.28125q-0.328125 0 -0.75 -0.15625zm6.2421875 -4.71875l1.15625 -0.1875q0.109375 0.703125 0.546875 1.078125q0.453125 0.359375 1.25 0.359375q0.8125 0 1.203125 -0.328125q0.390625 -0.328125 0.390625 -0.765625q0 -0.390625 -0.359375 -0.625q-0.234375 -0.15625 -1.1875 -0.390625q-1.296875 -0.328125 -1.796875 -0.5625q-0.484375 -0.25 -0.75 -0.65625q-0.25 -0.421875 -0.25 -0.9375q0 -0.453125 0.203125 -0.84375q0.21875 -0.40625 0.578125 -0.671875q0.28125 -0.1875 0.75 -0.328125q0.46875 -0.140625 1.015625 -0.140625q0.8125 0 1.421875 0.234375q0.609375 0.234375 0.90625 0.640625q0.296875 0.390625 0.40625 1.0625l-1.140625 0.15625q-0.078125 -0.53125 -0.453125 -0.828125q-0.375 -0.3125 -1.0625 -0.3125q-0.8125 0 -1.15625 0.265625q-0.34375 0.265625 -0.34375 0.625q0 0.234375 0.140625 0.421875q0.15625 0.1875 0.453125 0.3125q0.171875 0.0625 1.03125 0.296875q1.25 0.328125 1.734375 0.546875q0.5 0.203125 0.78125 0.609375q0.28125 0.40625 0.28125 1.0q0 0.59375 -0.34375 1.109375q-0.34375 0.515625 -1.0 0.796875q-0.640625 0.28125 -1.453125 0.28125q-1.34375 0 -2.046875 -0.5625q-0.703125 -0.5625 -0.90625 -1.65625z" fill-rule="nonzero"/><path fill="#000000" fill-opacity="0.0" d="m672.68506 322.84778l0 -30.992126" fill-rule="evenodd"/><path stroke="#000000" stroke-width="1.0" stroke-linejoin="round" stroke-linecap="butt" stroke-dasharray="4.0,3.0" d="m672.68506 322.84778l0 -30.992126" fill-rule="evenodd"/><path fill="#000000" fill-opacity="0.0" d="m655.7559 271.8058l33.858276 0l0 18.992126l-33.858276 0z" fill-rule="evenodd"/><path fill="#000000" d="m667.7534 283.98184l0 -5.734375l2.15625 0q0.5625 0 0.875 0.0625q0.421875 0.0625 0.703125 0.265625q0.28125 0.203125 0.453125 0.5625q0.171875 0.34375 0.171875 0.765625q0 0.734375 -0.46875 1.25q-0.453125 0.5 -1.671875 0.5l-1.46875 0l0 2.328125l-0.75 0zm0.75 -3.0l1.484375 0q0.734375 0 1.03125 -0.265625q0.3125 -0.28125 0.3125 -0.78125q0 -0.359375 -0.1875 -0.609375q-0.171875 -0.265625 -0.46875 -0.34375q-0.1875 -0.046875 -0.703125 -0.046875l-1.46875 0l0 2.046875zm8.6640625 0.984375l0.765625 0.203125q-0.25 0.921875 -0.875 1.421875q-0.609375 0.484375 -1.5 0.484375q-0.921875 0 -1.515625 -0.375q-0.578125 -0.375 -0.875 -1.09375q-0.296875 -0.71875 -0.296875 -1.53125q0 -0.890625 0.328125 -1.5625q0.34375 -0.671875 0.96875 -1.015625q0.640625 -0.34375 1.40625 -0.34375q0.859375 0 1.4375 0.4375q0.59375 0.4375 0.8125 1.234375l-0.734375 0.171875q-0.203125 -0.625 -0.59375 -0.90625q-0.375 -0.28125 -0.9375 -0.28125q-0.671875 0 -1.109375 0.3125q-0.4375 0.3125 -0.625 0.84375q-0.171875 0.53125 -0.171875 1.109375q0 0.71875 0.203125 1.265625q0.21875 0.546875 0.65625 0.828125q0.453125 0.265625 0.984375 0.265625q0.640625 0 1.078125 -0.359375q0.4375 -0.375 0.59375 -1.109375z" fill-rule="nonzero"/><path fill="#000000" fill-opacity="0.0" d="m607.0945 142.4042l160.0 0l0 30.48819l-160.0 0z" fill-rule="evenodd"/><path fill="#000000" d="m616.07886 164.2042l3.65625 -9.546875l1.359375 0l3.90625 9.546875l-1.4375 0l-1.109375 -2.890625l-3.984375 0l-1.046875 2.890625l-1.34375 0zm2.75 -3.921875l3.234375 0l-1.0 -2.640625q-0.453125 -1.203125 -0.671875 -1.96875q-0.1875 0.90625 -0.515625 1.8125l-1.046875 2.796875zm13.9835205 0.578125l1.265625 0.3125q-0.390625 1.5625 -1.421875 2.375q-1.03125 0.8125 -2.53125 0.8125q-1.53125 0 -2.5 -0.625q-0.96875 -0.625 -1.484375 -1.8125q-0.5 -1.1875 -0.5 -2.5625q0 -1.484375 0.5625 -2.59375q0.578125 -1.109375 1.625 -1.6875q1.0625 -0.578125 2.328125 -0.578125q1.421875 0 2.390625 0.734375q0.984375 0.71875 1.375 2.046875l-1.25 0.296875q-0.328125 -1.046875 -0.96875 -1.515625q-0.625 -0.484375 -1.578125 -0.484375q-1.09375 0 -1.84375 0.53125q-0.734375 0.53125 -1.03125 1.421875q-0.296875 0.875 -0.296875 1.828125q0 1.21875 0.34375 2.125q0.359375 0.90625 1.109375 1.359375q0.75 0.4375 1.625 0.4375q1.0625 0 1.796875 -0.609375q0.734375 -0.609375 0.984375 -1.8125zm6.703125 -2.234375l0 -1.328125l1.328125 0l0 1.328125l-1.328125 0zm0 5.578125l0 -1.328125l1.328125 0l0 1.328125l-1.328125 0zm5.451538 0l3.65625 -9.546875l1.359375 0l3.90625 9.546875l-1.4375 0l-1.109375 -2.890625l-3.984375 0l-1.046875 2.890625l-1.34375 0zm2.75 -3.921875l3.234375 0l-1.0 -2.640625q-0.453125 -1.203125 -0.671875 -1.96875q-0.1875 0.90625 -0.515625 1.8125l-1.046875 2.796875zm11.5460205 1.390625l1.15625 0.15625q-0.1875 1.1875 -0.96875 1.859375q-0.78125 0.671875 -1.921875 0.671875q-1.40625 0 -2.28125 -0.921875q-0.859375 -0.9375 -0.859375 -2.65625q0 -1.125 0.375 -1.96875q0.375 -0.84375 1.125 -1.25q0.765625 -0.421875 1.65625 -0.421875q1.125 0 1.84375 0.578125q0.71875 0.5625 0.921875 1.609375l-1.140625 0.171875q-0.171875 -0.703125 -0.59375 -1.046875q-0.40625 -0.359375 -0.984375 -0.359375q-0.890625 0 -1.453125 0.640625q-0.546875 0.640625 -0.546875 2.0q0 1.40625 0.53125 2.03125q0.546875 0.625 1.40625 0.625q0.6875 0 1.140625 -0.421875q0.46875 -0.421875 0.59375 -1.296875zm4.7109375 1.484375l0.171875 1.03125q-0.5 0.109375 -0.890625 0.109375q-0.640625 0 -1.0 -0.203125q-0.34375 -0.203125 -0.484375 -0.53125q-0.140625 -0.328125 -0.140625 -1.390625l0 -3.96875l-0.859375 0l0 -0.90625l0.859375 0l0 -1.71875l1.171875 -0.703125l0 2.421875l1.171875 0l0 0.90625l-1.171875 0l0 4.046875q0 0.5 0.046875 0.640625q0.0625 0.140625 0.203125 0.234375q0.140625 0.078125 0.40625 0.078125q0.203125 0 0.515625 -0.046875zm1.1561279 -7.140625l0 -1.359375l1.171875 0l0 1.359375l-1.171875 0zm0 8.1875l0 -6.90625l1.171875 0l0 6.90625l-1.171875 0zm4.8673096 0l-2.625 -6.90625l1.234375 0l1.484375 4.140625q0.234375 0.65625 0.4375 1.390625q0.15625 -0.546875 0.4375 -1.3125l1.53125 -4.21875l1.21875 0l-2.625 6.90625l-1.09375 0zm9.4765625 -2.21875l1.203125 0.140625q-0.28125 1.0625 -1.0625 1.65625q-0.765625 0.578125 -1.96875 0.578125q-1.515625 0 -2.40625 -0.9375q-0.890625 -0.9375 -0.890625 -2.609375q0 -1.75 0.890625 -2.703125q0.90625 -0.96875 2.34375 -0.96875q1.390625 0 2.265625 0.9375q0.875 0.9375 0.875 2.65625q0 0.109375 0 0.3125l-5.15625 0q0.0625 1.140625 0.640625 1.75q0.578125 0.59375 1.4375 0.59375q0.65625 0 1.109375 -0.328125q0.453125 -0.34375 0.71875 -1.078125zm-3.84375 -1.90625l3.859375 0q-0.078125 -0.859375 -0.4375 -1.296875q-0.5625 -0.6875 -1.453125 -0.6875q-0.8125 0 -1.359375 0.546875q-0.546875 0.53125 -0.609375 1.4375zm17.177979 0.78125l1.265625 0.3125q-0.390625 1.5625 -1.421875 2.375q-1.03125 0.8125 -2.53125 0.8125q-1.53125 0 -2.5 -0.625q-0.96875 -0.625 -1.484375 -1.8125q-0.5 -1.1875 -0.5 -2.5625q0 -1.484375 0.5625 -2.59375q0.578125 -1.109375 1.625 -1.6875q1.0625 -0.578125 2.328125 -0.578125q1.421875 0 2.390625 0.734375q0.984375 0.71875 1.375 2.046875l-1.25 0.296875q-0.328125 -1.046875 -0.96875 -1.515625q-0.625 -0.484375 -1.578125 -0.484375q-1.09375 0 -1.84375 0.53125q-0.734375 0.53125 -1.03125 1.421875q-0.296875 0.875 -0.296875 1.828125q0 1.21875 0.34375 2.125q0.359375 0.90625 1.109375 1.359375q0.75 0.4375 1.625 0.4375q1.0625 0 1.796875 -0.609375q0.734375 -0.609375 0.984375 -1.8125zm2.234558 -0.109375q0 -1.921875 1.078125 -2.84375q0.890625 -0.765625 2.171875 -0.765625q1.421875 0 2.328125 0.9375q0.90625 0.921875 0.90625 2.578125q0 1.328125 -0.40625 2.09375q-0.390625 0.765625 -1.15625 1.1875q-0.765625 0.421875 -1.671875 0.421875q-1.453125 0 -2.359375 -0.921875q-0.890625 -0.9375 -0.890625 -2.6875zm1.203125 0q0 1.328125 0.578125 1.984375q0.59375 0.65625 1.46875 0.65625q0.875 0 1.453125 -0.65625q0.578125 -0.671875 0.578125 -2.03125q0 -1.28125 -0.59375 -1.9375q-0.578125 -0.65625 -1.4375 -0.65625q-0.875 0 -1.46875 0.65625q-0.578125 0.65625 -0.578125 1.984375zm6.6468506 3.453125l0 -6.90625l1.0625 0l0 0.984375q0.75 -1.140625 2.1875 -1.140625q0.625 0 1.15625 0.21875q0.53125 0.21875 0.78125 0.59375q0.265625 0.359375 0.375 0.859375q0.0625 0.328125 0.0625 1.140625l0 4.25l-1.171875 0l0 -4.203125q0 -0.71875 -0.140625 -1.0625q-0.140625 -0.359375 -0.484375 -0.5625q-0.34375 -0.21875 -0.8125 -0.21875q-0.75 0 -1.296875 0.46875q-0.546875 0.46875 -0.546875 1.796875l0 3.78125l-1.171875 0zm11.896851 0l0 -0.875q-0.65625 1.03125 -1.9375 1.03125q-0.8125 0 -1.515625 -0.453125q-0.6875 -0.453125 -1.078125 -1.265625q-0.375 -0.828125 -0.375 -1.890625q0 -1.03125 0.34375 -1.875q0.34375 -0.84375 1.03125 -1.28125q0.703125 -0.453125 1.546875 -0.453125q0.625 0 1.109375 0.265625q0.5 0.25 0.796875 0.671875l0 -3.421875l1.171875 0l0 9.546875l-1.09375 0zm-3.703125 -3.453125q0 1.328125 0.5625 1.984375q0.5625 0.65625 1.328125 0.65625q0.765625 0 1.296875 -0.625q0.53125 -0.625 0.53125 -1.90625q0 -1.421875 -0.546875 -2.078125q-0.546875 -0.671875 -1.34375 -0.671875q-0.78125 0 -1.3125 0.640625q-0.515625 0.625 -0.515625 2.0zm6.6468506 -4.734375l0 -1.359375l1.171875 0l0 1.359375l-1.171875 0zm0 8.1875l0 -6.90625l1.171875 0l0 6.90625l-1.171875 0zm5.5079346 -1.046875l0.171875 1.03125q-0.5 0.109375 -0.890625 0.109375q-0.640625 0 -1.0 -0.203125q-0.34375 -0.203125 -0.484375 -0.53125q-0.140625 -0.328125 -0.140625 -1.390625l0 -3.96875l-0.859375 0l0 -0.90625l0.859375 0l0 -1.71875l1.171875 -0.703125l0 2.421875l1.171875 0l0 0.90625l-1.171875 0l0 4.046875q0 0.5 0.046875 0.640625q0.0625 0.140625 0.203125 0.234375q0.140625 0.078125 0.40625 0.078125q0.203125 0 0.515625 -0.046875zm1.1561279 -7.140625l0 -1.359375l1.171875 0l0 1.359375l-1.171875 0zm0 8.1875l0 -6.90625l1.171875 0l0 6.90625l-1.171875 0zm2.5079346 -3.453125q0 -1.921875 1.078125 -2.84375q0.890625 -0.765625 2.171875 -0.765625q1.421875 0 2.328125 0.9375q0.90625 0.921875 0.90625 2.578125q0 1.328125 -0.40625 2.09375q-0.390625 0.765625 -1.15625 1.1875q-0.765625 0.421875 -1.671875 0.421875q-1.453125 0 -2.359375 -0.921875q-0.890625 -0.9375 -0.890625 -2.6875zm1.203125 0q0 1.328125 0.578125 1.984375q0.59375 0.65625 1.46875 0.65625q0.875 0 1.453125 -0.65625q0.578125 -0.671875 0.578125 -2.03125q0 -1.28125 -0.59375 -1.9375q-0.578125 -0.65625 -1.4375 -0.65625q-0.875 0 -1.46875 0.65625q-0.578125 0.65625 -0.578125 1.984375zm6.6468506 3.453125l0 -6.90625l1.0625 0l0 0.984375q0.75 -1.140625 2.1875 -1.140625q0.625 0 1.15625 0.21875q0.53125 0.21875 0.78125 0.59375q0.265625 0.359375 0.375 0.859375q0.0625 0.328125 0.0625 1.140625l0 4.25l-1.171875 0l0 -4.203125q0 -0.71875 -0.140625 -1.0625q-0.140625 -0.359375 -0.484375 -0.5625q-0.34375 -0.21875 -0.8125 -0.21875q-0.75 0 -1.296875 0.46875q-0.546875 0.46875 -0.546875 1.796875l0 3.78125l-1.171875 0z" fill-rule="nonzero"/><path fill="#000000" fill-opacity="0.0" d="m607.0945 167.8924l160.0 0l0 30.48819l-160.0 0z" fill-rule="evenodd"/><path fill="#000000" d="m617.12573 189.69238l0 -9.546875l3.59375 0q0.953125 0 1.453125 0.09375q0.703125 0.125 1.171875 0.453125q0.484375 0.328125 0.765625 0.921875q0.296875 0.59375 0.296875 1.296875q0 1.21875 -0.78125 2.0625q-0.765625 0.84375 -2.796875 0.84375l-2.4375 0l0 3.875l-1.265625 0zm1.265625 -5.0l2.453125 0q1.234375 0 1.75 -0.453125q0.515625 -0.46875 0.515625 -1.28125q0 -0.609375 -0.3125 -1.03125q-0.296875 -0.421875 -0.796875 -0.5625q-0.3125 -0.09375 -1.171875 -0.09375l-2.4375 0l0 3.421875zm14.4210205 1.65625l1.265625 0.3125q-0.390625 1.5625 -1.421875 2.375q-1.03125 0.8125 -2.53125 0.8125q-1.53125 0 -2.5 -0.625q-0.96875 -0.625 -1.484375 -1.8125q-0.5 -1.1875 -0.5 -2.5625q0 -1.484375 0.5625 -2.59375q0.578125 -1.109375 1.625 -1.6875q1.0625 -0.578125 2.328125 -0.578125q1.421875 0 2.390625 0.734375q0.984375 0.71875 1.375 2.046875l-1.25 0.296875q-0.328125 -1.046875 -0.96875 -1.515625q-0.625 -0.484375 -1.578125 -0.484375q-1.09375 0 -1.84375 0.53125q-0.734375 0.53125 -1.03125 1.421875q-0.296875 0.875 -0.296875 1.828125q0 1.21875 0.34375 2.125q0.359375 0.90625 1.109375 1.359375q0.75 0.4375 1.625 0.4375q1.0625 0 1.796875 -0.609375q0.734375 -0.609375 0.984375 -1.8125zm6.703125 -2.234375l0 -1.328125l1.328125 0l0 1.328125l-1.328125 0zm0 5.578125l0 -1.328125l1.328125 0l0 1.328125l-1.328125 0zm7.234131 0l0 -9.546875l3.59375 0q0.953125 0 1.453125 0.09375q0.703125 0.125 1.171875 0.453125q0.484375 0.328125 0.765625 0.921875q0.296875 0.59375 0.296875 1.296875q0 1.21875 -0.78125 2.0625q-0.765625 0.84375 -2.796875 0.84375l-2.4375 0l0 3.875l-1.265625 0zm1.265625 -5.0l2.453125 0q1.234375 0 1.75 -0.453125q0.515625 -0.46875 0.515625 -1.28125q0 -0.609375 -0.3125 -1.03125q-0.296875 -0.421875 -0.796875 -0.5625q-0.3125 -0.09375 -1.171875 -0.09375l-2.4375 0l0 3.421875zm11.983459 4.140625q-0.65625 0.5625 -1.265625 0.796875q-0.59375 0.21875 -1.28125 0.21875q-1.140625 0 -1.75 -0.546875q-0.609375 -0.5625 -0.609375 -1.4375q0 -0.5 0.21875 -0.921875q0.234375 -0.421875 0.609375 -0.671875q0.375 -0.25 0.84375 -0.390625q0.34375 -0.078125 1.046875 -0.171875q1.421875 -0.171875 2.09375 -0.40625q0 -0.234375 0 -0.296875q0 -0.71875 -0.328125 -1.015625q-0.453125 -0.390625 -1.34375 -0.390625q-0.8125 0 -1.21875 0.296875q-0.390625 0.28125 -0.578125 1.015625l-1.140625 -0.15625q0.15625 -0.734375 0.515625 -1.1875q0.359375 -0.453125 1.03125 -0.6875q0.671875 -0.25 1.5625 -0.25q0.890625 0 1.4375 0.203125q0.5625 0.203125 0.8125 0.53125q0.265625 0.3125 0.375 0.796875q0.046875 0.296875 0.046875 1.078125l0 1.5625q0 1.625 0.078125 2.0625q0.078125 0.4375 0.296875 0.828125l-1.21875 0q-0.1875 -0.359375 -0.234375 -0.859375zm-0.09375 -2.609375q-0.640625 0.265625 -1.921875 0.4375q-0.71875 0.109375 -1.015625 0.25q-0.296875 0.125 -0.46875 0.375q-0.15625 0.25 -0.15625 0.546875q0 0.46875 0.34375 0.78125q0.359375 0.3125 1.046875 0.3125q0.671875 0 1.203125 -0.296875q0.53125 -0.296875 0.78125 -0.8125q0.1875 -0.390625 0.1875 -1.171875l0 -0.421875zm2.5218506 1.40625l1.15625 -0.1875q0.109375 0.703125 0.546875 1.078125q0.453125 0.359375 1.25 0.359375q0.8125 0 1.203125 -0.328125q0.390625 -0.328125 0.390625 -0.765625q0 -0.390625 -0.359375 -0.625q-0.234375 -0.15625 -1.1875 -0.390625q-1.296875 -0.328125 -1.796875 -0.5625q-0.484375 -0.25 -0.75 -0.65625q-0.25 -0.421875 -0.25 -0.9375q0 -0.453125 0.203125 -0.84375q0.21875 -0.40625 0.578125 -0.671875q0.28125 -0.1875 0.75 -0.328125q0.46875 -0.140625 1.015625 -0.140625q0.8125 0 1.421875 0.234375q0.609375 0.234375 0.90625 0.640625q0.296875 0.390625 0.40625 1.0625l-1.140625 0.15625q-0.078125 -0.53125 -0.453125 -0.828125q-0.375 -0.3125 -1.0625 -0.3125q-0.8125 0 -1.15625 0.265625q-0.34375 0.265625 -0.34375 0.625q0 0.234375 0.140625 0.421875q0.15625 0.1875 0.453125 0.3125q0.171875 0.0625 1.03125 0.296875q1.25 0.328125 1.734375 0.546875q0.5 0.203125 0.78125 0.609375q0.28125 0.40625 0.28125 1.0q0 0.59375 -0.34375 1.109375q-0.34375 0.515625 -1.0 0.796875q-0.640625 0.28125 -1.453125 0.28125q-1.34375 0 -2.046875 -0.5625q-0.703125 -0.5625 -0.90625 -1.65625zm6.6640625 0l1.15625 -0.1875q0.109375 0.703125 0.546875 1.078125q0.453125 0.359375 1.25 0.359375q0.8125 0 1.203125 -0.328125q0.390625 -0.328125 0.390625 -0.765625q0 -0.390625 -0.359375 -0.625q-0.234375 -0.15625 -1.1875 -0.390625q-1.296875 -0.328125 -1.796875 -0.5625q-0.484375 -0.25 -0.75 -0.65625q-0.25 -0.421875 -0.25 -0.9375q0 -0.453125 0.203125 -0.84375q0.21875 -0.40625 0.578125 -0.671875q0.28125 -0.1875 0.75 -0.328125q0.46875 -0.140625 1.015625 -0.140625q0.8125 0 1.421875 0.234375q0.609375 0.234375 0.90625 0.640625q0.296875 0.390625 0.40625 1.0625l-1.140625 0.15625q-0.078125 -0.53125 -0.453125 -0.828125q-0.375 -0.3125 -1.0625 -0.3125q-0.8125 0 -1.15625 0.265625q-0.34375 0.265625 -0.34375 0.625q0 0.234375 0.140625 0.421875q0.15625 0.1875 0.453125 0.3125q0.171875 0.0625 1.03125 0.296875q1.25 0.328125 1.734375 0.546875q0.5 0.203125 0.78125 0.609375q0.28125 0.40625 0.28125 1.0q0 0.59375 -0.34375 1.109375q-0.34375 0.515625 -1.0 0.796875q-0.640625 0.28125 -1.453125 0.28125q-1.34375 0 -2.046875 -0.5625q-0.703125 -0.5625 -0.90625 -1.65625zm7.1484375 -6.125l0 -1.359375l1.171875 0l0 1.359375l-1.171875 0zm0 8.1875l0 -6.90625l1.171875 0l0 6.90625l-1.171875 0zm4.8673706 0l-2.625 -6.90625l1.234375 0l1.484375 4.140625q0.234375 0.65625 0.4375 1.390625q0.15625 -0.546875 0.4375 -1.3125l1.53125 -4.21875l1.21875 0l-2.625 6.90625l-1.09375 0zm9.4765625 -2.21875l1.203125 0.140625q-0.28125 1.0625 -1.0625 1.65625q-0.765625 0.578125 -1.96875 0.578125q-1.515625 0 -2.40625 -0.9375q-0.890625 -0.9375 -0.890625 -2.609375q0 -1.75 0.890625 -2.703125q0.90625 -0.96875 2.34375 -0.96875q1.390625 0 2.265625 0.9375q0.875 0.9375 0.875 2.65625q0 0.109375 0 0.3125l-5.15625 0q0.0625 1.140625 0.640625 1.75q0.578125 0.59375 1.4375 0.59375q0.65625 0 1.109375 -0.328125q0.453125 -0.34375 0.71875 -1.078125zm-3.84375 -1.90625l3.859375 0q-0.078125 -0.859375 -0.4375 -1.296875q-0.5625 -0.6875 -1.453125 -0.6875q-0.8125 0 -1.359375 0.546875q-0.546875 0.53125 -0.609375 1.4375zm17.177979 0.78125l1.265625 0.3125q-0.390625 1.5625 -1.421875 2.375q-1.03125 0.8125 -2.53125 0.8125q-1.53125 0 -2.5 -0.625q-0.96875 -0.625 -1.484375 -1.8125q-0.5 -1.1875 -0.5 -2.5625q0 -1.484375 0.5625 -2.59375q0.578125 -1.109375 1.625 -1.6875q1.0625 -0.578125 2.328125 -0.578125q1.421875 0 2.390625 0.734375q0.984375 0.71875 1.375 2.046875l-1.25 0.296875q-0.328125 -1.046875 -0.96875 -1.515625q-0.625 -0.484375 -1.578125 -0.484375q-1.09375 0 -1.84375 0.53125q-0.734375 0.53125 -1.03125 1.421875q-0.296875 0.875 -0.296875 1.828125q0 1.21875 0.34375 2.125q0.359375 0.90625 1.109375 1.359375q0.75 0.4375 1.625 0.4375q1.0625 0 1.796875 -0.609375q0.734375 -0.609375 0.984375 -1.8125zm2.234497 -0.109375q0 -1.921875 1.078125 -2.84375q0.890625 -0.765625 2.171875 -0.765625q1.421875 0 2.328125 0.9375q0.90625 0.921875 0.90625 2.578125q0 1.328125 -0.40625 2.09375q-0.390625 0.765625 -1.15625 1.1875q-0.765625 0.421875 -1.671875 0.421875q-1.453125 0 -2.359375 -0.921875q-0.890625 -0.9375 -0.890625 -2.6875zm1.203125 0q0 1.328125 0.578125 1.984375q0.59375 0.65625 1.46875 0.65625q0.875 0 1.453125 -0.65625q0.578125 -0.671875 0.578125 -2.03125q0 -1.28125 -0.59375 -1.9375q-0.578125 -0.65625 -1.4375 -0.65625q-0.875 0 -1.46875 0.65625q-0.578125 0.65625 -0.578125 1.984375zm6.6468506 3.453125l0 -6.90625l1.0625 0l0 0.984375q0.75 -1.140625 2.1875 -1.140625q0.625 0 1.15625 0.21875q0.53125 0.21875 0.78125 0.59375q0.265625 0.359375 0.375 0.859375q0.0625 0.328125 0.0625 1.140625l0 4.25l-1.171875 0l0 -4.203125q0 -0.71875 -0.140625 -1.0625q-0.140625 -0.359375 -0.484375 -0.5625q-0.34375 -0.21875 -0.8125 -0.21875q-0.75 0 -1.296875 0.46875q-0.546875 0.46875 -0.546875 1.796875l0 3.78125l-1.171875 0zm11.896851 0l0 -0.875q-0.65625 1.03125 -1.9375 1.03125q-0.8125 0 -1.515625 -0.453125q-0.6875 -0.453125 -1.078125 -1.265625q-0.375 -0.828125 -0.375 -1.890625q0 -1.03125 0.34375 -1.875q0.34375 -0.84375 1.03125 -1.28125q0.703125 -0.453125 1.546875 -0.453125q0.625 0 1.109375 0.265625q0.5 0.25 0.796875 0.671875l0 -3.421875l1.171875 0l0 9.546875l-1.09375 0zm-3.703125 -3.453125q0 1.328125 0.5625 1.984375q0.5625 0.65625 1.328125 0.65625q0.765625 0 1.296875 -0.625q0.53125 -0.625 0.53125 -1.90625q0 -1.421875 -0.546875 -2.078125q-0.546875 -0.671875 -1.34375 -0.671875q-0.78125 0 -1.3125 0.640625q-0.515625 0.625 -0.515625 2.0zm6.6468506 -4.734375l0 -1.359375l1.171875 0l0 1.359375l-1.171875 0zm0 8.1875l0 -6.90625l1.171875 0l0 6.90625l-1.171875 0zm5.5079956 -1.046875l0.171875 1.03125q-0.5 0.109375 -0.890625 0.109375q-0.640625 0 -1.0 -0.203125q-0.34375 -0.203125 -0.484375 -0.53125q-0.140625 -0.328125 -0.140625 -1.390625l0 -3.96875l-0.859375 0l0 -0.90625l0.859375 0l0 -1.71875l1.171875 -0.703125l0 2.421875l1.171875 0l0 0.90625l-1.171875 0l0 4.046875q0 0.5 0.046875 0.640625q0.0625 0.140625 0.203125 0.234375q0.140625 0.078125 0.40625 0.078125q0.203125 0 0.515625 -0.046875zm1.1560669 -7.140625l0 -1.359375l1.171875 0l0 1.359375l-1.171875 0zm0 8.1875l0 -6.90625l1.171875 0l0 6.90625l-1.171875 0zm2.5079956 -3.453125q0 -1.921875 1.078125 -2.84375q0.890625 -0.765625 2.171875 -0.765625q1.421875 0 2.328125 0.9375q0.90625 0.921875 0.90625 2.578125q0 1.328125 -0.40625 2.09375q-0.390625 0.765625 -1.15625 1.1875q-0.765625 0.421875 -1.671875 0.421875q-1.453125 0 -2.359375 -0.921875q-0.890625 -0.9375 -0.890625 -2.6875zm1.203125 0q0 1.328125 0.578125 1.984375q0.59375 0.65625 1.46875 0.65625q0.875 0 1.453125 -0.65625q0.578125 -0.671875 0.578125 -2.03125q0 -1.28125 -0.59375 -1.9375q-0.578125 -0.65625 -1.4375 -0.65625q-0.875 0 -1.46875 0.65625q-0.578125 0.65625 -0.578125 1.984375zm6.6468506 3.453125l0 -6.90625l1.0625 0l0 0.984375q0.75 -1.140625 2.1875 -1.140625q0.625 0 1.15625 0.21875q0.53125 0.21875 0.78125 0.59375q0.265625 0.359375 0.375 0.859375q0.0625 0.328125 0.0625 1.140625l0 4.25l-1.171875 0l0 -4.203125q0 -0.71875 -0.140625 -1.0625q-0.140625 -0.359375 -0.484375 -0.5625q-0.34375 -0.21875 -0.8125 -0.21875q-0.75 0 -1.296875 0.46875q-0.546875 0.46875 -0.546875 1.796875l0 3.78125l-1.171875 0z" fill-rule="nonzero"/><path fill="#000000" fill-opacity="0.0" d="m475.1811 368.75592l196.94489 -0.50393677" fill-rule="evenodd"/><path stroke="#000000" stroke-width="1.0" stroke-linejoin="round" stroke-linecap="butt" d="m478.6082 368.74713l190.09073 -0.48638916" fill-rule="evenodd"/><path fill="#000000" stroke="#000000" stroke-width="1.0" stroke-linecap="butt" d="m478.6082 368.74713l1.1217041 -1.1274414l-3.0868835 1.1324768l3.0926208 1.1166687z" fill-rule="evenodd"/><path fill="#000000" stroke="#000000" stroke-width="1.0" stroke-linecap="butt" d="m668.6989 368.26074l-1.1217041 1.1274414l3.086853 -1.1324768l-3.0925903 -1.1166687z" fill-rule="evenodd"/><path fill="#000000" fill-opacity="0.0" d="m542.4698 372.70865l66.48822 0l0 27.779541l-66.48822 0z" fill-rule="evenodd"/><path fill="#000000" d="m556.70465 383.10156l0 -1.125l6.1875 0l0 0.921875q-0.921875 0.96875 -1.8125 2.578125q-0.890625 1.59375 -1.375 3.296875q-0.359375 1.203125 -0.453125 2.625l-1.203125 0q0.015625 -1.125 0.4375 -2.71875q0.421875 -1.59375 1.203125 -3.078125q0.796875 -1.484375 1.6875 -2.5l-4.671875 0zm15.8498535 8.296875l0 -0.875q-0.65625 1.03125 -1.9375 1.03125q-0.8125 0 -1.515625 -0.453125q-0.6875 -0.453125 -1.078125 -1.265625q-0.375 -0.828125 -0.375 -1.890625q0 -1.03125 0.34375 -1.875q0.34375 -0.84375 1.03125 -1.28125q0.703125 -0.453125 1.546875 -0.453125q0.625 0 1.109375 0.265625q0.5 0.25 0.796875 0.671875l0 -3.421875l1.171875 0l0 9.546875l-1.09375 0zm-3.703125 -3.453125q0 1.328125 0.5625 1.984375q0.5625 0.65625 1.328125 0.65625q0.765625 0 1.296875 -0.625q0.53125 -0.625 0.53125 -1.90625q0 -1.421875 -0.546875 -2.078125q-0.546875 -0.671875 -1.34375 -0.671875q-0.78125 0 -1.3125 0.640625q-0.515625 0.625 -0.515625 2.0zm11.146851 2.59375q-0.65625 0.5625 -1.265625 0.796875q-0.59375 0.21875 -1.28125 0.21875q-1.140625 0 -1.75 -0.546875q-0.609375 -0.5625 -0.609375 -1.4375q0 -0.5 0.21875 -0.921875q0.234375 -0.421875 0.609375 -0.671875q0.375 -0.25 0.84375 -0.390625q0.34375 -0.078125 1.046875 -0.171875q1.421875 -0.171875 2.09375 -0.40625q0 -0.234375 0 -0.296875q0 -0.71875 -0.328125 -1.015625q-0.453125 -0.390625 -1.34375 -0.390625q-0.8125 0 -1.21875 0.296875q-0.390625 0.28125 -0.578125 1.015625l-1.140625 -0.15625q0.15625 -0.734375 0.515625 -1.1875q0.359375 -0.453125 1.03125 -0.6875q0.671875 -0.25 1.5625 -0.25q0.890625 0 1.4375 0.203125q0.5625 0.203125 0.8125 0.53125q0.265625 0.3125 0.375 0.796875q0.046875 0.296875 0.046875 1.078125l0 1.5625q0 1.625 0.078125 2.0625q0.078125 0.4375 0.296875 0.828125l-1.21875 0q-0.1875 -0.359375 -0.234375 -0.859375zm-0.09375 -2.609375q-0.640625 0.265625 -1.921875 0.4375q-0.71875 0.109375 -1.015625 0.25q-0.296875 0.125 -0.46875 0.375q-0.15625 0.25 -0.15625 0.546875q0 0.46875 0.34375 0.78125q0.359375 0.3125 1.046875 0.3125q0.671875 0 1.203125 -0.296875q0.53125 -0.296875 0.78125 -0.8125q0.1875 -0.390625 0.1875 -1.171875l0 -0.421875zm2.9437256 6.125l-0.125 -1.09375q0.375 0.109375 0.65625 0.109375q0.390625 0 0.625 -0.140625q0.234375 -0.125 0.390625 -0.359375q0.109375 -0.171875 0.359375 -0.875q0.03125 -0.09375 0.109375 -0.28125l-2.625 -6.921875l1.265625 0l1.4375 4.0q0.28125 0.765625 0.5 1.59375q0.203125 -0.796875 0.46875 -1.578125l1.484375 -4.015625l1.171875 0l-2.625 7.015625q-0.421875 1.140625 -0.65625 1.578125q-0.3125 0.578125 -0.71875 0.84375q-0.40625 0.28125 -0.96875 0.28125q-0.328125 0 -0.75 -0.15625zm6.2421875 -4.71875l1.15625 -0.1875q0.109375 0.703125 0.546875 1.078125q0.453125 0.359375 1.25 0.359375q0.8125 0 1.203125 -0.328125q0.390625 -0.328125 0.390625 -0.765625q0 -0.390625 -0.359375 -0.625q-0.234375 -0.15625 -1.1875 -0.390625q-1.296875 -0.328125 -1.796875 -0.5625q-0.484375 -0.25 -0.75 -0.65625q-0.25 -0.421875 -0.25 -0.9375q0 -0.453125 0.203125 -0.84375q0.21875 -0.40625 0.578125 -0.671875q0.28125 -0.1875 0.75 -0.328125q0.46875 -0.140625 1.015625 -0.140625q0.8125 0 1.421875 0.234375q0.609375 0.234375 0.90625 0.640625q0.296875 0.390625 0.40625 1.0625l-1.140625 0.15625q-0.078125 -0.53125 -0.453125 -0.828125q-0.375 -0.3125 -1.0625 -0.3125q-0.8125 0 -1.15625 0.265625q-0.34375 0.265625 -0.34375 0.625q0 0.234375 0.140625 0.421875q0.15625 0.1875 0.453125 0.3125q0.171875 0.0625 1.03125 0.296875q1.25 0.328125 1.734375 0.546875q0.5 0.203125 0.78125 0.609375q0.28125 0.40625 0.28125 1.0q0 0.59375 -0.34375 1.109375q-0.34375 0.515625 -1.0 0.796875q-0.640625 0.28125 -1.453125 0.28125q-1.34375 0 -2.046875 -0.5625q-0.703125 -0.5625 -0.90625 -1.65625z" fill-rule="nonzero"/><path fill="#000000" fill-opacity="0.0" d="m221.45932 432.96588l373.82675 0l0 24.629913l-373.82675 0z" fill-rule="evenodd"/><path fill="#000000" d="m289.1661 450.36084l2.203125 -10.484375l4.390625 0q1.3125 0 1.984375 0.21875q0.671875 0.203125 1.046875 0.8125q0.390625 0.59375 0.390625 1.515625q0 1.28125 -0.84375 2.125q-0.828125 0.84375 -2.703125 1.09375q0.578125 0.421875 0.859375 0.828125q0.671875 0.921875 1.0625 1.921875l0.8125 1.96875l-1.578125 0l-0.75 -1.953125q-0.40625 -1.0625 -0.921875 -1.828125q-0.359375 -0.546875 -0.734375 -0.703125q-0.375 -0.171875 -1.21875 -0.171875l-1.625 0l-0.96875 4.65625l-1.40625 0zm2.609375 -5.796875l1.9375 0q1.34375 0 1.75 -0.03125q0.796875 -0.078125 1.296875 -0.359375q0.515625 -0.28125 0.796875 -0.75q0.28125 -0.46875 0.28125 -1.015625q0 -0.46875 -0.203125 -0.796875q-0.203125 -0.34375 -0.546875 -0.46875q-0.34375 -0.125 -1.140625 -0.125l-3.421875 0l-0.75 3.546875zm13.349915 3.21875l1.265625 0.125q-0.265625 0.9375 -1.25 1.78125q-0.96875 0.84375 -2.328125 0.84375q-0.84375 0 -1.546875 -0.390625q-0.703125 -0.390625 -1.078125 -1.125q-0.359375 -0.75 -0.359375 -1.703125q0 -1.25 0.5625 -2.421875q0.578125 -1.171875 1.5 -1.734375q0.921875 -0.5625 1.984375 -0.5625q1.359375 0 2.171875 0.84375q0.8125 0.84375 0.8125 2.296875q0 0.5625 -0.109375 1.140625l-5.59375 0q-0.03125 0.234375 -0.03125 0.40625q0 1.0625 0.484375 1.625q0.5 0.5625 1.203125 0.5625q0.671875 0 1.3125 -0.4375q0.640625 -0.4375 1.0 -1.25zm-3.765625 -1.890625l4.265625 0q0.015625 -0.203125 0.015625 -0.28125q0 -0.96875 -0.484375 -1.484375q-0.484375 -0.53125 -1.25 -0.53125q-0.84375 0 -1.53125 0.578125q-0.671875 0.5625 -1.015625 1.71875zm5.6979675 7.375l2.203125 -10.5l1.1875 0l-0.21875 1.046875q0.671875 -0.6875 1.1875 -0.953125q0.53125 -0.265625 1.125 -0.265625q1.078125 0 1.796875 0.796875q0.71875 0.78125 0.71875 2.25q0 1.1875 -0.390625 2.171875q-0.390625 0.96875 -0.96875 1.5625q-0.578125 0.59375 -1.171875 0.875q-0.578125 0.28125 -1.1875 0.28125q-1.375 0 -2.125 -1.390625l-0.859375 4.125l-1.296875 0zm2.5625 -6.015625q0 0.859375 0.125 1.1875q0.1875 0.46875 0.59375 0.75q0.40625 0.28125 0.9375 0.28125q1.125 0 1.8125 -1.25q0.6875 -1.265625 0.6875 -2.5625q0 -0.96875 -0.46875 -1.5q-0.46875 -0.53125 -1.15625 -0.53125q-0.484375 0 -0.90625 0.265625q-0.421875 0.265625 -0.78125 0.78125q-0.359375 0.515625 -0.609375 1.265625q-0.234375 0.75 -0.234375 1.3125zm6.229248 3.109375l1.59375 -7.59375l1.140625 0l-0.328125 1.546875q0.59375 -0.875 1.15625 -1.296875q0.5625 -0.421875 1.15625 -0.421875q0.375 0 0.9375 0.265625l-0.515625 1.203125q-0.34375 -0.234375 -0.75 -0.234375q-0.671875 0 -1.390625 0.765625q-0.71875 0.75 -1.125 2.71875l-0.640625 3.046875l-1.234375 0zm10.458771 -2.578125l1.265625 0.125q-0.265625 0.9375 -1.25 1.78125q-0.96875 0.84375 -2.328125 0.84375q-0.84375 0 -1.546875 -0.390625q-0.703125 -0.390625 -1.078125 -1.125q-0.359375 -0.75 -0.359375 -1.703125q0 -1.25 0.5625 -2.421875q0.578125 -1.171875 1.5 -1.734375q0.921875 -0.5625 1.984375 -0.5625q1.359375 0 2.171875 0.84375q0.8125 0.84375 0.8125 2.296875q0 0.5625 -0.109375 1.140625l-5.59375 0q-0.03125 0.234375 -0.03125 0.40625q0 1.0625 0.484375 1.625q0.5 0.5625 1.203125 0.5625q0.671875 0 1.3125 -0.4375q0.640625 -0.4375 1.0 -1.25zm-3.765625 -1.890625l4.265625 0q0.015625 -0.203125 0.015625 -0.28125q0 -0.96875 -0.484375 -1.484375q-0.484375 -0.53125 -1.25 -0.53125q-0.84375 0 -1.53125 0.578125q-0.671875 0.5625 -1.015625 1.71875zm6.4635925 1.875l1.296875 -0.078125q0 0.546875 0.171875 0.953125q0.171875 0.390625 0.625 0.640625q0.46875 0.25 1.078125 0.25q0.859375 0 1.28125 -0.34375q0.4375 -0.34375 0.4375 -0.8125q0 -0.328125 -0.25 -0.640625q-0.265625 -0.296875 -1.296875 -0.734375q-1.03125 -0.4375 -1.3125 -0.625q-0.484375 -0.28125 -0.734375 -0.671875q-0.234375 -0.40625 -0.234375 -0.921875q0 -0.90625 0.71875 -1.546875q0.71875 -0.640625 2.0 -0.640625q1.4375 0 2.1875 0.65625q0.75 0.65625 0.765625 1.734375l-1.265625 0.09375q-0.03125 -0.6875 -0.484375 -1.078125q-0.453125 -0.40625 -1.296875 -0.40625q-0.671875 0 -1.046875 0.3125q-0.359375 0.296875 -0.359375 0.65625q0 0.359375 0.3125 0.625q0.21875 0.1875 1.109375 0.578125q1.484375 0.640625 1.875 1.015625q0.625 0.59375 0.625 1.453125q0 0.5625 -0.359375 1.109375q-0.34375 0.53125 -1.0625 0.859375q-0.703125 0.328125 -1.671875 0.328125q-1.3125 0 -2.234375 -0.65625q-0.921875 -0.640625 -0.875 -2.109375zm12.78125 0.015625l1.265625 0.125q-0.265625 0.9375 -1.25 1.78125q-0.96875 0.84375 -2.328125 0.84375q-0.84375 0 -1.546875 -0.390625q-0.703125 -0.390625 -1.078125 -1.125q-0.359375 -0.75 -0.359375 -1.703125q0 -1.25 0.5625 -2.421875q0.578125 -1.171875 1.5 -1.734375q0.921875 -0.5625 1.984375 -0.5625q1.359375 0 2.171875 0.84375q0.8125 0.84375 0.8125 2.296875q0 0.5625 -0.109375 1.140625l-5.59375 0q-0.03125 0.234375 -0.03125 0.40625q0 1.0625 0.484375 1.625q0.5 0.5625 1.203125 0.5625q0.671875 0 1.3125 -0.4375q0.640625 -0.4375 1.0 -1.25zm-3.765625 -1.890625l4.265625 0q0.015625 -0.203125 0.015625 -0.28125q0 -0.96875 -0.484375 -1.484375q-0.484375 -0.53125 -1.25 -0.53125q-0.84375 0 -1.53125 0.578125q-0.671875 0.5625 -1.015625 1.71875zm6.338623 4.46875l1.59375 -7.59375l1.171875 0l-0.28125 1.3125q0.765625 -0.78125 1.421875 -1.125q0.671875 -0.359375 1.375 -0.359375q0.921875 0 1.4375 0.5q0.53125 0.5 0.53125 1.328125q0 0.421875 -0.1875 1.34375l-0.96875 4.59375l-1.296875 0l1.015625 -4.8125q0.15625 -0.703125 0.15625 -1.046875q0 -0.375 -0.265625 -0.609375q-0.265625 -0.234375 -0.75 -0.234375q-1.0 0 -1.78125 0.71875q-0.765625 0.703125 -1.140625 2.453125l-0.734375 3.53125l-1.296875 0zm11.182343 -1.046875l-0.21875 1.046875q-0.46875 0.125 -0.90625 0.125q-0.765625 0 -1.21875 -0.375q-0.34375 -0.28125 -0.34375 -0.78125q0 -0.25 0.1875 -1.15625l0.921875 -4.40625l-1.03125 0l0.203125 -1.0l1.03125 0l0.390625 -1.875l1.484375 -0.890625l-0.578125 2.765625l1.265625 0l-0.203125 1.0l-1.265625 0l-0.890625 4.203125q-0.15625 0.796875 -0.15625 0.953125q0 0.234375 0.125 0.359375q0.140625 0.109375 0.4375 0.109375q0.421875 0 0.765625 -0.078125zm6.165741 0.109375q-0.671875 0.578125 -1.296875 0.84375q-0.625 0.265625 -1.328125 0.265625q-1.046875 0 -1.703125 -0.609375q-0.640625 -0.625 -0.640625 -1.59375q0 -0.640625 0.28125 -1.125q0.296875 -0.5 0.78125 -0.796875q0.484375 -0.296875 1.171875 -0.421875q0.4375 -0.078125 1.65625 -0.125q1.21875 -0.0625 1.75 -0.265625q0.15625 -0.53125 0.15625 -0.875q0 -0.453125 -0.328125 -0.71875q-0.453125 -0.359375 -1.328125 -0.359375q-0.8125 0 -1.328125 0.375q-0.515625 0.359375 -0.75 1.015625l-1.3125 -0.109375q0.40625 -1.125 1.265625 -1.71875q0.875 -0.609375 2.203125 -0.609375q1.40625 0 2.21875 0.671875q0.640625 0.5 0.640625 1.296875q0 0.609375 -0.1875 1.40625l-0.421875 1.890625q-0.203125 0.90625 -0.203125 1.46875q0 0.359375 0.171875 1.03125l-1.3125 0q-0.109375 -0.375 -0.15625 -0.9375zm0.484375 -2.90625q-0.28125 0.09375 -0.59375 0.15625q-0.296875 0.0625 -1.03125 0.125q-1.140625 0.09375 -1.609375 0.25q-0.453125 0.15625 -0.6875 0.5q-0.234375 0.328125 -0.234375 0.734375q0 0.546875 0.375 0.90625q0.375 0.34375 1.0625 0.34375q0.640625 0 1.234375 -0.34375q0.59375 -0.34375 0.9375 -0.953125q0.34375 -0.609375 0.546875 -1.71875zm5.5729675 2.796875l-0.21875 1.046875q-0.46875 0.125 -0.90625 0.125q-0.765625 0 -1.21875 -0.375q-0.34375 -0.28125 -0.34375 -0.78125q0 -0.25 0.1875 -1.15625l0.921875 -4.40625l-1.03125 0l0.203125 -1.0l1.03125 0l0.390625 -1.875l1.484375 -0.890625l-0.578125 2.765625l1.265625 0l-0.203125 1.0l-1.265625 0l-0.890625 4.203125q-0.15625 0.796875 -0.15625 0.953125q0 0.234375 0.125 0.359375q0.140625 0.109375 0.4375 0.109375q0.421875 0 0.765625 -0.078125zm2.884491 -7.984375l0.3125 -1.453125l1.28125 0l-0.3125 1.453125l-1.28125 0zm-1.890625 9.03125l1.59375 -7.59375l1.296875 0l-1.59375 7.59375l-1.296875 0zm3.537384 -2.890625q0 -2.21875 1.3125 -3.671875q1.078125 -1.203125 2.828125 -1.203125q1.375 0 2.21875 0.859375q0.84375 0.859375 0.84375 2.3125q0 1.3125 -0.53125 2.4375q-0.53125 1.125 -1.515625 1.734375q-0.96875 0.59375 -2.046875 0.59375q-0.890625 0 -1.625 -0.375q-0.71875 -0.390625 -1.109375 -1.078125q-0.375 -0.6875 -0.375 -1.609375zm1.296875 -0.125q0 1.078125 0.515625 1.640625q0.515625 0.546875 1.296875 0.546875q0.421875 0 0.828125 -0.171875q0.40625 -0.171875 0.75 -0.515625q0.359375 -0.34375 0.609375 -0.78125q0.25 -0.4375 0.390625 -0.9375q0.234375 -0.71875 0.234375 -1.359375q0 -1.03125 -0.53125 -1.59375q-0.515625 -0.578125 -1.296875 -0.578125q-0.609375 0 -1.109375 0.296875q-0.5 0.28125 -0.90625 0.84375q-0.40625 0.546875 -0.59375 1.296875q-0.1875 0.734375 -0.1875 1.3125zm6.619873 3.015625l1.59375 -7.59375l1.171875 0l-0.28125 1.3125q0.765625 -0.78125 1.421875 -1.125q0.671875 -0.359375 1.375 -0.359375q0.921875 0 1.4375 0.5q0.53125 0.5 0.53125 1.328125q0 0.421875 -0.1875 1.34375l-0.96875 4.59375l-1.296875 0l1.015625 -4.8125q0.15625 -0.703125 0.15625 -1.046875q0 -0.375 -0.265625 -0.609375q-0.265625 -0.234375 -0.75 -0.234375q-1.0 0 -1.78125 0.71875q-0.765625 0.703125 -1.140625 2.453125l-0.734375 3.53125l-1.296875 0zm12.4574585 -2.890625q0 -2.21875 1.3125 -3.671875q1.078125 -1.203125 2.828125 -1.203125q1.375 0 2.21875 0.859375q0.84375 0.859375 0.84375 2.3125q0 1.3125 -0.53125 2.4375q-0.53125 1.125 -1.515625 1.734375q-0.96875 0.59375 -2.046875 0.59375q-0.890625 0 -1.625 -0.375q-0.71875 -0.390625 -1.109375 -1.078125q-0.375 -0.6875 -0.375 -1.609375zm1.296875 -0.125q0 1.078125 0.515625 1.640625q0.515625 0.546875 1.296875 0.546875q0.421875 0 0.828125 -0.171875q0.40625 -0.171875 0.75 -0.515625q0.359375 -0.34375 0.609375 -0.78125q0.25 -0.4375 0.390625 -0.9375q0.234375 -0.71875 0.234375 -1.359375q0 -1.03125 -0.53125 -1.59375q-0.515625 -0.578125 -1.296875 -0.578125q-0.609375 0 -1.109375 0.296875q-0.5 0.28125 -0.90625 0.84375q-0.40625 0.546875 -0.59375 1.296875q-0.1875 0.734375 -0.1875 1.3125zm6.8073425 3.015625l1.375 -6.59375l-1.15625 0l0.203125 -1.0l1.15625 0l0.21875 -1.09375q0.171875 -0.796875 0.359375 -1.15625q0.1875 -0.359375 0.59375 -0.59375q0.40625 -0.234375 1.125 -0.234375q0.484375 0 1.421875 0.203125l-0.234375 1.140625q-0.65625 -0.171875 -1.09375 -0.171875q-0.375 0 -0.578125 0.1875q-0.203125 0.1875 -0.34375 0.890625l-0.171875 0.828125l1.453125 0l-0.21875 1.0l-1.4375 0l-1.390625 6.59375l-1.28125 0zm6.630951 0l5.953125 -10.484375l1.65625 0l1.71875 10.484375l-1.359375 0l-0.5 -3.015625l-4.25 0l-1.671875 3.015625l-1.546875 0zm3.828125 -4.09375l3.46875 0l-0.40625 -2.640625q-0.234375 -1.5625 -0.296875 -2.609375q-0.359375 0.90625 -1.046875 2.140625l-1.71875 3.109375zm6.7287292 4.09375l2.1875 -10.484375l1.296875 0l-0.78125 3.75q0.625 -0.578125 1.125 -0.796875q0.5 -0.234375 1.046875 -0.234375q1.0625 0 1.765625 0.796875q0.71875 0.78125 0.71875 2.296875q0 1.015625 -0.296875 1.859375q-0.28125 0.828125 -0.703125 1.40625q-0.421875 0.5625 -0.875 0.90625q-0.4375 0.328125 -0.921875 0.5q-0.46875 0.171875 -0.90625 0.171875q-0.75 0 -1.328125 -0.390625q-0.5625 -0.40625 -0.890625 -1.21875l-0.296875 1.4375l-1.140625 0zm1.921875 -3.125l-0.015625 0.25q0 0.96875 0.46875 1.484375q0.46875 0.5 1.15625 0.5q0.6875 0 1.25 -0.46875q0.578125 -0.484375 0.9375 -1.484375q0.359375 -1.015625 0.359375 -1.859375q0 -0.96875 -0.46875 -1.5q-0.453125 -0.53125 -1.125 -0.53125q-0.703125 0 -1.296875 0.546875q-0.578125 0.546875 -0.96875 1.671875q-0.296875 0.828125 -0.296875 1.390625zm6.3542175 0.53125l1.296875 -0.078125q0 0.546875 0.171875 0.953125q0.171875 0.390625 0.625 0.640625q0.46875 0.25 1.078125 0.25q0.859375 0 1.28125 -0.34375q0.4375 -0.34375 0.4375 -0.8125q0 -0.328125 -0.25 -0.640625q-0.265625 -0.296875 -1.296875 -0.734375q-1.03125 -0.4375 -1.3125 -0.625q-0.484375 -0.28125 -0.734375 -0.671875q-0.234375 -0.40625 -0.234375 -0.921875q0 -0.90625 0.71875 -1.546875q0.71875 -0.640625 2.0 -0.640625q1.4375 0 2.1875 0.65625q0.75 0.65625 0.765625 1.734375l-1.265625 0.09375q-0.03125 -0.6875 -0.484375 -1.078125q-0.453125 -0.40625 -1.296875 -0.40625q-0.671875 0 -1.046875 0.3125q-0.359375 0.296875 -0.359375 0.65625q0 0.359375 0.3125 0.625q0.21875 0.1875 1.109375 0.578125q1.484375 0.640625 1.875 1.015625q0.625 0.59375 0.625 1.453125q0 0.5625 -0.359375 1.109375q-0.34375 0.53125 -1.0625 0.859375q-0.703125 0.328125 -1.671875 0.328125q-1.3125 0 -2.234375 -0.65625q-0.921875 -0.640625 -0.875 -2.109375zm7.4375 -0.296875q0 -2.21875 1.3125 -3.671875q1.078125 -1.203125 2.828125 -1.203125q1.375 0 2.21875 0.859375q0.84375 0.859375 0.84375 2.3125q0 1.3125 -0.53125 2.4375q-0.53125 1.125 -1.515625 1.734375q-0.96875 0.59375 -2.046875 0.59375q-0.890625 0 -1.625 -0.375q-0.71875 -0.390625 -1.109375 -1.078125q-0.375 -0.6875 -0.375 -1.609375zm1.296875 -0.125q0 1.078125 0.515625 1.640625q0.515625 0.546875 1.296875 0.546875q0.421875 0 0.828125 -0.171875q0.40625 -0.171875 0.75 -0.515625q0.359375 -0.34375 0.609375 -0.78125q0.25 -0.4375 0.390625 -0.9375q0.234375 -0.71875 0.234375 -1.359375q0 -1.03125 -0.53125 -1.59375q-0.515625 -0.578125 -1.296875 -0.578125q-0.609375 0 -1.109375 0.296875q-0.5 0.28125 -0.90625 0.84375q-0.40625 0.546875 -0.59375 1.296875q-0.1875 0.734375 -0.1875 1.3125zm6.619873 3.015625l1.59375 -7.59375l1.140625 0l-0.328125 1.546875q0.59375 -0.875 1.15625 -1.296875q0.5625 -0.421875 1.15625 -0.421875q0.375 0 0.9375 0.265625l-0.515625 1.203125q-0.34375 -0.234375 -0.75 -0.234375q-0.671875 0 -1.390625 0.765625q-0.71875 0.75 -1.125 2.71875l-0.640625 3.046875l-1.234375 0zm4.2400208 2.90625l2.203125 -10.5l1.1875 0l-0.21875 1.046875q0.671875 -0.6875 1.1875 -0.953125q0.53125 -0.265625 1.125 -0.265625q1.078125 0 1.796875 0.796875q0.71875 0.78125 0.71875 2.25q0 1.1875 -0.390625 2.171875q-0.390625 0.96875 -0.96875 1.5625q-0.578125 0.59375 -1.171875 0.875q-0.578125 0.28125 -1.1875 0.28125q-1.375 0 -2.125 -1.390625l-0.859375 4.125l-1.296875 0zm2.5625 -6.015625q0 0.859375 0.125 1.1875q0.1875 0.46875 0.59375 0.75q0.40625 0.28125 0.9375 0.28125q1.125 0 1.8125 -1.25q0.6875 -1.265625 0.6875 -2.5625q0 -0.96875 -0.46875 -1.5q-0.46875 -0.53125 -1.15625 -0.53125q-0.484375 0 -0.90625 0.265625q-0.421875 0.265625 -0.78125 0.78125q-0.359375 0.515625 -0.609375 1.265625q-0.234375 0.75 -0.234375 1.3125zm9.260468 2.0625l-0.21875 1.046875q-0.46875 0.125 -0.90625 0.125q-0.765625 0 -1.21875 -0.375q-0.34375 -0.28125 -0.34375 -0.78125q0 -0.25 0.1875 -1.15625l0.921875 -4.40625l-1.03125 0l0.203125 -1.0l1.03125 0l0.390625 -1.875l1.484375 -0.890625l-0.578125 2.765625l1.265625 0l-0.203125 1.0l-1.265625 0l-0.890625 4.203125q-0.15625 0.796875 -0.15625 0.953125q0 0.234375 0.125 0.359375q0.140625 0.109375 0.4375 0.109375q0.421875 0 0.765625 -0.078125zm2.884491 -7.984375l0.3125 -1.453125l1.28125 0l-0.3125 1.453125l-1.28125 0zm-1.890625 9.03125l1.59375 -7.59375l1.296875 0l-1.59375 7.59375l-1.296875 0zm3.537384 -2.890625q0 -2.21875 1.3125 -3.671875q1.078125 -1.203125 2.828125 -1.203125q1.375 0 2.21875 0.859375q0.84375 0.859375 0.84375 2.3125q0 1.3125 -0.53125 2.4375q-0.53125 1.125 -1.515625 1.734375q-0.96875 0.59375 -2.046875 0.59375q-0.890625 0 -1.625 -0.375q-0.71875 -0.390625 -1.109375 -1.078125q-0.375 -0.6875 -0.375 -1.609375zm1.296875 -0.125q0 1.078125 0.515625 1.640625q0.515625 0.546875 1.296875 0.546875q0.421875 0 0.828125 -0.171875q0.40625 -0.171875 0.75 -0.515625q0.359375 -0.34375 0.609375 -0.78125q0.25 -0.4375 0.390625 -0.9375q0.234375 -0.71875 0.234375 -1.359375q0 -1.03125 -0.53125 -1.59375q-0.515625 -0.578125 -1.296875 -0.578125q-0.609375 0 -1.109375 0.296875q-0.5 0.28125 -0.90625 0.84375q-0.40625 0.546875 -0.59375 1.296875q-0.1875 0.734375 -0.1875 1.3125zm6.619873 3.015625l1.59375 -7.59375l1.171875 0l-0.28125 1.3125q0.765625 -0.78125 1.421875 -1.125q0.671875 -0.359375 1.375 -0.359375q0.921875 0 1.4375 0.5q0.53125 0.5 0.53125 1.328125q0 0.421875 -0.1875 1.34375l-0.96875 4.59375l-1.296875 0l1.015625 -4.8125q0.15625 -0.703125 0.15625 -1.046875q0 -0.375 -0.265625 -0.609375q-0.265625 -0.234375 -0.75 -0.234375q-1.0 0 -1.78125 0.71875q-0.765625 0.703125 -1.140625 2.453125l-0.734375 3.53125l-1.296875 0zm20.582458 -3.6875l1.375 0.1875q-0.65625 1.8125 -1.921875 2.75q-1.25 0.921875 -2.8125 0.921875q-1.90625 0 -3.03125 -1.15625q-1.125 -1.171875 -1.125 -3.34375q0 -2.828125 1.703125 -4.6875q1.515625 -1.65625 3.78125 -1.65625q1.65625 0 2.6875 0.90625q1.046875 0.890625 1.203125 2.390625l-1.3125 0.125q-0.203125 -1.140625 -0.859375 -1.703125q-0.640625 -0.5625 -1.65625 -0.5625q-1.9375 0 -3.125 1.71875q-1.015625 1.46875 -1.015625 3.5q0 1.609375 0.78125 2.46875q0.796875 0.84375 2.078125 0.84375q1.078125 0 1.953125 -0.703125q0.890625 -0.703125 1.296875 -2.0zm7.4124146 2.3125q-1.359375 1.546875 -2.796875 1.546875q-0.875 0 -1.421875 -0.5q-0.53125 -0.515625 -0.53125 -1.234375q0 -0.484375 0.234375 -1.65625l0.921875 -4.375l1.296875 0l-1.015625 4.859375q-0.140625 0.609375 -0.140625 0.9375q0 0.4375 0.265625 0.671875q0.265625 0.234375 0.765625 0.234375q0.546875 0 1.0625 -0.265625q0.53125 -0.265625 0.90625 -0.703125q0.375 -0.453125 0.609375 -1.078125q0.15625 -0.390625 0.359375 -1.375l0.6875 -3.28125l1.296875 0l-1.59375 7.59375l-1.1875 0l0.28125 -1.375zm2.9635925 1.375l1.59375 -7.59375l1.140625 0l-0.328125 1.546875q0.59375 -0.875 1.15625 -1.296875q0.5625 -0.421875 1.15625 -0.421875q0.375 0 0.9375 0.265625l-0.515625 1.203125q-0.34375 -0.234375 -0.75 -0.234375q-0.671875 0 -1.390625 0.765625q-0.71875 0.75 -1.125 2.71875l-0.640625 3.046875l-1.234375 0zm6.8025208 0l-1.25 -7.59375l1.265625 0l0.640625 4.1875q0.109375 0.671875 0.265625 2.234375q0.375 -0.8125 0.953125 -1.859375l2.5468445 -4.5625l1.359375 0l-4.3437195 7.59375l-1.4375 0zm10.9843445 -2.578125l1.265625 0.125q-0.265625 0.9375 -1.25 1.78125q-0.96875 0.84375 -2.328125 0.84375q-0.84375 0 -1.546875 -0.390625q-0.703125 -0.390625 -1.078125 -1.125q-0.359375 -0.75 -0.359375 -1.703125q0 -1.25 0.5625 -2.421875q0.578125 -1.171875 1.5 -1.734375q0.921875 -0.5625 1.984375 -0.5625q1.359375 0 2.171875 0.84375q0.8125 0.84375 0.8125 2.296875q0 0.5625 -0.109375 1.140625l-5.59375 0q-0.03125 0.234375 -0.03125 0.40625q0 1.0625 0.484375 1.625q0.5 0.5625 1.203125 0.5625q0.671875 0 1.3125 -0.4375q0.640625 -0.4375 1.0 -1.25zm-3.765625 -1.890625l4.265625 0q0.015625 -0.203125 0.015625 -0.28125q0 -0.96875 -0.484375 -1.484375q-0.484375 -0.53125 -1.25 -0.53125q-0.84375 0 -1.53125 0.578125q-0.671875 0.5625 -1.015625 1.71875zm6.463623 1.875l1.296875 -0.078125q0 0.546875 0.171875 0.953125q0.171875 0.390625 0.625 0.640625q0.46875 0.25 1.078125 0.25q0.859375 0 1.28125 -0.34375q0.4375 -0.34375 0.4375 -0.8125q0 -0.328125 -0.25 -0.640625q-0.265625 -0.296875 -1.296875 -0.734375q-1.03125 -0.4375 -1.3125 -0.625q-0.484375 -0.28125 -0.734375 -0.671875q-0.234375 -0.40625 -0.234375 -0.921875q0 -0.90625 0.71875 -1.546875q0.71875 -0.640625 2.0 -0.640625q1.4375 0 2.1875 0.65625q0.75 0.65625 0.765625 1.734375l-1.265625 0.09375q-0.03125 -0.6875 -0.484375 -1.078125q-0.453125 -0.40625 -1.296875 -0.40625q-0.671875 0 -1.046875 0.3125q-0.359375 0.296875 -0.359375 0.65625q0 0.359375 0.3125 0.625q0.21875 0.1875 1.109375 0.578125q1.484375 0.640625 1.875 1.015625q0.625 0.59375 0.625 1.453125q0 0.5625 -0.359375 1.109375q-0.34375 0.53125 -1.0625 0.859375q-0.703125 0.328125 -1.671875 0.328125q-1.3125 0 -2.234375 -0.65625q-0.921875 -0.640625 -0.875 -2.109375z" fill-rule="nonzero"/></g></svg>